<?xml version="1.0" standalone="no"?>
<!DOCTYPE svg PUBLIC "-//W3C//DTD SVG 1.1//EN" "http://www.w3.org/Graphics/SVG/1.1/DTD/svg11.dtd" >
<svg xmlns="http://www.w3.org/2000/svg" xmlns:xlink="http://www.w3.org/1999/xlink" version="1.1">
<metadata>
Created by FontForge 20190801 at Wed Jun 14 09:00:55 2023
 By www-data
Copyright 2014 The DM Sans Project Authors (https://github.com/googlefonts/dm-fonts)
</metadata>
<defs>
<font id="DMSansItalic" horiz-adv-x="0" >
  <font-face 
    font-family="DMSansItalic"
    font-weight="400"
    font-style="italic"
    font-stretch="normal"
    units-per-em="1000"
    panose-1="0 0 0 0 0 0 0 0 0 0"
    ascent="800"
    descent="-200"
    x-height="504"
    cap-height="700"
    bbox="-122 -259 1129 976"
    underline-thickness="50"
    underline-position="-125"
    slope="-10"
    unicode-range="U+000D-FB02"
  />
<missing-glyph horiz-adv-x="551" 
d="M30 0l124 700h401l-124 -700h-401zM110 57h261l104 586h-261z" />
    <glyph glyph-name="fi" unicode="fi" horiz-adv-x="564" 
d="M53 0l77 433h-76l12 71h76l13 78q9 48 30.5 78.5t56 45t80.5 14.5h49l-13 -72h-36q-37 0 -56.5 -15t-26.5 -53l-12 -76h302l-89 -504h-84l76 433h-218l-77 -433h-84zM517 611q-24 0 -41 16.5t-17 40.5q0 26 17 41.5t41 15.5q25 0 41.5 -15.5t16.5 -41.5
q0 -24 -16.5 -40.5t-41.5 -16.5z" />
    <glyph glyph-name="fl" unicode="fl" horiz-adv-x="564" 
d="M54 0l102 582q9 48 30 78.5t55.5 45t80.5 14.5h56l-13 -72h-42q-38 0 -57 -15t-26 -53l-102 -580h-84zM54 433l12 71h287l-13 -71h-286zM365 0l128 720h84l-128 -720h-84z" />
    <glyph glyph-name=".notdef" horiz-adv-x="551" 
d="M30 0l124 700h401l-124 -700h-401zM110 57h261l104 586h-261z" />
    <glyph glyph-name=".null" 
 />
    <glyph glyph-name="nonmarkingreturn" horiz-adv-x="333" 
 />
    <glyph glyph-name="CR" unicode="&#xd;" horiz-adv-x="600" 
 />
    <glyph glyph-name="space" unicode=" " horiz-adv-x="282" 
 />
    <glyph glyph-name="exclam" unicode="!" horiz-adv-x="252" 
d="M72 194l80 506h91l-100 -506h-71zM91 -5q-25 0 -41.5 16.5t-16.5 40.5t16 40.5t42 16.5q25 0 41 -16.5t16 -40.5t-16 -40.5t-41 -16.5z" />
    <glyph glyph-name="quotedbl" unicode="&#x22;" horiz-adv-x="316" 
d="M226 551l60 204h80l-82 -204h-58zM91 551l60 204h80l-82 -204h-58z" />
    <glyph glyph-name="numbersign" unicode="#" horiz-adv-x="805" 
d="M390 0l272 706h80l-272 -706h-80zM100 0l272 706h79l-271 -706h-80zM37 197l13 75h669l-14 -75h-668zM120 435l13 74h669l-12 -74h-670z" />
    <glyph glyph-name="dollar" unicode="$" horiz-adv-x="583" 
d="M187 -87l154 878h69l-154 -878h-69zM261 -12q-75 0 -129 26t-79.5 76t-14.5 120h88q-10 -43 6 -77t52 -54t87 -20q52 0 88 17t56 48t22 71q2 29 -8 48.5t-28 34t-42.5 25t-53 20t-57.5 20.5q-70 25 -103.5 66t-30.5 98q2 61 34 107t87.5 72t127.5 26q66 0 113 -24.5
t70 -68.5t12 -101h-87q5 34 -8 61.5t-42 44t-71 16.5t-75 -15t-52 -42.5t-21 -64.5q-1 -24 7.5 -41t24.5 -29.5t39 -23t50.5 -20t58.5 -20.5q32 -11 59 -27.5t46.5 -38t30 -49.5t8.5 -65q-3 -63 -36 -111.5t-91.5 -76.5t-137.5 -28z" />
    <glyph glyph-name="percent" unicode="%" horiz-adv-x="787" 
d="M101 0l531 700h83l-530 -700h-84zM542 -12q-41 0 -72.5 17.5t-48 50.5t-14.5 78q2 54 28 97t69 68t93 25q41 0 72 -17.5t47.5 -50t14.5 -77.5q-2 -54 -27.5 -97t-68 -68.5t-93.5 -25.5zM226 375q-41 0 -72.5 18t-48 50.5t-14.5 77.5q2 54 28.5 96.5t68.5 68t93 25.5
q42 0 73 -17.5t47.5 -50t14.5 -78.5q-3 -53 -29 -96t-68 -68.5t-93 -25.5zM552 52q28 0 52.5 16t39.5 43.5t17 61.5q2 45 -19 67t-54 22q-28 0 -53 -16t-40.5 -43.5t-16.5 -62.5q-2 -45 20 -66.5t54 -21.5zM235 439q30 0 54 16t39.5 43.5t16.5 61.5q2 45 -19 67t-54 22
q-29 0 -53.5 -16t-40 -43.5t-17.5 -62.5q-2 -45 20 -66.5t54 -21.5z" />
    <glyph glyph-name="ampersand" unicode="&#x26;" horiz-adv-x="735" 
d="M561 0l-312 388q-33 41 -47.5 74t-12.5 71q2 52 29.5 92.5t74.5 63.5t108 23q53 0 90 -19.5t54 -54.5t8 -81h-83q7 40 -16 64t-65 24q-50 0 -82.5 -29.5t-34.5 -72.5q-1 -28 11.5 -55.5t38.5 -61.5l344 -426h-105zM236 -12q-65 0 -112 23t-71.5 65.5t-21.5 98.5
q2 59 30.5 106.5t78.5 83.5t116 57l34 10l33 -54l-39 -12q-74 -25 -119.5 -71.5t-47.5 -110.5q-2 -36 13.5 -63.5t45.5 -43t71 -15.5q53 0 98 18t90 59q29 26 59 61t62 78l63 84h88l-79 -110q-39 -54 -75.5 -96t-74.5 -74q-57 -48 -115.5 -71t-126.5 -23z" />
    <glyph glyph-name="quotesingle" unicode="'" horiz-adv-x="163" 
d="M99 551l34 204h81l-57 -204h-58z" />
    <glyph glyph-name="parenleft" unicode="(" horiz-adv-x="373" 
d="M178 -145q-38 45 -68 103.5t-45.5 130.5t-10.5 156q4 110 42.5 214t103 194.5t147.5 157.5h86l-1 -8q-88 -73 -152.5 -163t-100.5 -188.5t-41 -198.5q-4 -76 11 -146t45 -131.5t73 -112.5l-2 -8h-87z" />
    <glyph glyph-name="parenright" unicode=")" horiz-adv-x="374" 
d="M224 811q39 -43 69 -102.5t45 -131t11 -155.5q-5 -110 -43 -214.5t-102.5 -194.5t-148.5 -158h-86l1 8q88 74 152.5 163.5t101 188t40.5 198.5q4 77 -10.5 146.5t-45 131t-72.5 112.5l1 8h87z" />
    <glyph glyph-name="asterisk" unicode="*" horiz-adv-x="479" 
d="M228 360l39 153l-139 -87l-24 61l148 61l-126 60l42 59l112 -87l13 153h68l-42 -153l140 86l22 -57l-149 -62l128 -61l-43 -59l-111 86l-12 -153h-66z" />
    <glyph glyph-name="plus" unicode="+" horiz-adv-x="550" 
d="M205 72l77 436h76l-76 -436h-77zM47 255l12 71h457l-12 -71h-457z" />
    <glyph glyph-name="comma" unicode="," horiz-adv-x="182" 
d="M-61 -120l96 221h87l-125 -221h-58z" />
    <glyph glyph-name="hyphen" unicode="-" horiz-adv-x="515" 
d="M74 255l12 71h396l-12 -71h-396z" />
    <glyph glyph-name="period" unicode="." horiz-adv-x="200" 
d="M65 -5q-25 0 -41.5 16.5t-16.5 40.5t16.5 40.5t41.5 16.5t41 -16.5t16 -40.5t-16 -40.5t-41 -16.5z" />
    <glyph glyph-name="slash" unicode="/" horiz-adv-x="392" 
d="M-32 -95l402 859h83l-403 -859h-82z" />
    <glyph glyph-name="zero" unicode="0" horiz-adv-x="687" 
d="M299 -12q-80 0 -135.5 37t-82 103t-21.5 154q3 92 32 170t78 136.5t113.5 91t139.5 32.5q81 0 136 -37t81.5 -103t21.5 -154q-4 -92 -32.5 -170.5t-77.5 -136.5t-113.5 -90.5t-139.5 -32.5zM310 62q53 0 99 26.5t82 74t58 111t25 137.5q4 71 -15 121.5t-57 77.5t-90 27
q-53 0 -99.5 -26.5t-82.5 -73.5t-58 -110.5t-25 -137.5q-4 -71 15.5 -122t57.5 -78t90 -27z" />
    <glyph glyph-name="one" unicode="1" horiz-adv-x="313" 
d="M108 0l107 606l-127 -34l12 64l160 64h57l-124 -700h-85z" />
    <glyph glyph-name="two" unicode="2" horiz-adv-x="587" 
d="M30 0l10 59q104 72 182.5 135t131 119.5t80 108t29.5 100.5q2 30 -8 57t-35 44t-68 17q-46 0 -80.5 -20.5t-55 -54t-27.5 -73.5h-82q13 69 49.5 118t89.5 75.5t116 26.5q58 0 100.5 -21.5t65.5 -62.5t20 -99q-2 -45 -19.5 -89t-49.5 -88.5t-78 -90t-104.5 -93
t-129.5 -98.5h340l-12 -70h-465z" />
    <glyph glyph-name="three" unicode="3" horiz-adv-x="590" 
d="M250 -12q-75 0 -124 27.5t-70 77t-12 115.5h85q-3 -48 9.5 -81t42.5 -49.5t79 -16.5q50 0 88.5 20t61 54.5t24.5 79.5q2 41 -17.5 69t-53.5 42.5t-78 14.5h-52l12 71h53q73 0 119.5 35.5t48.5 96.5q2 41 -24.5 68t-82.5 27q-59 0 -100 -34t-55 -87h-85q13 57 47.5 101
t86.5 68.5t116 24.5q62 0 103.5 -20.5t62 -56t18.5 -80.5q-2 -39 -20 -75t-50 -63t-76 -37q35 -8 60.5 -29t39.5 -53.5t12 -75.5q-3 -67 -38 -120t-94.5 -83.5t-136.5 -30.5z" />
    <glyph glyph-name="four" unicode="4" horiz-adv-x="608" 
d="M349 0l27 150h-356l11 65l426 485h98l-84 -476h104l-13 -74h-104l-27 -150h-82zM126 224h265l69 383v0z" />
    <glyph glyph-name="five" unicode="5" horiz-adv-x="613" 
d="M268 -12q-65 0 -113.5 24t-75 68.5t-25.5 105.5h83q1 -56 39.5 -91t102.5 -35q53 0 96 25.5t69.5 70.5t28.5 102q2 43 -13.5 76.5t-45.5 53.5t-72 20q-57 0 -101 -25t-71 -65h-80l126 382h369l-13 -73h-305l-77 -214q30 28 73 47t98 19q46 0 83 -16.5t62.5 -45t38 -66.5
t10.5 -82q-3 -80 -41.5 -143.5t-102.5 -100.5t-143 -37z" />
    <glyph glyph-name="six" unicode="6" horiz-adv-x="621" 
d="M281 -12q-65 0 -108 21.5t-68 58.5t-34.5 85t-6.5 100q3 95 29 178t71 146t106 99t134 36q63 0 104.5 -25.5t61 -68.5t15.5 -96h-78q0 55 -30.5 86t-85.5 31q-51 0 -97 -30.5t-82 -94t-59 -160.5q-1 -5 -1.5 -10t-2.5 -10q23 33 54.5 58.5t71.5 40.5t86 15q59 0 103 -26
t68.5 -71.5t21.5 -104.5q-2 -53 -23.5 -99.5t-59 -82t-86 -56t-104.5 -20.5zM287 62q51 0 91 22.5t64 61.5t26 89q2 41 -13.5 72.5t-46 49.5t-72.5 18q-50 0 -91 -23t-65.5 -62t-26.5 -87q-2 -40 14 -72t46.5 -50.5t73.5 -18.5z" />
    <glyph glyph-name="seven" unicode="7" horiz-adv-x="534" 
d="M91 0l384 628h-382l13 72h470l-11 -63l-383 -637h-91z" />
    <glyph glyph-name="eight" unicode="8" horiz-adv-x="606" 
d="M261 -12q-63 0 -111 22.5t-74 64t-23 97.5q2 48 24.5 89.5t61 70.5t86.5 41q-47 18 -72 55t-23 82q2 58 36 104t90.5 72t126.5 26q62 0 105 -21.5t64.5 -59t19.5 -87.5q-2 -43 -22 -76t-52 -57t-72 -38q56 -16 82.5 -60t23.5 -100q-2 -67 -39.5 -118t-98.5 -79t-133 -28z
M273 62q51 0 89.5 19t61.5 52.5t25 78.5q3 61 -34 91t-98 30q-48 0 -88.5 -18.5t-64.5 -52.5t-26 -81q-3 -55 32.5 -87t102.5 -32zM335 403q37 0 71 14.5t56 44t24 73.5q2 39 -13.5 62t-42 33t-60.5 10q-43 0 -77 -16t-54.5 -45t-22.5 -70q-2 -52 31.5 -79t87.5 -27z" />
    <glyph glyph-name="nine" unicode="9" horiz-adv-x="622" 
d="M253 -12q-63 0 -104.5 26t-61 69.5t-16.5 94.5h78q0 -55 31 -86t85 -31q41 0 74.5 16.5t60 45.5t47 68t35 83.5t25.5 91.5q-22 -32 -54 -58t-71 -41t-86 -15q-59 0 -103.5 26.5t-69 72.5t-21.5 106q3 54 24.5 100.5t58.5 81t86 54t105 19.5q65 0 108 -21t68 -58t34.5 -85
t6.5 -101q-4 -94 -30 -177.5t-71 -146.5t-105.5 -99t-133.5 -36zM320 325q50 0 91 23t66 62.5t27 86.5q2 40 -14 72t-47 50.5t-74 18.5q-50 0 -90 -22.5t-64 -61.5t-26 -89q-2 -40 12.5 -72t44.5 -50t74 -18z" />
    <glyph glyph-name="colon" unicode=":" horiz-adv-x="205" 
d="M66 -5q-25 0 -41.5 16.5t-16.5 40.5t16.5 40.5t41.5 16.5t41 -16.5t16 -40.5t-16 -40.5t-41 -16.5zM137 402q-25 0 -41.5 16.5t-16.5 40.5t16.5 40.5t41.5 16.5t41 -16.5t16 -40.5t-16 -40.5t-41 -16.5z" />
    <glyph glyph-name="semicolon" unicode=";" horiz-adv-x="215" 
d="M134 402q-25 0 -41.5 16.5t-16.5 40.5t16.5 40.5t41.5 16.5t41 -16.5t16 -40.5t-16 -40.5t-41 -16.5zM-40 -120l96 221h87l-125 -221h-58z" />
    <glyph glyph-name="less" unicode="&#x3c;" horiz-adv-x="550" 
d="M515 581l-296 -234l204 -227h-108l-203 231v0l285 230h118z" />
    <glyph glyph-name="equal" unicode="=" horiz-adv-x="550" 
d="M95 359l12 72h399l-13 -72h-398zM58 151l12 72h399l-13 -72h-398z" />
    <glyph glyph-name="greater" unicode="&#x3e;" horiz-adv-x="550" 
d="M70 120l296 234l-204 227h108l203 -231v0l-285 -230h-118z" />
    <glyph glyph-name="question" unicode="?" horiz-adv-x="526" 
d="M150 201l24 156h29q50 0 93.5 8t76 26.5t51.5 51t21 81.5q2 36 -12 62t-41.5 40.5t-66.5 14.5q-42 0 -77 -16t-57.5 -44.5t-30.5 -68.5h-79q11 60 47 105t90.5 70t118.5 25q60 0 103.5 -22.5t66.5 -63t20 -96.5q-3 -76 -40.5 -127.5t-100 -77.5t-143.5 -26l-21 -98h-72z
M164 -5q-25 0 -41 16.5t-16 40.5t16 40.5t41 16.5t41 -16.5t16 -40.5t-16 -40.5t-41 -16.5z" />
    <glyph glyph-name="at" unicode="@" horiz-adv-x="995" 
d="M420 -199q-105 0 -185 41.5t-124.5 118t-44.5 180.5q0 105 35.5 195.5t100.5 159t155 106.5t199 38q110 0 191.5 -42.5t126.5 -118t45 -175.5q0 -58 -13.5 -113t-40.5 -99.5t-66 -71t-91 -26.5q-59 0 -85.5 37t-19.5 95l3 34l18 -30q-26 -63 -80 -99.5t-118 -36.5
q-75 0 -117 46t-42 125q0 55 17 105t48.5 89.5t75.5 62.5t97 23q62 0 98 -32.5t42 -95.5l-21 -13l23 130h72l-50 -286q-7 -43 4 -69.5t48 -26.5q32 0 56.5 23t41 60t24.5 80.5t8 84.5q0 88 -37 150.5t-105.5 96.5t-161.5 34q-91 0 -167 -33t-131 -92.5t-85 -138t-30 -169.5
q0 -92 36 -156t104 -97.5t162 -33.5q43 0 85.5 8.5t80.5 25.5l13 -57q-45 -19 -94 -28t-101 -9zM451 58q42 0 77 23t58.5 63.5t27.5 94.5q5 39 -6 71t-36 51.5t-65 19.5q-38 0 -68.5 -17.5t-51.5 -46.5t-32 -65t-11 -74q0 -54 27 -87t80 -33z" />
    <glyph glyph-name="A" unicode="A" horiz-adv-x="664" 
d="M-14 0l382 700h89l133 -700h-88l-108 600v0l-319 -600h-89zM119 180l35 67h348l12 -67h-395z" />
    <glyph glyph-name="B" unicode="B" horiz-adv-x="604" 
d="M31 0l123 700h247q67 0 109.5 -20.5t62.5 -55.5t17 -80q-2 -55 -28.5 -96t-69.5 -64.5t-97 -29.5l15 10q41 -1 73 -20.5t49.5 -53t15.5 -76.5q-3 -62 -38 -110.5t-93.5 -76t-131.5 -27.5h-254zM127 69h161q52 0 90.5 18t61 51.5t24.5 78.5q3 50 -32.5 80t-100.5 30h-159z
M185 393h155q72 0 116 38t47 100q1 32 -12 54.5t-40.5 34.5t-71.5 12h-153z" />
    <glyph glyph-name="C" unicode="C" horiz-adv-x="719" 
d="M335 -12q-91 0 -154 37.5t-94 105.5t-27 158t35.5 167.5t85.5 135t125 89t154 31.5q120 0 185.5 -57t68.5 -161h-94q-3 67 -45.5 105.5t-126.5 38.5q-62 0 -115.5 -25.5t-94 -72t-64 -109.5t-26.5 -137q-4 -73 19 -124.5t68.5 -79.5t111.5 -28q84 0 139.5 38t82.5 103h94
q-26 -67 -72.5 -115.5t-111 -74t-144.5 -25.5z" />
    <glyph glyph-name="D" unicode="D" horiz-adv-x="692" 
d="M31 0l123 700h207q110 0 178.5 -35.5t99.5 -102t26 -162.5q-4 -90 -34.5 -163.5t-86 -126.5t-132.5 -81.5t-175 -28.5h-206zM127 70h121q104 0 176 40t111 113.5t43 171.5q4 76 -18 128.5t-74 79.5t-140 27h-120z" />
    <glyph glyph-name="E" unicode="E" horiz-adv-x="545" 
d="M31 0l123 700h412l-12 -67h-328l-43 -247h298l-12 -66h-298l-44 -252h327l-12 -68h-411z" />
    <glyph glyph-name="F" unicode="F" horiz-adv-x="528" 
d="M31 0l123 700h419l-12 -67h-335l-43 -249h282l-12 -65h-282l-56 -319h-84z" />
    <glyph glyph-name="G" unicode="G" horiz-adv-x="761" 
d="M332 -12q-89 0 -151 40t-93 109.5t-26 159.5q3 90 34 166t85.5 132t126.5 86.5t159 30.5q118 0 189.5 -56.5t75.5 -157.5h-97q-4 63 -49.5 100t-129.5 37q-88 0 -156 -42.5t-107.5 -117.5t-43.5 -175q-4 -72 19.5 -125.5t69.5 -82.5t110 -29q75 0 130 30t91.5 85
t55.5 130h-202l11 66h289l-66 -374h-77l13 115v0q-32 -41 -69.5 -69.5t-84 -43t-107.5 -14.5z" />
    <glyph glyph-name="H" unicode="H" horiz-adv-x="682" 
d="M478 0l124 700h84l-124 -700h-84zM31 0l123 700h84l-123 -700h-84zM155 324l12 66h401l-12 -66h-401z" />
    <glyph glyph-name="I" unicode="I" horiz-adv-x="235" 
d="M31 0l123 700h84l-123 -700h-84z" />
    <glyph glyph-name="J" unicode="J" horiz-adv-x="489" 
d="M178 -12q-59 0 -99 24t-56.5 68.5t-5.5 106.5h85q-6 -35 0 -63t27.5 -44.5t61.5 -16.5q39 0 65 15.5t41 41.5t20 55l92 525h84l-92 -525q-15 -86 -75 -136.5t-148 -50.5z" />
    <glyph glyph-name="K" unicode="K" horiz-adv-x="585" 
d="M31 0l123 700h84l-55 -317l347 317h106l-308 -279l189 -421h-96l-161 361l-97 -88l-48 -273h-84z" />
    <glyph glyph-name="L" unicode="L" horiz-adv-x="528" 
d="M31 0l123 700h84l-111 -633h326l-12 -67h-410z" />
    <glyph glyph-name="M" unicode="M" horiz-adv-x="843" 
d="M31 0l124 700h97l163 -489v0l332 489h99l-123 -700h-84l97 550v0l-310 -452h-63l-151 450v0l-97 -548h-84z" />
    <glyph glyph-name="N" unicode="N" horiz-adv-x="692" 
d="M31 0l123 700h84l274 -566v0l99 566h84l-123 -700h-84l-273 566v0l-100 -566h-84z" />
    <glyph glyph-name="O" unicode="O" horiz-adv-x="781" 
d="M345 -12q-89 0 -154.5 40.5t-100 111.5t-29.5 162q4 87 37 161.5t89.5 130t129 87t154.5 31.5q90 0 155 -40t99.5 -110.5t29.5 -162.5q-4 -87 -37 -161.5t-89 -130.5t-128.5 -87.5t-155.5 -31.5zM357 62q63 0 118 25t97 70t67.5 106t28.5 133q4 75 -21 129t-73.5 83
t-114.5 29q-63 0 -118 -24.5t-97.5 -69.5t-67.5 -105.5t-28 -131.5q-4 -75 21 -130t74 -84.5t114 -29.5z" />
    <glyph glyph-name="P" unicode="P" horiz-adv-x="584" 
d="M31 0l123 700h229q75 0 121.5 -25t67.5 -67t19 -92q-3 -69 -38 -120.5t-96.5 -79t-145.5 -27.5h-145l-51 -289h-84zM179 360h143q86 0 132.5 38.5t48.5 113.5q3 52 -28 85t-106 33h-143z" />
    <glyph glyph-name="Q" unicode="Q" horiz-adv-x="781" 
d="M523 -95l-156 368h96l155 -368h-95zM345 -12q-89 0 -154.5 40.5t-100 111.5t-29.5 162q4 87 37 161.5t89.5 130t129 87t154.5 31.5q90 0 155 -40t99.5 -110.5t29.5 -162.5q-4 -87 -37 -161.5t-89 -130.5t-128.5 -87.5t-155.5 -31.5zM357 62q63 0 118 25t97 70t67.5 106
t28.5 133q4 75 -21 129t-73.5 83t-114.5 29q-63 0 -118 -24.5t-97.5 -69.5t-67.5 -105.5t-28 -131.5q-4 -75 21 -130t74 -84.5t114 -29.5z" />
    <glyph glyph-name="R" unicode="R" horiz-adv-x="595" 
d="M31 0l123 700h226q74 0 119.5 -25t65.5 -66.5t18 -91.5q-3 -68 -38 -119.5t-97 -80t-144 -28.5h-138l-51 -289h-84zM408 0l-99 313h88l103 -313h-92zM178 355h136q82 0 131 41t51 115q3 50 -28.5 84t-106.5 34h-135z" />
    <glyph glyph-name="S" unicode="S" horiz-adv-x="583" 
d="M261 -12q-75 0 -129 26t-79.5 76t-14.5 120h88q-10 -43 6 -77t52 -54t87 -20q52 0 88 17t56 48t22 71q2 29 -8 48.5t-28 34t-42.5 25t-53 20t-57.5 20.5q-70 25 -103.5 66t-30.5 98q2 61 34 107t87.5 72t127.5 26q66 0 113 -24.5t70 -68.5t12 -101h-87q5 34 -8 61.5
t-42 44t-71 16.5t-75 -15t-52 -42.5t-21 -64.5q-1 -24 7.5 -41t24.5 -29.5t39 -23t50.5 -20t58.5 -20.5q32 -11 59 -27.5t46.5 -38t30 -49.5t8.5 -65q-3 -63 -36 -111.5t-91.5 -76.5t-137.5 -28z" />
    <glyph glyph-name="T" unicode="T" horiz-adv-x="560" 
d="M194 0l111 633h-208l12 67h501l-12 -67h-209l-112 -633h-83z" />
    <glyph glyph-name="U" unicode="U" horiz-adv-x="656" 
d="M281 -12q-80 0 -132.5 31.5t-73.5 92.5t-6 146l79 442h84l-79 -442q-10 -62 2 -105.5t47 -66t93 -22.5q53 0 95.5 20t72 63t41.5 111l79 442h84l-78 -442q-16 -93 -61.5 -152.5t-109.5 -88.5t-137 -29z" />
    <glyph glyph-name="V" unicode="V" horiz-adv-x="669" 
d="M241 0l-139 700h91l113 -609v0l330 609h90l-387 -700h-98z" />
    <glyph glyph-name="W" unicode="W" horiz-adv-x="968" 
d="M174 -1l-68 701h91l45 -597v0l277 597h94l60 -598v0l258 598h91l-320 -700h-96l-65 577v0l-272 -577z" />
    <glyph glyph-name="X" unicode="X" horiz-adv-x="604" 
d="M-4 0l275 352l-153 348h96l123 -280v0l213 280h95l-276 -351l152 -349h-95l-121 281v0l-215 -281h-94z" />
    <glyph glyph-name="Y" unicode="Y" horiz-adv-x="580" 
d="M204 0l47 266l-151 434h95l112 -354v0l238 354h94l-304 -434l-47 -266h-84z" />
    <glyph glyph-name="Z" unicode="Z" horiz-adv-x="541" 
d="M0 0l12 66l447 561h-343l13 73h442l-11 -66l-449 -561h354l-13 -73h-452z" />
    <glyph glyph-name="bracketleft" unicode="[" horiz-adv-x="315" 
d="M4 -151l170 962h179l-12 -69h-101l-145 -823h101l-13 -70h-179z" />
    <glyph glyph-name="backslash" unicode="\" horiz-adv-x="694" 
d="M605 -95h-82l-403 859h83z" />
    <glyph glyph-name="bracketright" unicode="]" horiz-adv-x="314" 
d="M338 811l-170 -962h-179l13 69h100l145 823h-100l12 70h179z" />
    <glyph glyph-name="asciicircum" unicode="^" horiz-adv-x="622" 
d="M31 210l321 490h78l148 -490h-86l-117 391v0l-258 -391h-86z" />
    <glyph glyph-name="underscore" unicode="_" horiz-adv-x="634" 
d="M8 -115l13 79h515l-13 -79h-515z" />
    <glyph glyph-name="grave" unicode="`" horiz-adv-x="213" 
d="M256 545l-183 116l24 72v0l179 -127z" />
    <glyph glyph-name="a" unicode="a" horiz-adv-x="552" 
d="M187 -12q-57 0 -92.5 19.5t-51.5 52t-14 69.5q2 54 33 93t86 60t126 21h133q8 48 -0.5 79.5t-33.5 47t-65 15.5q-48 0 -87 -24t-56 -71h-87q16 54 52.5 90.5t85.5 56t103 19.5q68 0 110.5 -25.5t58.5 -71t5 -107.5l-55 -312h-76l11 89v0q-14 -21 -32.5 -39.5t-41.5 -32.5
t-51 -21.5t-61 -7.5zM211 59q36 0 68 14.5t57.5 39.5t41 56t17.5 65v4h-125q-47 0 -81 -12.5t-51.5 -35t-19.5 -53.5q-1 -36 23 -57t70 -21z" />
    <glyph glyph-name="b" unicode="b" horiz-adv-x="621" 
d="M289 -12q-42 0 -75.5 14t-56 36t-33.5 46v0l-23 -84h-76l127 720h84l-52 -295q31 38 78 64.5t112 26.5q66 0 112 -30t69 -81.5t20 -116.5q-3 -64 -25.5 -118.5t-61.5 -95t-89.5 -63.5t-109.5 -23zM292 61q55 0 98 28t69 77t29 112q3 49 -13 86t-47.5 58t-75.5 21
q-55 0 -98.5 -29t-70.5 -78.5t-29 -112.5q-3 -49 13 -85.5t48 -56.5t77 -20z" />
    <glyph glyph-name="c" unicode="c" horiz-adv-x="574" 
d="M252 -12q-64 0 -112 28.5t-72.5 79.5t-21.5 119q3 66 27 121t65 95t93.5 62.5t112.5 22.5q90 0 142.5 -47.5t54.5 -127.5h-86q-1 51 -36.5 77t-86.5 26q-53 0 -97 -28t-71.5 -77.5t-30.5 -116.5q-2 -39 7 -69.5t27 -51t42.5 -31.5t54.5 -11q35 0 66.5 12t56 35t37.5 57
h86q-19 -51 -57 -90.5t-89.5 -62t-111.5 -22.5z" />
    <glyph glyph-name="d" unicode="d" horiz-adv-x="622" 
d="M247 -12q-66 0 -112 31t-68.5 84.5t-19.5 117.5q3 65 25.5 118.5t61 93t89 61.5t107.5 22q65 0 106.5 -26t61.5 -69l53 299h84l-127 -720h-77l7 83v0q-19 -25 -46 -46.5t-63 -35t-82 -13.5zM271 61q55 0 98.5 29.5t70 80t28.5 113.5q3 49 -12.5 84t-47 55t-76.5 20
q-54 0 -98 -27.5t-70.5 -76.5t-29.5 -112q-3 -48 13 -86t48 -59t76 -21z" />
    <glyph glyph-name="e" unicode="e" horiz-adv-x="570" 
d="M246 -12q-63 0 -109.5 28t-70 79t-20.5 119q3 65 26 119.5t62.5 95.5t91.5 64t113 23q68 0 112.5 -28t65.5 -74.5t18 -102.5q0 -17 -3.5 -38.5t-8.5 -39.5h-412l11 65h330q7 47 -8 79.5t-45 50t-72 17.5t-82 -19.5t-69 -57t-39 -93.5l-5 -28q-10 -56 2.5 -99t45 -66
t79.5 -23q53 0 91.5 24t60.5 64h83q-20 -46 -56 -81.5t-84.5 -56.5t-107.5 -21z" />
    <glyph glyph-name="f" unicode="f" horiz-adv-x="340" 
d="M54 0l102 582q9 48 30 78.5t55.5 45t80.5 14.5h56l-13 -72h-42q-38 0 -57 -15t-26 -53l-102 -580h-84zM54 433l12 71h287l-13 -71h-286z" />
    <glyph glyph-name="g" unicode="g" horiz-adv-x="553" 
d="M177 -232q-64 0 -111 17t-72.5 49.5t-22.5 79.5q1 33 15.5 62.5t43 55.5t71.5 47l52 -34q-49 -22 -72.5 -52.5t-25.5 -64.5q-1 -29 14.5 -49.5t46 -31t73.5 -10.5q68 0 111.5 30t45.5 80q2 32 -20.5 54t-90.5 26q-49 4 -85 10.5t-62 16t-44.5 22t-31.5 26.5l4 24l109 88
l66 -26l-114 -87l19 41q13 -10 25 -17.5t28.5 -13t41 -9.5t61.5 -7q71 -5 110.5 -24.5t54.5 -50t13 -66.5q-2 -52 -33.5 -94t-88 -67t-131.5 -25zM243 158q-57 0 -95.5 20t-57 55t-16.5 79q3 58 34 104t82.5 73t115.5 27q58 0 96 -20.5t56 -55t16 -78.5q-2 -58 -32.5 -104
t-82 -73t-116.5 -27zM255 227q60 0 98 35t41 93q2 45 -24 68t-76 23q-59 0 -97.5 -34.5t-40.5 -92.5q-3 -45 23.5 -68.5t75.5 -23.5zM374 433l-13 71h206l-11 -63z" />
    <glyph glyph-name="h" unicode="h" horiz-adv-x="576" 
d="M26 0l126 720h84l-53 -301v0q33 45 82.5 71t103.5 26q59 0 98 -23.5t54 -71.5t2 -121l-52 -300h-84l51 291q13 76 -13 114.5t-87 38.5q-43 0 -80.5 -21t-63.5 -60t-37 -96l-47 -267h-84z" />
    <glyph glyph-name="i" unicode="i" horiz-adv-x="241" 
d="M35 0l88 504h84l-88 -504h-84zM194 611q-25 0 -41 16t-17 41q0 25 16.5 41t41.5 16q24 0 41 -15.5t17 -41.5q1 -25 -16.5 -41t-41.5 -16z" />
    <glyph glyph-name="j" unicode="j" horiz-adv-x="252" 
d="M-111 -220l13 72h39q37 0 55.5 15.5t25.5 52.5l104 584h84l-104 -586q-8 -48 -29.5 -78.5t-55.5 -45t-81 -14.5h-51zM198 611q-25 0 -41.5 16.5t-16.5 40.5q0 26 16.5 41.5t41.5 15.5q24 0 40.5 -15.5t16.5 -41.5q0 -24 -16.5 -40.5t-40.5 -16.5z" />
    <glyph glyph-name="k" unicode="k" horiz-adv-x="512" 
d="M347 0l-201 277l257 227h109l-302 -257l9 63l231 -310h-103zM25 0l128 720h84l-128 -720h-84z" />
    <glyph glyph-name="l" unicode="l" horiz-adv-x="224" 
d="M25 0l128 720h84l-128 -720h-84z" />
    <glyph glyph-name="m" unicode="m" horiz-adv-x="884" 
d="M26 0l88 504h75l-7 -80v0q30 43 73 67.5t92 24.5q37 0 67 -11t50.5 -33t30.5 -55v0q33 47 82 73t101 26q55 0 94 -23.5t56 -71t3 -120.5l-52 -301h-84l51 292q13 76 -11.5 114t-77.5 38q-35 0 -67 -18.5t-57.5 -53t-37.5 -85.5l-51 -287h-83l51 292q13 76 -12 114t-78 38
q-36 0 -70 -20.5t-59.5 -59.5t-35.5 -96l-47 -268h-84z" />
    <glyph glyph-name="n" unicode="n" horiz-adv-x="574" 
d="M26 0l88 504h76l-10 -88v0q32 47 81.5 73.5t106.5 26.5q61 0 99.5 -26.5t52.5 -74.5t2 -114l-53 -301h-84l51 292q13 73 -12 112.5t-88 39.5q-41 0 -77.5 -20t-62.5 -57t-38 -91l-48 -276h-84z" />
    <glyph glyph-name="o" unicode="o" horiz-adv-x="596" 
d="M255 -12q-65 0 -113.5 29.5t-73.5 82t-22 119.5q3 64 26.5 118.5t64 94t93 62t111.5 22.5q65 0 113.5 -29t74 -80t21.5 -120q-3 -64 -26.5 -119t-63.5 -95t-92 -62.5t-113 -22.5zM266 60q54 0 97.5 28t70.5 78.5t30 116.5q3 52 -14.5 87.5t-49 54.5t-70.5 19
q-53 0 -96 -28.5t-70 -78.5t-30 -116q-3 -51 14 -87t48.5 -55t69.5 -19z" />
    <glyph glyph-name="p" unicode="p" horiz-adv-x="622" 
d="M-14 -220l128 724h78l-8 -82v0q21 26 48 47t62.5 34t80.5 13q66 0 112 -30t69 -81.5t20 -117.5q-3 -64 -25.5 -118.5t-61.5 -94.5t-90 -63t-110 -23q-40 0 -73.5 13.5t-56.5 35t-34 47.5l-55 -304h-84zM293 61q55 0 98 28t69 77t29 112q3 49 -13.5 86t-47.5 58t-75 21
q-55 0 -99 -29t-71 -78.5t-29 -112.5q-3 -49 13.5 -85.5t48.5 -56.5t77 -20z" />
    <glyph glyph-name="q" unicode="q" horiz-adv-x="623" 
d="M386 -220l52 302q-30 -39 -77.5 -66.5t-113.5 -27.5t-112 31t-68.5 84t-19.5 118q3 64 25.5 118t61 93.5t89 61.5t107.5 22q45 0 78 -12.5t55.5 -34t34.5 -48.5v0l23 83h76l-127 -724h-84zM271 61q55 0 98.5 29.5t70 80t28.5 113.5q3 49 -12.5 84t-47 55t-76.5 20
q-54 0 -98 -27.5t-70.5 -76.5t-29.5 -112q-3 -48 13 -86t48 -59t76 -21z" />
    <glyph glyph-name="r" unicode="r" horiz-adv-x="371" 
d="M26 0l88 504h77l-10 -90v0q23 32 54 54.5t71 35t86 12.5l-15 -88h-30q-33 0 -63.5 -8t-56 -26t-43.5 -47.5t-26 -73.5l-48 -273h-84z" />
    <glyph glyph-name="s" unicode="s" horiz-adv-x="505" 
d="M216 -12q-64 0 -108 21.5t-64.5 61t-16.5 92.5h85q-1 -28 10 -51.5t37 -38t69 -14.5q36 0 62 11t41 30.5t16 46.5q1 25 -11.5 39.5t-37.5 23.5t-60 15q-31 6 -59.5 16t-50.5 25.5t-34 39t-10 55.5q2 44 28.5 79t72 55.5t103.5 20.5q81 0 127.5 -39.5t42.5 -112.5h-84
q2 38 -23 59.5t-73 21.5q-47 0 -76.5 -21t-30.5 -52q-1 -21 11 -35.5t36 -24t59 -16.5q34 -7 63 -17t51 -25.5t33.5 -39t9.5 -57.5q-2 -52 -30.5 -90t-77 -58.5t-110.5 -20.5z" />
    <glyph glyph-name="t" unicode="t" horiz-adv-x="386" 
d="M222 0q-51 0 -82 16t-41.5 50t-1.5 88l50 279h-81l13 71h81l32 122h74l-22 -122h147l-13 -71h-147l-50 -279q-8 -47 9 -64.5t60 -17.5h64l-13 -72h-79z" />
    <glyph glyph-name="u" unicode="u" horiz-adv-x="575" 
d="M208 -12q-63 0 -101.5 27.5t-52 76.5t-1.5 113l53 299h84l-52 -293q-13 -72 10 -111.5t88 -39.5q42 0 79 19.5t64 57t38 91.5l48 276h84l-88 -504h-76l10 89v0q-31 -48 -80.5 -74.5t-106.5 -26.5z" />
    <glyph glyph-name="v" unicode="v" horiz-adv-x="540" 
d="M177 0l-108 504h87l84 -424v0l233 424h88l-286 -504h-98z" />
    <glyph glyph-name="w" unicode="w" horiz-adv-x="763" 
d="M129 0l-60 504h85l39 -425h-16l202 425h95l51 -424l-16 -1l190 425h84l-236 -504h-86l-53 444h16l-210 -444h-85z" />
    <glyph glyph-name="x" unicode="x" horiz-adv-x="496" 
d="M-24 0l217 254l-126 250h88l102 -206v0l173 206h90l-216 -254l125 -250h-87l-102 207v0l-173 -207h-91z" />
    <glyph glyph-name="y" unicode="y" horiz-adv-x="557" 
d="M43 -220l168 270h-28l-118 454h87l99 -392v0l242 392h88l-451 -724h-87z" />
    <glyph glyph-name="z" unicode="z" horiz-adv-x="464" 
d="M-9 0l13 69l350 365h-273l12 70h371l-13 -69l-351 -365h284l-13 -70h-380z" />
    <glyph glyph-name="braceleft" unicode="{" horiz-adv-x="428" 
d="M250 -152q-62 0 -96.5 31t-31.5 92q2 42 16 80l28 76t15 75q2 22 -6 41t-27.5 32.5t-55.5 20.5l12 68q45 8 74 27t42.5 54t15.5 88q1 17 1 29.5t-0.5 24.5t0.5 26q3 65 25.5 109t63 66.5t93.5 22.5h55l-13 -72h-40q-25 0 -48 -9t-37.5 -35t-17.5 -77q-1 -15 -1 -29v-29.5
t-2 -35.5q-2 -60 -20 -99.5t-49 -62t-72 -31.5v-2q50 -11 71 -42.5t18 -74.5q-1 -44 -14.5 -83.5t-27.5 -75t-15 -66.5q-2 -38 18.5 -52.5t52.5 -14.5h40l-13 -72h-54z" />
    <glyph glyph-name="bar" unicode="|" horiz-adv-x="235" 
d="M13 -100l145 820h84l-145 -820h-84z" />
    <glyph glyph-name="braceright" unicode="}" horiz-adv-x="428" 
d="M205 811q62 0 96.5 -30.5t31.5 -92.5q-2 -41 -15.5 -79.5t-28 -76t-15.5 -75.5q-2 -22 6 -41t27.5 -32.5t55.5 -20.5l-12 -68q-45 -7 -74 -26.5t-42.5 -54t-15.5 -88.5q-1 -15 -0.5 -28.5t0.5 -25.5t-1 -26q-3 -65 -25.5 -109t-62.5 -66.5t-94 -22.5h-55l13 72h40
q25 0 48 9.5t38 35.5t17 76q2 15 1.5 29t-0.5 30t2 35q2 61 20 100.5t49 62t72 30.5v2q-50 12 -71 43t-18 74q1 44 15 84t27.5 75.5t14.5 65.5q2 39 -18.5 53t-52.5 14h-40l13 72h54z" />
    <glyph glyph-name="asciitilde" unicode="~" horiz-adv-x="550" 
d="M356 249q-28 0 -48.5 10t-36.5 23.5t-33 23.5t-39 10q-26 0 -47 -18.5t-31 -47.5h-64q16 48 40.5 79.5t54.5 47t65 15.5q29 0 49.5 -10.5t37 -23.5t33 -23t38.5 -10q27 0 47.5 18t30.5 48h64q-16 -48 -40 -79.5t-55 -47t-66 -15.5z" />
    <glyph glyph-name="uni00A0" unicode="&#xa0;" horiz-adv-x="282" 
 />
    <glyph glyph-name="exclamdown" unicode="&#xa1;" horiz-adv-x="252" 
d="M181 317l-80 -506h-91l100 506h71zM162 516q25 0 41.5 -16.5t16.5 -40.5t-16.5 -40.5t-41.5 -16.5t-41 16.5t-16 40.5t16 40.5t41 16.5z" />
    <glyph glyph-name="cent" unicode="&#xa2;" horiz-adv-x="574" 
d="M192 -102l25 144h82l-26 -144h-81zM291 463l26 145h81l-26 -145h-81zM252 -12q-64 0 -112 28.5t-72.5 79.5t-21.5 119q3 66 27 121t65 95t93.5 62.5t112.5 22.5q90 0 142.5 -47.5t54.5 -127.5h-86q-1 51 -36.5 77t-86.5 26q-53 0 -97 -28t-71.5 -77.5t-30.5 -116.5
q-2 -39 7 -69.5t27 -51t42.5 -31.5t54.5 -11q35 0 66.5 12t56 35t37.5 57h86q-19 -51 -57 -90.5t-89.5 -62t-111.5 -22.5z" />
    <glyph glyph-name="sterling" unicode="&#xa3;" horiz-adv-x="601" 
d="M47 0l9 50q34 33 59.5 65.5t40 69.5t16.5 83q2 25 -2 48.5t-8.5 47.5t-8 50t-1.5 55q3 72 35 127t88 85.5t126 30.5q49 0 85.5 -14t60.5 -41t34.5 -65t5.5 -85h-77q5 41 -7 71t-39.5 47t-70.5 17q-47 0 -83 -21t-56.5 -59t-23.5 -90q-1 -26 2.5 -51.5t8.5 -50.5
t8.5 -49.5t1.5 -49.5q-2 -61 -30.5 -111.5t-76.5 -90.5h365l-12 -69h-450zM56 310l11 59h367l-10 -59h-368z" />
    <glyph glyph-name="currency" unicode="&#xa4;" horiz-adv-x="533" 
d="M244 121q-46 0 -80 20.5t-51.5 56t-14.5 80.5q2 58 30.5 102t75 68.5t102.5 24.5q44 0 78 -19t52 -54t16 -80q-2 -57 -31 -102t-75.5 -71t-101.5 -26zM75 91l-31 40l97 83l34 -38zM401 91l-65 80l45 40l65 -80zM255 186q30 0 56.5 16t42.5 45.5t18 67.5q2 33 -9 53.5
t-29.5 30.5t-39.5 10q-31 0 -57 -16t-42 -45t-18 -69q-1 -31 9.5 -52t28.5 -31t40 -10zM171 385l-68 81l46 39l67 -82zM405 381l-28 41l96 83l33 -39z" />
    <glyph glyph-name="yen" unicode="&#xa5;" horiz-adv-x="602" 
d="M40 170l11 61h484l-11 -61h-484zM279 323l-212 1l10 60h203zM352 323l20 61h189l-10 -60zM215 0l47 266l-151 434h95l112 -354v0l238 354h94l-304 -434l-47 -266h-84z" />
    <glyph glyph-name="brokenbar" unicode="&#xa6;" horiz-adv-x="235" 
d="M99 387l59 333h84l-59 -333h-84zM13 -100l59 333h84l-59 -333h-84z" />
    <glyph glyph-name="section" unicode="&#xa7;" horiz-adv-x="588" 
d="M214 -232q-66 0 -113.5 25t-69 69t-12.5 100h87q-5 -29 5 -57t37.5 -46.5t73.5 -18.5q42 0 75.5 16t54 45.5t21.5 66.5q2 29 -11 47t-37.5 30.5t-57.5 24t-73 25.5q-43 16 -76.5 38.5t-51 56t-15.5 80.5q2 46 23.5 86t59.5 72q-8 15 -11 31.5t-2 35.5q2 63 34.5 112
t88 77t126.5 28q67 0 113.5 -25t69 -68.5t12.5 -100.5h-87q5 29 -5.5 57t-37.5 46.5t-73 18.5q-42 1 -76 -15.5t-54.5 -45.5t-21.5 -67q-2 -28 11.5 -47t38.5 -31.5t58.5 -23.5t71.5 -25q42 -15 75 -37.5t52 -55.5t16 -82q-2 -46 -23.5 -86.5t-59.5 -71.5q9 -18 12 -40
t-1 -47q-8 -57 -40.5 -101.5t-85 -70t-121.5 -25.5zM398 104q20 17 32 41.5t13 53.5q2 35 -13 56.5t-42 36t-61 26t-71 24.5q-21 8 -38.5 16.5t-31.5 17.5q-18 -15 -31 -39t-14 -56q-2 -26 7 -45t26 -32.5t41 -24t52.5 -20.5t59.5 -21q23 -8 39 -15.5t32 -18.5z" />
    <glyph glyph-name="dieresis" unicode="&#xa8;" horiz-adv-x="262" 
d="M117 576q-21 0 -35.5 14.5t-14.5 35.5q0 20 14.5 35t35.5 15t35.5 -15t14.5 -35q0 -21 -14.5 -35.5t-35.5 -14.5zM278 576q-22 0 -36 14.5t-14 35.5q0 20 14 35t36 15q20 0 34.5 -15t14.5 -35q0 -21 -14.5 -35.5t-34.5 -14.5z" />
    <glyph glyph-name="copyright" unicode="&#xa9;" horiz-adv-x="800" 
d="M356 -4q-90 0 -155.5 38t-101 103.5t-35.5 149.5q0 87 31.5 163t88.5 133t132.5 89t163.5 32q90 0 155.5 -37.5t100.5 -102.5t35 -149q0 -87 -31.5 -163t-88 -133.5t-132 -90t-163.5 -32.5zM376 119q-51 0 -92 21.5t-64.5 62t-23.5 97.5t19.5 108t55 90.5t83.5 62
t105 22.5q74 0 123 -39.5t54 -113.5h-76q-6 45 -36.5 68.5t-75.5 23.5q-54 0 -94 -31t-61.5 -80t-21.5 -105q0 -63 33 -95t83 -32q47 0 85 23.5t60 67.5h76q-20 -46 -56 -80t-81 -52.5t-95 -18.5zM362 32q81 0 149 29t117 81t76 121t27 149q0 75 -30 133t-87.5 91t-139.5 33
t-149.5 -29t-117 -80.5t-76.5 -120.5t-27 -149q0 -74 30.5 -132.5t88 -92t139.5 -33.5z" />
    <glyph glyph-name="ordfeminine" unicode="&#xaa;" horiz-adv-x="479" 
d="M235 349q-43 0 -74.5 19.5t-48 54t-14.5 79.5q3 58 30 105t71 75.5t99 28.5q51 0 81 -22.5t39 -58.5l20 75h60l-62 -350h-60l7 75v0q-21 -36 -59 -58.5t-89 -22.5zM261 402q39 0 70.5 20.5t50 54.5t20.5 75q3 51 -24.5 78.5t-71.5 27.5q-37 0 -68 -20t-50 -54t-21 -75
q-2 -51 25 -79t69 -28z" />
    <glyph glyph-name="guillemotleft" unicode="&#xab;" horiz-adv-x="452" 
d="M296 120l-66 175l128 175h83l-131 -175l69 -175h-83zM118 120l-66 175l128 175h83l-131 -175l69 -175h-83z" />
    <glyph glyph-name="logicalnot" unicode="&#xac;" horiz-adv-x="550" 
d="M472 223l25 142h-486l11 67h570l-37 -209h-83z" />
    <glyph glyph-name="registered" unicode="&#xae;" horiz-adv-x="504" 
d="M261 307q-58 0 -98.5 26t-58 72t-7.5 104q10 59 44 104.5t84 72t108 26.5q59 0 99 -26.5t58 -72t7 -104.5q-10 -58 -44 -104t-83.5 -72t-108.5 -26zM320 403l-45 99h52l47 -98zM268 343q49 0 89 21.5t67 59t35 85.5q13 73 -23 119.5t-110 46.5q-48 0 -88 -21.5
t-66.5 -58.5t-35.5 -86q-13 -73 23 -119.5t109 -46.5zM199 403l38 215h95q33 0 50 -17.5t12 -48.5q-5 -30 -28.5 -47.5t-55.5 -17.5h-49l-14 -84h-48zM268 526h43q13 0 22.5 6t11.5 19q2 12 -5 18t-20 6h-43z" />
    <glyph glyph-name="macron" unicode="&#xaf;" horiz-adv-x="349" 
d="M61 598l12 63h347l-10 -63h-349z" />
    <glyph glyph-name="degree" unicode="&#xb0;" horiz-adv-x="347" 
d="M230 444q-35 0 -65 16.5t-48 46.5t-18 70q0 42 18 72t48.5 46.5t65.5 16.5q36 0 66 -16.5t48 -46.5t18 -72q0 -40 -18 -70t-48.5 -46.5t-66.5 -16.5zM230 506q25 0 46 18t21 54t-20.5 54t-45.5 18q-24 0 -45.5 -18t-21.5 -54t21 -54t45 -18z" />
    <glyph glyph-name="plusminus" unicode="&#xb1;" horiz-adv-x="550" 
d="M9 89l11 64h474l-10 -64h-475zM231 214l62 353h75l-62 -353h-75zM56 355l12 71h475l-12 -71h-475z" />
    <glyph glyph-name="uni00B2" unicode="&#xb2;" horiz-adv-x="330" 
d="M52 352l9 48l128 92q33 23 57 48.5t30 59.5q5 29 -8 44t-36 15q-26 0 -44 -15.5t-27 -43.5h-67q11 46 50 78t101 32q38 0 62.5 -14.5t35 -38.5t5.5 -54q-7 -41 -37 -71.5t-83 -65.5l-92 -60h181l-10 -54h-255z" />
    <glyph glyph-name="uni00B3" unicode="&#xb3;" horiz-adv-x="329" 
d="M177 347q-60 0 -90 27.5t-25 79.5h66q0 -21 6.5 -33.5t20 -17.5t30.5 -5q30 0 50 14.5t24 39.5q5 27 -11.5 41.5t-46.5 14.5h-46l8 41h45q29 0 50 14t25 41q5 25 -9.5 39.5t-42.5 14.5q-29 0 -47 -12.5t-28 -34.5h-63q12 42 51.5 70.5t100.5 28.5q55 0 86.5 -29t23.5 -73
q-5 -31 -26 -51t-52 -28l-1 -2q28 -9 43.5 -29.5t9.5 -53.5q-7 -40 -48 -68.5t-104 -28.5z" />
    <glyph glyph-name="acute" unicode="&#xb4;" horiz-adv-x="209" 
d="M66 545l-4 61l213 127v0l5 -72z" />
    <glyph glyph-name="uni00B5" unicode="&#xb5;" horiz-adv-x="585" 
d="M-14 -220l127 716h84l-49 -281q-13 -74 11 -114.5t89 -40.5q42 0 79 20t63.5 58.5t36.5 93.5l47 264h84l-87 -496h-76l10 89v0q-32 -47 -82 -74t-107 -27q-32 0 -58 9t-45 25l-43 -242h-84z" />
    <glyph glyph-name="paragraph" unicode="&#xb6;" horiz-adv-x="592" 
d="M225 -100l70 395h-10q-71 0 -116.5 26t-67 67.5t-21.5 87.5q0 73 35 122.5t97.5 75.5t143.5 26h240l-141 -800h-74l130 734h-83l-129 -734h-74z" />
    <glyph glyph-name="periodcentered" unicode="&#xb7;" horiz-adv-x="200" 
d="M117 285q-25 0 -41.5 16.5t-16.5 40.5q0 25 16.5 41t41.5 16t41 -16t16 -41q0 -24 -16 -40.5t-41 -16.5z" />
    <glyph glyph-name="cedilla" unicode="&#xb8;" horiz-adv-x="229" 
d="M-90 -259l9 53h92q38 0 56.5 13t19.5 38q1 22 -13 32t-46 10h-50l21 120h57l-13 -70q36 1 62 -8.5t39.5 -28.5t12.5 -50q-1 -32 -19.5 -56.5t-49 -38.5t-68.5 -14h-110z" />
    <glyph glyph-name="uni00B9" unicode="&#xb9;" horiz-adv-x="204" 
d="M113 352l50 286l-70 -18l8 42l97 42h44l-62 -352h-67z" />
    <glyph glyph-name="ordmasculine" unicode="&#xba;" horiz-adv-x="459" 
d="M247 348q-49 0 -84 19t-52.5 54.5t-14.5 81.5q2 59 30.5 106.5t76 75t106.5 27.5q49 0 84 -18.5t53 -53.5t15 -82q-2 -59 -31 -106.5t-76.5 -75.5t-106.5 -28zM256 401q39 0 69 21t48 55.5t19 76.5q2 35 -9.5 58.5t-32.5 36t-49 12.5q-40 0 -70 -21.5t-47.5 -56.5
t-19.5 -75q-2 -35 9.5 -59t32.5 -36t50 -12z" />
    <glyph glyph-name="guillemotright" unicode="&#xbb;" horiz-adv-x="452" 
d="M172 470l66 -175l-128 -175h-83l131 175l-69 175h83zM350 470l66 -175l-128 -175h-83l131 175l-70 175h84z" />
    <glyph glyph-name="onequarter" unicode="&#xbc;" horiz-adv-x="775" 
d="M113 352l50 286l-70 -18l8 42l97 42h44l-62 -352h-67zM86 0l531 700h84l-531 -700h-84zM602 0l12 66h-172l9 50l205 232h74l-41 -228h46l-9 -54h-46l-12 -66h-66zM521 120h107l28 156v0z" />
    <glyph glyph-name="onehalf" unicode="&#xbd;" horiz-adv-x="854" 
d="M113 352l50 286l-70 -18l8 42l97 42h44l-62 -352h-67zM86 0l531 700h84l-531 -700h-84zM514 0l9 48l128 92q33 23 57 48.5t30 59.5q5 29 -8 44t-36 15q-26 0 -44 -15.5t-27 -43.5h-67q11 46 50 78t101 32q38 0 62.5 -14.5t35 -38.5t5.5 -54q-7 -41 -37 -71.5t-83 -65.5
l-92 -60h181l-10 -54h-255z" />
    <glyph glyph-name="threequarters" unicode="&#xbe;" horiz-adv-x="840" 
d="M177 347q-60 0 -90 27.5t-25 79.5h66q0 -21 6.5 -33.5t20 -17.5t30.5 -5q30 0 50 14.5t24 39.5q5 27 -11.5 41.5t-46.5 14.5h-46l8 41h45q29 0 50 14t25 41q5 25 -9.5 39.5t-42.5 14.5q-29 0 -47 -12.5t-28 -34.5h-63q12 42 51.5 70.5t100.5 28.5q55 0 86.5 -29t23.5 -73
q-5 -31 -26 -51t-52 -28l-1 -2q28 -9 43.5 -29.5t9.5 -53.5q-7 -40 -48 -68.5t-104 -28.5zM151 0l531 700h84l-531 -700h-84zM667 0l12 66h-172l9 50l205 232h74l-41 -228h46l-9 -54h-46l-12 -66h-66zM586 120h107l28 156v0z" />
    <glyph glyph-name="questiondown" unicode="&#xbf;" horiz-adv-x="525" 
d="M377 309l-24 -155h-29q-50 0 -93.5 -8t-76 -26.5t-51.5 -51.5t-21 -82q-2 -35 12 -61t42 -40.5t66 -14.5q43 0 77.5 16t57.5 45t30 68h79q-10 -60 -46.5 -105t-90.5 -70t-119 -25q-59 0 -103 22t-67 63t-20 96q3 77 40.5 128.5t100.5 77.5t143 26l21 97h72zM363 516
q25 0 41 -16.5t16 -40.5t-16 -40.5t-41 -16.5t-41 16.5t-16 40.5t16 40.5t41 16.5z" />
    <glyph glyph-name="Agrave" unicode="&#xc0;" horiz-adv-x="664" 
d="M-14 0l382 700h89l133 -700h-88l-108 600v0l-319 -600h-89zM119 180l35 67h348l12 -67h-395zM515 753l-183 116l24 72v0l179 -127z" />
    <glyph glyph-name="Aacute" unicode="&#xc1;" horiz-adv-x="664" 
d="M-14 0l382 700h89l133 -700h-88l-108 600v0l-319 -600h-89zM119 180l35 67h348l12 -67h-395zM330 753l-4 61l213 127v0l5 -72z" />
    <glyph glyph-name="Acircumflex" unicode="&#xc2;" horiz-adv-x="664" 
d="M-14 0l382 700h89l133 -700h-88l-108 600v0l-319 -600h-89zM119 180l35 67h348l12 -67h-395zM285 761l12 65l152 82l122 -82l-12 -65l-122 84z" />
    <glyph glyph-name="Atilde" unicode="&#xc3;" horiz-adv-x="664" 
d="M-14 0l382 700h89l133 -700h-88l-108 600v0l-319 -600h-89zM119 180l35 67h348l12 -67h-395zM272 769q16 50 46 75.5t67 25.5q27 0 42.5 -11.5t29 -23.5t35.5 -12q16 0 30 11.5t21 33.5h49q-15 -49 -45.5 -75t-68.5 -26q-27 0 -43 12t-29.5 23.5t-34.5 11.5
q-17 0 -29.5 -11t-20.5 -34h-49z" />
    <glyph glyph-name="Adieresis" unicode="&#xc4;" horiz-adv-x="664" 
d="M-14 0l382 700h89l133 -700h-88l-108 600v0l-319 -600h-89zM119 180l35 67h348l12 -67h-395zM354 775q-21 0 -35.5 14.5t-14.5 35.5q0 20 14.5 35t35.5 15t35.5 -15t14.5 -35q0 -21 -14.5 -35.5t-35.5 -14.5zM515 775q-22 0 -36 14.5t-14 35.5q0 20 14 35t36 15
q20 0 34.5 -15t14.5 -35q0 -21 -14.5 -35.5t-34.5 -14.5z" />
    <glyph glyph-name="Aring" unicode="&#xc5;" horiz-adv-x="664" 
d="M-14 0l382 700h89l133 -700h-88l-108 600v0l-319 -600h-89zM119 180l35 67h348l12 -67h-395zM442 770q-43 0 -74 27.5t-31 75.5t31 75.5t74 27.5q44 0 74.5 -27.5t30.5 -75.5t-30.5 -75.5t-74.5 -27.5zM442 813q24 0 40.5 16.5t16.5 43.5q0 28 -16.5 43.5t-40.5 15.5
q-23 0 -40 -15.5t-17 -43.5q0 -27 17 -43.5t40 -16.5z" />
    <glyph glyph-name="AE" unicode="&#xc6;" horiz-adv-x="912" 
d="M-14 0l523 700h425l-12 -67h-289l-44 -247h259l-11 -66h-259l-44 -253h288l-12 -67h-373l112 631v0l-471 -631h-92zM150 159l47 67h318l-12 -67h-353z" />
    <glyph glyph-name="Ccedilla" unicode="&#xc7;" horiz-adv-x="719" 
d="M335 -12q-91 0 -154 37.5t-94 105.5t-27 158t35.5 167.5t85.5 135t125 89t154 31.5q120 0 185.5 -57t68.5 -161h-94q-3 67 -45.5 105.5t-126.5 38.5q-62 0 -115.5 -25.5t-94 -72t-64 -109.5t-26.5 -137q-4 -73 19 -124.5t68.5 -79.5t111.5 -28q84 0 139.5 38t82.5 103h94
q-26 -67 -72.5 -115.5t-111 -74t-144.5 -25.5zM216 -259l9 53h92q38 0 56.5 13t19.5 38q1 22 -13 32t-46 10h-50l21 120h57l-13 -70q36 1 62 -8.5t39.5 -28.5t12.5 -50q-1 -32 -19.5 -56.5t-49 -38.5t-68.5 -14h-110z" />
    <glyph glyph-name="Egrave" unicode="&#xc8;" horiz-adv-x="545" 
d="M31 0l123 700h412l-12 -67h-328l-43 -247h298l-12 -66h-298l-44 -252h327l-12 -68h-411zM461 753l-183 116l24 72v0l179 -127z" />
    <glyph glyph-name="Eacute" unicode="&#xc9;" horiz-adv-x="545" 
d="M31 0l123 700h412l-12 -67h-328l-43 -247h298l-12 -66h-298l-44 -252h327l-12 -68h-411zM276 753l-4 61l213 127v0l5 -72z" />
    <glyph glyph-name="Ecircumflex" unicode="&#xca;" horiz-adv-x="545" 
d="M31 0l123 700h412l-12 -67h-328l-43 -247h298l-12 -66h-298l-44 -252h327l-12 -68h-411zM231 761l12 65l152 82l122 -82l-12 -65l-122 84z" />
    <glyph glyph-name="Edieresis" unicode="&#xcb;" horiz-adv-x="545" 
d="M31 0l123 700h412l-12 -67h-328l-43 -247h298l-12 -66h-298l-44 -252h327l-12 -68h-411zM300 775q-21 0 -35.5 14.5t-14.5 35.5q0 20 14.5 35t35.5 15t35.5 -15t14.5 -35q0 -21 -14.5 -35.5t-35.5 -14.5zM461 775q-22 0 -36 14.5t-14 35.5q0 20 14 35t36 15
q20 0 34.5 -15t14.5 -35q0 -21 -14.5 -35.5t-34.5 -14.5z" />
    <glyph glyph-name="Igrave" unicode="&#xcc;" horiz-adv-x="235" 
d="M31 0l123 700h84l-123 -700h-84zM300 753l-183 116l24 72v0l179 -127z" />
    <glyph glyph-name="Iacute" unicode="&#xcd;" horiz-adv-x="235" 
d="M31 0l123 700h84l-123 -700h-84zM115 753l-4 61l213 127v0l5 -72z" />
    <glyph glyph-name="Icircumflex" unicode="&#xce;" horiz-adv-x="235" 
d="M31 0l123 700h84l-123 -700h-84zM70 761l12 65l152 82l122 -82l-12 -65l-122 84z" />
    <glyph glyph-name="Idieresis" unicode="&#xcf;" horiz-adv-x="235" 
d="M31 0l123 700h84l-123 -700h-84zM139 775q-21 0 -35.5 14.5t-14.5 35.5q0 20 14.5 35t35.5 15t35.5 -15t14.5 -35q0 -21 -14.5 -35.5t-35.5 -14.5zM300 775q-22 0 -36 14.5t-14 35.5q0 20 14 35t36 15q20 0 34.5 -15t14.5 -35q0 -21 -14.5 -35.5t-34.5 -14.5z" />
    <glyph glyph-name="Eth" unicode="&#xd0;" horiz-adv-x="717" 
d="M19 311l13 76h373l-14 -76h-372zM56 0l123 700h206q110 0 178.5 -35.5t99.5 -102t27 -162.5q-4 -90 -34.5 -163.5t-86 -126.5t-133 -81.5t-174.5 -28.5h-206zM152 70h121q104 0 176 40t111 113.5t43 171.5q4 76 -18 128.5t-74 79.5t-140 27h-120z" />
    <glyph glyph-name="Ntilde" unicode="&#xd1;" horiz-adv-x="692" 
d="M31 0l123 700h84l274 -566v0l99 566h84l-123 -700h-84l-273 566v0l-100 -566h-84zM289 769q16 50 46 75.5t67 25.5q27 0 42.5 -11.5t29 -23.5t35.5 -12q16 0 30 11.5t21 33.5h49q-15 -49 -45.5 -75t-68.5 -26q-27 0 -43 12t-29.5 23.5t-34.5 11.5q-17 0 -29.5 -11
t-20.5 -34h-49z" />
    <glyph glyph-name="Ograve" unicode="&#xd2;" horiz-adv-x="781" 
d="M345 -12q-89 0 -154.5 40.5t-100 111.5t-29.5 162q4 87 37 161.5t89.5 130t129 87t154.5 31.5q90 0 155 -40t99.5 -110.5t29.5 -162.5q-4 -87 -37 -161.5t-89 -130.5t-128.5 -87.5t-155.5 -31.5zM357 62q63 0 118 25t97 70t67.5 106t28.5 133q4 75 -21 129t-73.5 83
t-114.5 29q-63 0 -118 -24.5t-97.5 -69.5t-67.5 -105.5t-28 -131.5q-4 -75 21 -130t74 -84.5t114 -29.5zM578 753l-183 116l24 72v0l179 -127z" />
    <glyph glyph-name="Oacute" unicode="&#xd3;" horiz-adv-x="781" 
d="M345 -12q-89 0 -154.5 40.5t-100 111.5t-29.5 162q4 87 37 161.5t89.5 130t129 87t154.5 31.5q90 0 155 -40t99.5 -110.5t29.5 -162.5q-4 -87 -37 -161.5t-89 -130.5t-128.5 -87.5t-155.5 -31.5zM357 62q63 0 118 25t97 70t67.5 106t28.5 133q4 75 -21 129t-73.5 83
t-114.5 29q-63 0 -118 -24.5t-97.5 -69.5t-67.5 -105.5t-28 -131.5q-4 -75 21 -130t74 -84.5t114 -29.5zM393 753l-4 61l213 127v0l5 -72z" />
    <glyph glyph-name="Ocircumflex" unicode="&#xd4;" horiz-adv-x="781" 
d="M345 -12q-89 0 -154.5 40.5t-100 111.5t-29.5 162q4 87 37 161.5t89.5 130t129 87t154.5 31.5q90 0 155 -40t99.5 -110.5t29.5 -162.5q-4 -87 -37 -161.5t-89 -130.5t-128.5 -87.5t-155.5 -31.5zM357 62q63 0 118 25t97 70t67.5 106t28.5 133q4 75 -21 129t-73.5 83
t-114.5 29q-63 0 -118 -24.5t-97.5 -69.5t-67.5 -105.5t-28 -131.5q-4 -75 21 -130t74 -84.5t114 -29.5zM347 761l12 65l152 82l122 -82l-12 -65l-122 84z" />
    <glyph glyph-name="Otilde" unicode="&#xd5;" horiz-adv-x="781" 
d="M345 -12q-89 0 -154.5 40.5t-100 111.5t-29.5 162q4 87 37 161.5t89.5 130t129 87t154.5 31.5q90 0 155 -40t99.5 -110.5t29.5 -162.5q-4 -87 -37 -161.5t-89 -130.5t-128.5 -87.5t-155.5 -31.5zM357 62q63 0 118 25t97 70t67.5 106t28.5 133q4 75 -21 129t-73.5 83
t-114.5 29q-63 0 -118 -24.5t-97.5 -69.5t-67.5 -105.5t-28 -131.5q-4 -75 21 -130t74 -84.5t114 -29.5zM334 769q16 50 46 75.5t67 25.5q27 0 42.5 -11.5t29 -23.5t35.5 -12q16 0 30 11.5t21 33.5h49q-15 -49 -45.5 -75t-68.5 -26q-27 0 -43 12t-29.5 23.5t-34.5 11.5
q-17 0 -29.5 -11t-20.5 -34h-49z" />
    <glyph glyph-name="Odieresis" unicode="&#xd6;" horiz-adv-x="781" 
d="M345 -12q-89 0 -154.5 40.5t-100 111.5t-29.5 162q4 87 37 161.5t89.5 130t129 87t154.5 31.5q90 0 155 -40t99.5 -110.5t29.5 -162.5q-4 -87 -37 -161.5t-89 -130.5t-128.5 -87.5t-155.5 -31.5zM357 62q63 0 118 25t97 70t67.5 106t28.5 133q4 75 -21 129t-73.5 83
t-114.5 29q-63 0 -118 -24.5t-97.5 -69.5t-67.5 -105.5t-28 -131.5q-4 -75 21 -130t74 -84.5t114 -29.5zM417 775q-21 0 -35.5 14.5t-14.5 35.5q0 20 14.5 35t35.5 15t35.5 -15t14.5 -35q0 -21 -14.5 -35.5t-35.5 -14.5zM578 775q-22 0 -36 14.5t-14 35.5q0 20 14 35t36 15
q20 0 34.5 -15t14.5 -35q0 -21 -14.5 -35.5t-34.5 -14.5z" />
    <glyph glyph-name="multiply" unicode="&#xd7;" horiz-adv-x="550" 
d="M115 106l-42 50l158 135l-105 129l58 48l107 -128l158 136l41 -50l-159 -136l107 -129l-59 -48l-106 128z" />
    <glyph glyph-name="Oslash" unicode="&#xd8;" horiz-adv-x="777" 
d="M-10 0l743 700h89l-742 -700h-90zM347 -12q-89 0 -154.5 40.5t-100 111.5t-29.5 162q3 87 36.5 161.5t89.5 130t129 87t155 31.5q89 0 154.5 -40t99.5 -110.5t30 -162.5q-4 -87 -37 -161.5t-89.5 -130.5t-128.5 -87.5t-155 -31.5zM359 62q63 0 118 25t97 70t67.5 106
t28.5 133q4 75 -21.5 129t-74 83t-114.5 29q-62 0 -117 -24.5t-97.5 -69.5t-67.5 -105.5t-28 -131.5q-4 -75 21 -130t73.5 -84.5t114.5 -29.5z" />
    <glyph glyph-name="Ugrave" unicode="&#xd9;" horiz-adv-x="656" 
d="M281 -12q-80 0 -132.5 31.5t-73.5 92.5t-6 146l79 442h84l-79 -442q-10 -62 2 -105.5t47 -66t93 -22.5q53 0 95.5 20t72 63t41.5 111l79 442h84l-78 -442q-16 -93 -61.5 -152.5t-109.5 -88.5t-137 -29zM519 753l-183 116l24 72v0l179 -127z" />
    <glyph glyph-name="Uacute" unicode="&#xda;" horiz-adv-x="656" 
d="M281 -12q-80 0 -132.5 31.5t-73.5 92.5t-6 146l79 442h84l-79 -442q-10 -62 2 -105.5t47 -66t93 -22.5q53 0 95.5 20t72 63t41.5 111l79 442h84l-78 -442q-16 -93 -61.5 -152.5t-109.5 -88.5t-137 -29zM334 753l-4 61l213 127v0l5 -72z" />
    <glyph glyph-name="Ucircumflex" unicode="&#xdb;" horiz-adv-x="656" 
d="M281 -12q-80 0 -132.5 31.5t-73.5 92.5t-6 146l79 442h84l-79 -442q-10 -62 2 -105.5t47 -66t93 -22.5q53 0 95.5 20t72 63t41.5 111l79 442h84l-78 -442q-16 -93 -61.5 -152.5t-109.5 -88.5t-137 -29zM289 761l12 65l152 82l122 -82l-12 -65l-122 84z" />
    <glyph glyph-name="Udieresis" unicode="&#xdc;" horiz-adv-x="656" 
d="M281 -12q-80 0 -132.5 31.5t-73.5 92.5t-6 146l79 442h84l-79 -442q-10 -62 2 -105.5t47 -66t93 -22.5q53 0 95.5 20t72 63t41.5 111l79 442h84l-78 -442q-16 -93 -61.5 -152.5t-109.5 -88.5t-137 -29zM358 775q-21 0 -35.5 14.5t-14.5 35.5q0 20 14.5 35t35.5 15
t35.5 -15t14.5 -35q0 -21 -14.5 -35.5t-35.5 -14.5zM519 775q-22 0 -36 14.5t-14 35.5q0 20 14 35t36 15q20 0 34.5 -15t14.5 -35q0 -21 -14.5 -35.5t-34.5 -14.5z" />
    <glyph glyph-name="Yacute" unicode="&#xdd;" horiz-adv-x="580" 
d="M204 0l47 266l-151 434h95l112 -354v0l238 354h94l-304 -434l-47 -266h-84zM297 753l-4 61l213 127v0l5 -72z" />
    <glyph glyph-name="Thorn" unicode="&#xde;" horiz-adv-x="583" 
d="M31 0l123 700h84l-25 -146h146q75 0 121 -23.5t67 -64t18 -91.5q-2 -68 -37 -119.5t-96.5 -80t-144.5 -28.5h-146l-26 -147h-84zM153 217h145q85 0 131.5 42t48.5 115q3 54 -28 82t-105 28h-144z" />
    <glyph glyph-name="germandbls" unicode="&#xdf;" horiz-adv-x="660" 
d="M391 -10q-85 0 -131.5 48.5t-39.5 130.5h84q-5 -52 20.5 -82.5t76.5 -30.5q52 0 84 27.5t34 74.5q1 21 -7 36.5t-27 28t-51 23.5q-68 25 -97.5 50.5t-27.5 67.5q1 32 19 54t44.5 38t52.5 32.5t44 37t19 50.5q2 40 -28.5 62.5t-88.5 22.5q-74 0 -115.5 -40.5t-54.5 -109.5
l-90 -511h-84l92 519q12 62 45.5 110t89 75.5t131.5 27.5q65 0 107.5 -19.5t63 -52t18.5 -73.5q-2 -40 -20 -66.5t-44 -45t-52 -32.5t-43.5 -28.5t-18.5 -35.5q-1 -13 7 -24t30 -22t62 -26q61 -22 86.5 -55t23.5 -85t-30 -92t-75.5 -62.5t-108.5 -22.5z" />
    <glyph glyph-name="agrave" unicode="&#xe0;" horiz-adv-x="552" 
d="M187 -12q-57 0 -92.5 19.5t-51.5 52t-14 69.5q2 54 33 93t86 60t126 21h133q8 48 -0.5 79.5t-33.5 47t-65 15.5q-48 0 -87 -24t-56 -71h-87q16 54 52.5 90.5t85.5 56t103 19.5q68 0 110.5 -25.5t58.5 -71t5 -107.5l-55 -312h-76l11 89v0q-14 -21 -32.5 -39.5t-41.5 -32.5
t-51 -21.5t-61 -7.5zM211 59q36 0 68 14.5t57.5 39.5t41 56t17.5 65v4h-125q-47 0 -81 -12.5t-51.5 -35t-19.5 -53.5q-1 -36 23 -57t70 -21zM418 545l-183 116l24 72v0l179 -127z" />
    <glyph glyph-name="aacute" unicode="&#xe1;" horiz-adv-x="552" 
d="M187 -12q-57 0 -92.5 19.5t-51.5 52t-14 69.5q2 54 33 93t86 60t126 21h133q8 48 -0.5 79.5t-33.5 47t-65 15.5q-48 0 -87 -24t-56 -71h-87q16 54 52.5 90.5t85.5 56t103 19.5q68 0 110.5 -25.5t58.5 -71t5 -107.5l-55 -312h-76l11 89v0q-14 -21 -32.5 -39.5t-41.5 -32.5
t-51 -21.5t-61 -7.5zM211 59q36 0 68 14.5t57.5 39.5t41 56t17.5 65v4h-125q-47 0 -81 -12.5t-51.5 -35t-19.5 -53.5q-1 -36 23 -57t70 -21zM231 545l-4 61l213 127v0l5 -72z" />
    <glyph glyph-name="acircumflex" unicode="&#xe2;" horiz-adv-x="552" 
d="M187 -12q-57 0 -92.5 19.5t-51.5 52t-14 69.5q2 54 33 93t86 60t126 21h133q8 48 -0.5 79.5t-33.5 47t-65 15.5q-48 0 -87 -24t-56 -71h-87q16 54 52.5 90.5t85.5 56t103 19.5q68 0 110.5 -25.5t58.5 -71t5 -107.5l-55 -312h-76l11 89v0q-14 -21 -32.5 -39.5t-41.5 -32.5
t-51 -21.5t-61 -7.5zM211 59q36 0 68 14.5t57.5 39.5t41 56t17.5 65v4h-125q-47 0 -81 -12.5t-51.5 -35t-19.5 -53.5q-1 -36 23 -57t70 -21zM186 559l12 65l152 82l122 -82l-12 -65l-122 84z" />
    <glyph glyph-name="atilde" unicode="&#xe3;" horiz-adv-x="552" 
d="M187 -12q-57 0 -92.5 19.5t-51.5 52t-14 69.5q2 54 33 93t86 60t126 21h133q8 48 -0.5 79.5t-33.5 47t-65 15.5q-48 0 -87 -24t-56 -71h-87q16 54 52.5 90.5t85.5 56t103 19.5q68 0 110.5 -25.5t58.5 -71t5 -107.5l-55 -312h-76l11 89v0q-14 -21 -32.5 -39.5t-41.5 -32.5
t-51 -21.5t-61 -7.5zM211 59q36 0 68 14.5t57.5 39.5t41 56t17.5 65v4h-125q-47 0 -81 -12.5t-51.5 -35t-19.5 -53.5q-1 -36 23 -57t70 -21zM173 565q16 50 46 75.5t67 25.5q27 0 42.5 -11.5t29 -23.5t35.5 -12q16 0 30 11.5t21 33.5h49q-15 -49 -45.5 -75t-68.5 -26
q-27 0 -43 12t-29.5 23.5t-34.5 11.5q-17 0 -29.5 -11t-20.5 -34h-49z" />
    <glyph glyph-name="adieresis" unicode="&#xe4;" horiz-adv-x="552" 
d="M187 -12q-57 0 -92.5 19.5t-51.5 52t-14 69.5q2 54 33 93t86 60t126 21h133q8 48 -0.5 79.5t-33.5 47t-65 15.5q-48 0 -87 -24t-56 -71h-87q16 54 52.5 90.5t85.5 56t103 19.5q68 0 110.5 -25.5t58.5 -71t5 -107.5l-55 -312h-76l11 89v0q-14 -21 -32.5 -39.5t-41.5 -32.5
t-51 -21.5t-61 -7.5zM211 59q36 0 68 14.5t57.5 39.5t41 56t17.5 65v4h-125q-47 0 -81 -12.5t-51.5 -35t-19.5 -53.5q-1 -36 23 -57t70 -21zM255 576q-21 0 -35.5 14.5t-14.5 35.5q0 20 14.5 35t35.5 15t35.5 -15t14.5 -35q0 -21 -14.5 -35.5t-35.5 -14.5zM416 576
q-22 0 -36 14.5t-14 35.5q0 20 14 35t36 15q20 0 34.5 -15t14.5 -35q0 -21 -14.5 -35.5t-34.5 -14.5z" />
    <glyph glyph-name="aring" unicode="&#xe5;" horiz-adv-x="552" 
d="M187 -12q-57 0 -92.5 19.5t-51.5 52t-14 69.5q2 54 33 93t86 60t126 21h133q8 48 -0.5 79.5t-33.5 47t-65 15.5q-48 0 -87 -24t-56 -71h-87q16 54 52.5 90.5t85.5 56t103 19.5q68 0 110.5 -25.5t58.5 -71t5 -107.5l-55 -312h-76l11 89v0q-14 -21 -32.5 -39.5t-41.5 -32.5
t-51 -21.5t-61 -7.5zM211 59q36 0 68 14.5t57.5 39.5t41 56t17.5 65v4h-125q-47 0 -81 -12.5t-51.5 -35t-19.5 -53.5q-1 -36 23 -57t70 -21zM343 566q-43 0 -74 27.5t-31 75.5t31 75.5t74 27.5q44 0 74.5 -27.5t30.5 -75.5t-30.5 -75.5t-74.5 -27.5zM343 609q24 0 40.5 16.5
t16.5 43.5q0 28 -16.5 43.5t-40.5 15.5q-23 0 -40 -15.5t-17 -43.5q0 -27 17 -43.5t40 -16.5z" />
    <glyph glyph-name="ae" unicode="&#xe6;" horiz-adv-x="926" 
d="M189 -12q-57 0 -93 19t-52.5 50.5t-14.5 68.5q2 55 33 94.5t84 61t122 21.5h145q8 46 0 77.5t-32 48t-66 16.5q-48 0 -87.5 -24t-56.5 -71h-86q15 54 52.5 90.5t87.5 56t102 19.5q44 0 76.5 -10.5t54.5 -30.5t32 -49q40 42 93 66t114 24q67 0 111 -28t65 -74.5t18 -102.5
q-1 -11 -3.5 -27.5t-5 -30.5t-3.5 -20h-393q-9 -49 5 -88.5t46.5 -62.5t77.5 -23q56 0 96.5 26.5t63.5 72.5h83q-21 -49 -58 -87t-87 -60.5t-111 -22.5q-68 0 -116.5 32.5t-69.5 87.5q-24 -33 -58.5 -60.5t-77.5 -43.5t-91 -16zM211 59q44 0 82.5 22t66 58.5t37.5 79.5l3 19
h-137q-44 0 -76.5 -12t-50 -34.5t-18.5 -54.5q-2 -23 8.5 -40.5t32 -27.5t52.5 -10zM498 298h310q7 47 -8 79.5t-45 50t-72 17.5q-40 0 -77.5 -16.5t-66 -49.5t-41.5 -81z" />
    <glyph glyph-name="ccedilla" unicode="&#xe7;" horiz-adv-x="574" 
d="M252 -12q-64 0 -112 28.5t-72.5 79.5t-21.5 119q3 66 27 121t65 95t93.5 62.5t112.5 22.5q90 0 142.5 -47.5t54.5 -127.5h-86q-1 51 -36.5 77t-86.5 26q-53 0 -97 -28t-71.5 -77.5t-30.5 -116.5q-2 -39 7 -69.5t27 -51t42.5 -31.5t54.5 -11q35 0 66.5 12t56 35t37.5 57
h86q-19 -51 -57 -90.5t-89.5 -62t-111.5 -22.5zM127 -259l9 53h92q38 0 56.5 13t19.5 38q1 22 -13 32t-46 10h-50l21 120h57l-13 -70q36 1 62 -8.5t39.5 -28.5t12.5 -50q-1 -32 -19.5 -56.5t-49 -38.5t-68.5 -14h-110z" />
    <glyph glyph-name="egrave" unicode="&#xe8;" horiz-adv-x="570" 
d="M246 -12q-63 0 -109.5 28t-70 79t-20.5 119q3 65 26 119.5t62.5 95.5t91.5 64t113 23q68 0 112.5 -28t65.5 -74.5t18 -102.5q0 -17 -3.5 -38.5t-8.5 -39.5h-412l11 65h330q7 47 -8 79.5t-45 50t-72 17.5t-82 -19.5t-69 -57t-39 -93.5l-5 -28q-10 -56 2.5 -99t45 -66
t79.5 -23q53 0 91.5 24t60.5 64h83q-20 -46 -56 -81.5t-84.5 -56.5t-107.5 -21zM440 545l-183 116l24 72v0l179 -127z" />
    <glyph glyph-name="eacute" unicode="&#xe9;" horiz-adv-x="570" 
d="M246 -12q-63 0 -109.5 28t-70 79t-20.5 119q3 65 26 119.5t62.5 95.5t91.5 64t113 23q68 0 112.5 -28t65.5 -74.5t18 -102.5q0 -17 -3.5 -38.5t-8.5 -39.5h-412l11 65h330q7 47 -8 79.5t-45 50t-72 17.5t-82 -19.5t-69 -57t-39 -93.5l-5 -28q-10 -56 2.5 -99t45 -66
t79.5 -23q53 0 91.5 24t60.5 64h83q-20 -46 -56 -81.5t-84.5 -56.5t-107.5 -21zM253 545l-4 61l213 127v0l5 -72z" />
    <glyph glyph-name="ecircumflex" unicode="&#xea;" horiz-adv-x="570" 
d="M246 -12q-63 0 -109.5 28t-70 79t-20.5 119q3 65 26 119.5t62.5 95.5t91.5 64t113 23q68 0 112.5 -28t65.5 -74.5t18 -102.5q0 -17 -3.5 -38.5t-8.5 -39.5h-412l11 65h330q7 47 -8 79.5t-45 50t-72 17.5t-82 -19.5t-69 -57t-39 -93.5l-5 -28q-10 -56 2.5 -99t45 -66
t79.5 -23q53 0 91.5 24t60.5 64h83q-20 -46 -56 -81.5t-84.5 -56.5t-107.5 -21zM208 559l12 65l152 82l122 -82l-12 -65l-122 84z" />
    <glyph glyph-name="edieresis" unicode="&#xeb;" horiz-adv-x="570" 
d="M246 -12q-63 0 -109.5 28t-70 79t-20.5 119q3 65 26 119.5t62.5 95.5t91.5 64t113 23q68 0 112.5 -28t65.5 -74.5t18 -102.5q0 -17 -3.5 -38.5t-8.5 -39.5h-412l11 65h330q7 47 -8 79.5t-45 50t-72 17.5t-82 -19.5t-69 -57t-39 -93.5l-5 -28q-10 -56 2.5 -99t45 -66
t79.5 -23q53 0 91.5 24t60.5 64h83q-20 -46 -56 -81.5t-84.5 -56.5t-107.5 -21zM277 576q-21 0 -35.5 14.5t-14.5 35.5q0 20 14.5 35t35.5 15t35.5 -15t14.5 -35q0 -21 -14.5 -35.5t-35.5 -14.5zM438 576q-22 0 -36 14.5t-14 35.5q0 20 14 35t36 15q20 0 34.5 -15t14.5 -35
q0 -21 -14.5 -35.5t-34.5 -14.5z" />
    <glyph glyph-name="igrave" unicode="&#xec;" horiz-adv-x="224" 
d="M26 0l88 504h84l-88 -504h-84zM260 545l-183 116l24 72v0l179 -127z" />
    <glyph glyph-name="iacute" unicode="&#xed;" horiz-adv-x="224" 
d="M26 0l88 504h84l-88 -504h-84zM73 545l-4 61l213 127v0l5 -72z" />
    <glyph glyph-name="icircumflex" unicode="&#xee;" horiz-adv-x="224" 
d="M26 0l88 504h84l-88 -504h-84zM28 559l12 65l152 82l122 -82l-12 -65l-122 84z" />
    <glyph glyph-name="idieresis" unicode="&#xef;" horiz-adv-x="224" 
d="M26 0l88 504h84l-88 -504h-84zM97 576q-21 0 -35.5 14.5t-14.5 35.5q0 20 14.5 35t35.5 15t35.5 -15t14.5 -35q0 -21 -14.5 -35.5t-35.5 -14.5zM258 576q-22 0 -36 14.5t-14 35.5q0 20 14 35t36 15q20 0 34.5 -15t14.5 -35q0 -21 -14.5 -35.5t-34.5 -14.5z" />
    <glyph glyph-name="eth" unicode="&#xf0;" horiz-adv-x="615" 
d="M267 -12q-71 0 -122 32t-76 86t-22 120q3 61 27 113t64.5 91t93 60.5t112.5 21.5q46 0 87.5 -15.5t66.5 -54.5q-7 35 -19.5 68.5t-30.5 65.5t-43 63t-57 61h84q43 -41 71 -86.5t44.5 -93t22.5 -94.5t5 -91q-3 -87 -30 -152t-70 -108t-97 -65t-111 -22zM277 59q40 0 76 17
t64 47t45.5 69.5t19.5 85.5q3 54 -15.5 90t-52.5 54.5t-77 18.5q-54 0 -99.5 -28t-73 -75t-30.5 -107q-3 -53 14 -91.5t51 -59.5t78 -21zM291 551l11 57l305 100l-11 -57z" />
    <glyph glyph-name="ntilde" unicode="&#xf1;" horiz-adv-x="574" 
d="M26 0l88 504h76l-10 -88v0q32 47 81.5 73.5t106.5 26.5q61 0 99.5 -26.5t52.5 -74.5t2 -114l-53 -301h-84l51 292q13 73 -12 112.5t-88 39.5q-41 0 -77.5 -20t-62.5 -57t-38 -91l-48 -276h-84zM192 565q16 50 46 75.5t67 25.5q27 0 42.5 -11.5t29 -23.5t35.5 -12
q16 0 30 11.5t21 33.5h49q-15 -49 -45.5 -75t-68.5 -26q-27 0 -43 12t-29.5 23.5t-34.5 11.5q-17 0 -29.5 -11t-20.5 -34h-49z" />
    <glyph glyph-name="ograve" unicode="&#xf2;" horiz-adv-x="596" 
d="M255 -12q-65 0 -113.5 29.5t-73.5 82t-22 119.5q3 64 26.5 118.5t64 94t93 62t111.5 22.5q65 0 113.5 -29t74 -80t21.5 -120q-3 -64 -26.5 -119t-63.5 -95t-92 -62.5t-113 -22.5zM266 60q54 0 97.5 28t70.5 78.5t30 116.5q3 52 -14.5 87.5t-49 54.5t-70.5 19
q-53 0 -96 -28.5t-70 -78.5t-30 -116q-3 -51 14 -87t48.5 -55t69.5 -19zM445 545l-183 116l24 72v0l179 -127z" />
    <glyph glyph-name="oacute" unicode="&#xf3;" horiz-adv-x="596" 
d="M255 -12q-65 0 -113.5 29.5t-73.5 82t-22 119.5q3 64 26.5 118.5t64 94t93 62t111.5 22.5q65 0 113.5 -29t74 -80t21.5 -120q-3 -64 -26.5 -119t-63.5 -95t-92 -62.5t-113 -22.5zM266 60q54 0 97.5 28t70.5 78.5t30 116.5q3 52 -14.5 87.5t-49 54.5t-70.5 19
q-53 0 -96 -28.5t-70 -78.5t-30 -116q-3 -51 14 -87t48.5 -55t69.5 -19zM258 545l-4 61l213 127v0l5 -72z" />
    <glyph glyph-name="ocircumflex" unicode="&#xf4;" horiz-adv-x="596" 
d="M255 -12q-65 0 -113.5 29.5t-73.5 82t-22 119.5q3 64 26.5 118.5t64 94t93 62t111.5 22.5q65 0 113.5 -29t74 -80t21.5 -120q-3 -64 -26.5 -119t-63.5 -95t-92 -62.5t-113 -22.5zM266 60q54 0 97.5 28t70.5 78.5t30 116.5q3 52 -14.5 87.5t-49 54.5t-70.5 19
q-53 0 -96 -28.5t-70 -78.5t-30 -116q-3 -51 14 -87t48.5 -55t69.5 -19zM213 559l12 65l152 82l122 -82l-12 -65l-122 84z" />
    <glyph glyph-name="otilde" unicode="&#xf5;" horiz-adv-x="596" 
d="M255 -12q-65 0 -113.5 29.5t-73.5 82t-22 119.5q3 64 26.5 118.5t64 94t93 62t111.5 22.5q65 0 113.5 -29t74 -80t21.5 -120q-3 -64 -26.5 -119t-63.5 -95t-92 -62.5t-113 -22.5zM266 60q54 0 97.5 28t70.5 78.5t30 116.5q3 52 -14.5 87.5t-49 54.5t-70.5 19
q-53 0 -96 -28.5t-70 -78.5t-30 -116q-3 -51 14 -87t48.5 -55t69.5 -19zM200 565q16 50 46 75.5t67 25.5q27 0 42.5 -11.5t29 -23.5t35.5 -12q16 0 30 11.5t21 33.5h49q-15 -49 -45.5 -75t-68.5 -26q-27 0 -43 12t-29.5 23.5t-34.5 11.5q-17 0 -29.5 -11t-20.5 -34h-49z" />
    <glyph glyph-name="odieresis" unicode="&#xf6;" horiz-adv-x="596" 
d="M255 -12q-65 0 -113.5 29.5t-73.5 82t-22 119.5q3 64 26.5 118.5t64 94t93 62t111.5 22.5q65 0 113.5 -29t74 -80t21.5 -120q-3 -64 -26.5 -119t-63.5 -95t-92 -62.5t-113 -22.5zM266 60q54 0 97.5 28t70.5 78.5t30 116.5q3 52 -14.5 87.5t-49 54.5t-70.5 19
q-53 0 -96 -28.5t-70 -78.5t-30 -116q-3 -51 14 -87t48.5 -55t69.5 -19zM282 576q-21 0 -35.5 14.5t-14.5 35.5q0 20 14.5 35t35.5 15t35.5 -15t14.5 -35q0 -21 -14.5 -35.5t-35.5 -14.5zM443 576q-22 0 -36 14.5t-14 35.5q0 20 14 35t36 15q20 0 34.5 -15t14.5 -35
q0 -21 -14.5 -35.5t-34.5 -14.5z" />
    <glyph glyph-name="divide" unicode="&#xf7;" horiz-adv-x="550" 
d="M77 255l12 71h398l-12 -71h-398zM258 91q-25 0 -41 16.5t-16 40.5t16 40.5t41 16.5t41 -16.5t16 -40.5t-16 -40.5t-41 -16.5zM309 378q-25 0 -41.5 16.5t-16.5 40.5t16 40.5t42 16.5q25 0 41 -16.5t16 -40.5t-16 -40.5t-41 -16.5z" />
    <glyph glyph-name="oslash" unicode="&#xf8;" horiz-adv-x="597" 
d="M-4 0l526 504h79l-525 -504h-80zM259 -12q-65 0 -113.5 29.5t-73.5 82t-22 119.5q3 64 26.5 118.5t64 94t93 62t111.5 22.5q65 0 113.5 -29t74 -80t21.5 -120q-3 -64 -26.5 -119t-63.5 -95t-92 -62.5t-113 -22.5zM270 60q54 0 97.5 28t70.5 78.5t30 116.5
q3 52 -14.5 87.5t-49 54.5t-70.5 19q-53 0 -96 -28.5t-70 -78.5t-30 -116q-3 -51 14 -87t48.5 -55t69.5 -19z" />
    <glyph glyph-name="ugrave" unicode="&#xf9;" horiz-adv-x="575" 
d="M208 -12q-63 0 -101.5 27.5t-52 76.5t-1.5 113l53 299h84l-52 -293q-13 -72 10 -111.5t88 -39.5q42 0 79 19.5t64 57t38 91.5l48 276h84l-88 -504h-76l10 89v0q-31 -48 -80.5 -74.5t-106.5 -26.5zM438 545l-183 116l24 72v0l179 -127z" />
    <glyph glyph-name="uacute" unicode="&#xfa;" horiz-adv-x="575" 
d="M208 -12q-63 0 -101.5 27.5t-52 76.5t-1.5 113l53 299h84l-52 -293q-13 -72 10 -111.5t88 -39.5q42 0 79 19.5t64 57t38 91.5l48 276h84l-88 -504h-76l10 89v0q-31 -48 -80.5 -74.5t-106.5 -26.5zM250 545l-4 61l213 127v0l5 -72z" />
    <glyph glyph-name="ucircumflex" unicode="&#xfb;" horiz-adv-x="575" 
d="M208 -12q-63 0 -101.5 27.5t-52 76.5t-1.5 113l53 299h84l-52 -293q-13 -72 10 -111.5t88 -39.5q42 0 79 19.5t64 57t38 91.5l48 276h84l-88 -504h-76l10 89v0q-31 -48 -80.5 -74.5t-106.5 -26.5zM205 559l12 65l152 82l122 -82l-12 -65l-122 84z" />
    <glyph glyph-name="udieresis" unicode="&#xfc;" horiz-adv-x="575" 
d="M208 -12q-63 0 -101.5 27.5t-52 76.5t-1.5 113l53 299h84l-52 -293q-13 -72 10 -111.5t88 -39.5q42 0 79 19.5t64 57t38 91.5l48 276h84l-88 -504h-76l10 89v0q-31 -48 -80.5 -74.5t-106.5 -26.5zM274 576q-21 0 -35.5 14.5t-14.5 35.5q0 20 14.5 35t35.5 15t35.5 -15
t14.5 -35q0 -21 -14.5 -35.5t-35.5 -14.5zM435 576q-22 0 -36 14.5t-14 35.5q0 20 14 35t36 15q20 0 34.5 -15t14.5 -35q0 -21 -14.5 -35.5t-34.5 -14.5z" />
    <glyph glyph-name="yacute" unicode="&#xfd;" horiz-adv-x="557" 
d="M43 -220l168 270h-28l-118 454h87l99 -392v0l242 392h88l-451 -724h-87zM241 545l-4 61l213 127v0l5 -72z" />
    <glyph glyph-name="thorn" unicode="&#xfe;" horiz-adv-x="622" 
d="M-14 -220l166 940h84l-51 -295q20 25 47 45t62.5 33t80.5 13q66 0 112 -30t69 -81.5t20 -117.5q-3 -64 -25.5 -118.5t-61.5 -94.5t-90 -63t-110 -23q-40 0 -73.5 13.5t-56.5 35t-34 47.5l-55 -304h-84zM293 61q55 0 98 28t69 77t29 112q3 49 -13.5 86t-47.5 58t-75 21
q-55 0 -99 -29t-71 -78.5t-29 -112.5q-3 -49 13.5 -85.5t48.5 -56.5t77 -20z" />
    <glyph glyph-name="ydieresis" unicode="&#xff;" horiz-adv-x="557" 
d="M43 -220l168 270h-28l-118 454h87l99 -392v0l242 392h88l-451 -724h-87zM265 576q-21 0 -35.5 14.5t-14.5 35.5q0 20 14.5 35t35.5 15t35.5 -15t14.5 -35q0 -21 -14.5 -35.5t-35.5 -14.5zM426 576q-22 0 -36 14.5t-14 35.5q0 20 14 35t36 15q20 0 34.5 -15t14.5 -35
q0 -21 -14.5 -35.5t-34.5 -14.5z" />
    <glyph glyph-name="Amacron" unicode="&#x100;" horiz-adv-x="664" 
d="M-14 0l382 700h89l133 -700h-88l-108 600v0l-319 -600h-89zM119 180l35 67h348l12 -67h-395zM257 816l12 63h347l-10 -63h-349z" />
    <glyph glyph-name="amacron" unicode="&#x101;" horiz-adv-x="552" 
d="M187 -12q-57 0 -92.5 19.5t-51.5 52t-14 69.5q2 54 33 93t86 60t126 21h133q8 48 -0.5 79.5t-33.5 47t-65 15.5q-48 0 -87 -24t-56 -71h-87q16 54 52.5 90.5t85.5 56t103 19.5q68 0 110.5 -25.5t58.5 -71t5 -107.5l-55 -312h-76l11 89v0q-14 -21 -32.5 -39.5t-41.5 -32.5
t-51 -21.5t-61 -7.5zM211 59q36 0 68 14.5t57.5 39.5t41 56t17.5 65v4h-125q-47 0 -81 -12.5t-51.5 -35t-19.5 -53.5q-1 -36 23 -57t70 -21zM155 598l12 63h347l-10 -63h-349z" />
    <glyph glyph-name="Abreve" unicode="&#x102;" horiz-adv-x="664" 
d="M-14 0l382 700h89l133 -700h-88l-108 600v0l-319 -600h-89zM119 180l35 67h348l12 -67h-395zM423 770q-46 0 -73.5 17.5t-38 47t-4.5 65.5l2 14h50q-7 -37 10.5 -57.5t65.5 -20.5q47 0 72 20.5t32 57.5h51l-3 -15q-7 -36 -28.5 -65t-55 -46.5t-80.5 -17.5z" />
    <glyph glyph-name="abreve" unicode="&#x103;" horiz-adv-x="552" 
d="M187 -12q-57 0 -92.5 19.5t-51.5 52t-14 69.5q2 54 33 93t86 60t126 21h133q8 48 -0.5 79.5t-33.5 47t-65 15.5q-48 0 -87 -24t-56 -71h-87q16 54 52.5 90.5t85.5 56t103 19.5q68 0 110.5 -25.5t58.5 -71t5 -107.5l-55 -312h-76l11 89v0q-14 -21 -32.5 -39.5t-41.5 -32.5
t-51 -21.5t-61 -7.5zM211 59q36 0 68 14.5t57.5 39.5t41 56t17.5 65v4h-125q-47 0 -81 -12.5t-51.5 -35t-19.5 -53.5q-1 -36 23 -57t70 -21zM324 566q-46 0 -73.5 17.5t-38 47t-4.5 65.5l2 14h50q-7 -37 10.5 -57.5t65.5 -20.5q47 0 72 20.5t32 57.5h51l-3 -15
q-7 -36 -28.5 -65t-55 -46.5t-80.5 -17.5z" />
    <glyph glyph-name="Aogonek" unicode="&#x104;" horiz-adv-x="664" 
d="M-14 0l382 700h89l133 -700h-88l-108 600v0l-319 -600h-89zM119 180l35 67h348l12 -67h-395zM482 -203q-31 0 -56 9.5t-38 30.5t-7 55q4 24 19 46t44 43t75 39l57 23l14 -43l-63 -28q-38 -17 -55.5 -35t-21.5 -37q-4 -23 10.5 -36t41.5 -13q14 0 31.5 4t35.5 11l-9 -56
q-18 -6 -38 -9.5t-40 -3.5z" />
    <glyph glyph-name="aogonek" unicode="&#x105;" horiz-adv-x="552" 
d="M187 -12q-57 0 -92.5 19.5t-51.5 52t-14 69.5q2 54 33 93t86 60t126 21h133q8 48 -0.5 79.5t-33.5 47t-65 15.5q-48 0 -87 -24t-56 -71h-87q16 54 52.5 90.5t85.5 56t103 19.5q68 0 110.5 -25.5t58.5 -71t5 -107.5l-55 -312h-76l11 89v0q-14 -21 -32.5 -39.5t-41.5 -32.5
t-51 -21.5t-61 -7.5zM211 59q36 0 68 14.5t57.5 39.5t41 56t17.5 65v4h-125q-47 0 -81 -12.5t-51.5 -35t-19.5 -53.5q-1 -36 23 -57t70 -21zM331 -203q-31 0 -56 9.5t-38 30.5t-7 55q4 24 19 46t44 43t75 39l57 23l14 -43l-63 -28q-38 -17 -55.5 -35t-21.5 -37
q-4 -23 10.5 -36t41.5 -13q14 0 31.5 4t35.5 11l-9 -56q-18 -6 -38 -9.5t-40 -3.5z" />
    <glyph glyph-name="Cacute" unicode="&#x106;" horiz-adv-x="719" 
d="M335 -12q-91 0 -154 37.5t-94 105.5t-27 158t35.5 167.5t85.5 135t125 89t154 31.5q120 0 185.5 -57t68.5 -161h-94q-3 67 -45.5 105.5t-126.5 38.5q-62 0 -115.5 -25.5t-94 -72t-64 -109.5t-26.5 -137q-4 -73 19 -124.5t68.5 -79.5t111.5 -28q84 0 139.5 38t82.5 103h94
q-26 -67 -72.5 -115.5t-111 -74t-144.5 -25.5zM378 753l-4 61l213 127v0l5 -72z" />
    <glyph glyph-name="cacute" unicode="&#x107;" horiz-adv-x="574" 
d="M252 -12q-64 0 -112 28.5t-72.5 79.5t-21.5 119q3 66 27 121t65 95t93.5 62.5t112.5 22.5q90 0 142.5 -47.5t54.5 -127.5h-86q-1 51 -36.5 77t-86.5 26q-53 0 -97 -28t-71.5 -77.5t-30.5 -116.5q-2 -39 7 -69.5t27 -51t42.5 -31.5t54.5 -11q35 0 66.5 12t56 35t37.5 57
h86q-19 -51 -57 -90.5t-89.5 -62t-111.5 -22.5zM250 545l-4 61l213 127v0l5 -72z" />
    <glyph glyph-name="Cdotaccent" unicode="&#x10a;" horiz-adv-x="719" 
d="M335 -12q-91 0 -154 37.5t-94 105.5t-27 158t35.5 167.5t85.5 135t125 89t154 31.5q120 0 185.5 -57t68.5 -161h-94q-3 67 -45.5 105.5t-126.5 38.5q-62 0 -115.5 -25.5t-94 -72t-64 -109.5t-26.5 -137q-4 -73 19 -124.5t68.5 -79.5t111.5 -28q84 0 139.5 38t82.5 103h94
q-26 -67 -72.5 -115.5t-111 -74t-144.5 -25.5zM481 776q-20 0 -34.5 15t-14.5 35t14.5 35t34.5 15q21 0 35.5 -15t14.5 -35t-14.5 -35t-35.5 -15z" />
    <glyph glyph-name="cdotaccent" unicode="&#x10b;" horiz-adv-x="574" 
d="M252 -12q-64 0 -112 28.5t-72.5 79.5t-21.5 119q3 66 27 121t65 95t93.5 62.5t112.5 22.5q90 0 142.5 -47.5t54.5 -127.5h-86q-1 51 -36.5 77t-86.5 26q-53 0 -97 -28t-71.5 -77.5t-30.5 -116.5q-2 -39 7 -69.5t27 -51t42.5 -31.5t54.5 -11q35 0 66.5 12t56 35t37.5 57
h86q-19 -51 -57 -90.5t-89.5 -62t-111.5 -22.5zM352 570q-20 0 -34.5 15t-14.5 35t14.5 35t34.5 15q21 0 35.5 -15t14.5 -35t-14.5 -35t-35.5 -15z" />
    <glyph glyph-name="Ccaron" unicode="&#x10c;" horiz-adv-x="719" 
d="M335 -12q-91 0 -154 37.5t-94 105.5t-27 158t35.5 167.5t85.5 135t125 89t154 31.5q120 0 185.5 -57t68.5 -161h-94q-3 67 -45.5 105.5t-126.5 38.5q-62 0 -115.5 -25.5t-94 -72t-64 -109.5t-26.5 -137q-4 -73 19 -124.5t68.5 -79.5t111.5 -28q84 0 139.5 38t82.5 103h94
q-26 -67 -72.5 -115.5t-111 -74t-144.5 -25.5zM633 907l-12 -65l-151 -82l-123 82l12 65l122 -84z" />
    <glyph glyph-name="ccaron" unicode="&#x10d;" horiz-adv-x="574" 
d="M252 -12q-64 0 -112 28.5t-72.5 79.5t-21.5 119q3 66 27 121t65 95t93.5 62.5t112.5 22.5q90 0 142.5 -47.5t54.5 -127.5h-86q-1 51 -36.5 77t-86.5 26q-53 0 -97 -28t-71.5 -77.5t-30.5 -116.5q-2 -39 7 -69.5t27 -51t42.5 -31.5t54.5 -11q35 0 66.5 12t56 35t37.5 57
h86q-19 -51 -57 -90.5t-89.5 -62t-111.5 -22.5zM505 709l-12 -66l-151 -81l-123 81l12 66l122 -84z" />
    <glyph glyph-name="Dcaron" unicode="&#x10e;" horiz-adv-x="692" 
d="M31 0l123 700h207q110 0 178.5 -35.5t99.5 -102t26 -162.5q-4 -90 -34.5 -163.5t-86 -126.5t-132.5 -81.5t-175 -28.5h-206zM127 70h121q104 0 176 40t111 113.5t43 171.5q4 76 -18 128.5t-74 79.5t-140 27h-120zM563 907l-12 -65l-152 -82l-122 82l12 65l122 -84z" />
    <glyph glyph-name="dcaron" unicode="&#x10f;" horiz-adv-x="705" 
d="M247 -12q-66 0 -112 31t-68.5 84.5t-19.5 117.5q3 65 25.5 118.5t61 93t89 61.5t107.5 22q65 0 106.5 -26t61.5 -69l53 299h84l-127 -720h-77l7 83v0q-19 -25 -46 -46.5t-63 -35t-82 -13.5zM271 61q55 0 98.5 29.5t70 80t28.5 113.5q3 49 -12.5 84t-47 55t-76.5 20
q-54 0 -98 -27.5t-70.5 -76.5t-29.5 -112q-3 -48 13 -86t48 -59t76 -21zM650 555l7 40q26 0 38.5 9.5t16.5 28.5l3 21h-48l15 83h88q1 -26 0.5 -45t-4.5 -39q-9 -52 -39 -75t-77 -23z" />
    <glyph glyph-name="Dcroat" unicode="&#x110;" horiz-adv-x="717" 
d="M19 311l13 76h373l-14 -76h-372zM56 0l123 700h206q110 0 178.5 -35.5t99.5 -102t27 -162.5q-4 -90 -34.5 -163.5t-86 -126.5t-133 -81.5t-174.5 -28.5h-206zM152 70h121q104 0 176 40t111 113.5t43 171.5q4 76 -18 128.5t-74 79.5t-140 27h-120z" />
    <glyph glyph-name="dcroat" unicode="&#x111;" horiz-adv-x="670" 
d="M382 570l11 65h304l-11 -65h-304zM247 -12q-66 0 -112 31t-68.5 84.5t-19.5 117.5q3 65 25.5 118.5t61 93t89 61.5t107.5 22q65 0 106.5 -26t61.5 -69l53 299h84l-127 -720h-77l7 83v0q-19 -25 -46 -46.5t-63 -35t-82 -13.5zM271 61q55 0 98.5 29.5t70 80t28.5 113.5
q3 49 -12.5 84t-47 55t-76.5 20q-54 0 -98 -27.5t-70.5 -76.5t-29.5 -112q-3 -48 13 -86t48 -59t76 -21z" />
    <glyph glyph-name="Emacron" unicode="&#x112;" horiz-adv-x="545" 
d="M31 0l123 700h412l-12 -67h-328l-43 -247h298l-12 -66h-298l-44 -252h327l-12 -68h-411zM204 816l12 63h347l-10 -63h-349z" />
    <glyph glyph-name="emacron" unicode="&#x113;" horiz-adv-x="570" 
d="M246 -12q-63 0 -109.5 28t-70 79t-20.5 119q3 65 26 119.5t62.5 95.5t91.5 64t113 23q68 0 112.5 -28t65.5 -74.5t18 -102.5q0 -17 -3.5 -38.5t-8.5 -39.5h-412l11 65h330q7 47 -8 79.5t-45 50t-72 17.5t-82 -19.5t-69 -57t-39 -93.5l-5 -28q-10 -56 2.5 -99t45 -66
t79.5 -23q53 0 91.5 24t60.5 64h83q-20 -46 -56 -81.5t-84.5 -56.5t-107.5 -21zM177 598l12 63h347l-10 -63h-349z" />
    <glyph glyph-name="Ebreve" unicode="&#x114;" horiz-adv-x="545" 
d="M31 0l123 700h412l-12 -67h-328l-43 -247h298l-12 -66h-298l-44 -252h327l-12 -68h-411zM369 770q-46 0 -73.5 17.5t-38 47t-4.5 65.5l2 14h50q-7 -37 10.5 -57.5t65.5 -20.5q47 0 72 20.5t32 57.5h51l-3 -15q-7 -36 -28.5 -65t-55 -46.5t-80.5 -17.5z" />
    <glyph glyph-name="ebreve" unicode="&#x115;" horiz-adv-x="570" 
d="M246 -12q-63 0 -109.5 28t-70 79t-20.5 119q3 65 26 119.5t62.5 95.5t91.5 64t113 23q68 0 112.5 -28t65.5 -74.5t18 -102.5q0 -17 -3.5 -38.5t-8.5 -39.5h-412l11 65h330q7 47 -8 79.5t-45 50t-72 17.5t-82 -19.5t-69 -57t-39 -93.5l-5 -28q-10 -56 2.5 -99t45 -66
t79.5 -23q53 0 91.5 24t60.5 64h83q-20 -46 -56 -81.5t-84.5 -56.5t-107.5 -21zM345 566q-46 0 -73.5 17.5t-38 47t-4.5 65.5l2 14h50q-7 -37 10.5 -57.5t65.5 -20.5q47 0 72 20.5t32 57.5h51l-3 -15q-7 -36 -28.5 -65t-55 -46.5t-80.5 -17.5z" />
    <glyph glyph-name="Edotaccent" unicode="&#x116;" horiz-adv-x="545" 
d="M31 0l123 700h412l-12 -67h-328l-43 -247h298l-12 -66h-298l-44 -252h327l-12 -68h-411zM379 776q-20 0 -34.5 15t-14.5 35t14.5 35t34.5 15q21 0 35.5 -15t14.5 -35t-14.5 -35t-35.5 -15z" />
    <glyph glyph-name="edotaccent" unicode="&#x117;" horiz-adv-x="570" 
d="M246 -12q-63 0 -109.5 28t-70 79t-20.5 119q3 65 26 119.5t62.5 95.5t91.5 64t113 23q68 0 112.5 -28t65.5 -74.5t18 -102.5q0 -17 -3.5 -38.5t-8.5 -39.5h-412l11 65h330q7 47 -8 79.5t-45 50t-72 17.5t-82 -19.5t-69 -57t-39 -93.5l-5 -28q-10 -56 2.5 -99t45 -66
t79.5 -23q53 0 91.5 24t60.5 64h83q-20 -46 -56 -81.5t-84.5 -56.5t-107.5 -21zM355 570q-20 0 -34.5 15t-14.5 35t14.5 35t34.5 15q21 0 35.5 -15t14.5 -35t-14.5 -35t-35.5 -15z" />
    <glyph glyph-name="Eogonek" unicode="&#x118;" horiz-adv-x="545" 
d="M31 0l123 700h412l-12 -67h-328l-43 -247h298l-12 -66h-298l-44 -252h327l-12 -68h-411zM335 -203q-31 0 -56 9.5t-38 30.5t-7 55q4 24 19 46t44 43t75 39l57 23l14 -43l-63 -28q-38 -17 -55.5 -35t-21.5 -37q-4 -23 10.5 -36t41.5 -13q14 0 31.5 4t35.5 11l-9 -56
q-18 -6 -38 -9.5t-40 -3.5z" />
    <glyph glyph-name="eogonek" unicode="&#x119;" horiz-adv-x="570" 
d="M246 -12q-63 0 -109.5 28t-70 79t-20.5 119q3 65 26 119.5t62.5 95.5t91.5 64t113 23q68 0 112.5 -28t65.5 -74.5t18 -102.5q0 -17 -3.5 -38.5t-8.5 -39.5h-412l11 65h330q7 47 -8 79.5t-45 50t-72 17.5t-82 -19.5t-69 -57t-39 -93.5l-5 -28q-10 -56 2.5 -99t45 -66
t79.5 -23q53 0 91.5 24t60.5 64h83q-20 -46 -56 -81.5t-84.5 -56.5t-107.5 -21zM247 -191q-31 0 -56 9.5t-38 30.5t-7 55q4 24 19 46t44 43t75 39l57 23l14 -43l-63 -28q-38 -17 -55.5 -35t-21.5 -37q-4 -23 10.5 -36t41.5 -13q14 0 31.5 4t35.5 11l-9 -56q-18 -6 -38 -9.5
t-40 -3.5z" />
    <glyph glyph-name="Ecaron" unicode="&#x11a;" horiz-adv-x="545" 
d="M31 0l123 700h412l-12 -67h-328l-43 -247h298l-12 -66h-298l-44 -252h327l-12 -68h-411zM531 907l-12 -65l-151 -82l-123 82l12 65l122 -84z" />
    <glyph glyph-name="ecaron" unicode="&#x11b;" horiz-adv-x="570" 
d="M246 -12q-63 0 -109.5 28t-70 79t-20.5 119q3 65 26 119.5t62.5 95.5t91.5 64t113 23q68 0 112.5 -28t65.5 -74.5t18 -102.5q0 -17 -3.5 -38.5t-8.5 -39.5h-412l11 65h330q7 47 -8 79.5t-45 50t-72 17.5t-82 -19.5t-69 -57t-39 -93.5l-5 -28q-10 -56 2.5 -99t45 -66
t79.5 -23q53 0 91.5 24t60.5 64h83q-20 -46 -56 -81.5t-84.5 -56.5t-107.5 -21zM508 709l-12 -66l-151 -81l-123 81l12 66l122 -84z" />
    <glyph glyph-name="Gbreve" unicode="&#x11e;" horiz-adv-x="761" 
d="M332 -12q-89 0 -151 40t-93 109.5t-26 159.5q3 90 34 166t85.5 132t126.5 86.5t159 30.5q118 0 189.5 -56.5t75.5 -157.5h-97q-4 63 -49.5 100t-129.5 37q-88 0 -156 -42.5t-107.5 -117.5t-43.5 -175q-4 -72 19.5 -125.5t69.5 -82.5t110 -29q75 0 130 30t91.5 85
t55.5 130h-202l11 66h289l-66 -374h-77l13 115v0q-32 -41 -69.5 -69.5t-84 -43t-107.5 -14.5zM482 770q-46 0 -73.5 17.5t-38 47t-4.5 65.5l2 14h50q-7 -37 10.5 -57.5t65.5 -20.5q47 0 72 20.5t32 57.5h51l-3 -15q-7 -36 -28.5 -65t-55 -46.5t-80.5 -17.5z" />
    <glyph glyph-name="gbreve" unicode="&#x11f;" horiz-adv-x="553" 
d="M177 -232q-64 0 -111 17t-72.5 49.5t-22.5 79.5q1 33 15.5 62.5t43 55.5t71.5 47l52 -34q-49 -22 -72.5 -52.5t-25.5 -64.5q-1 -29 14.5 -49.5t46 -31t73.5 -10.5q68 0 111.5 30t45.5 80q2 32 -20.5 54t-90.5 26q-49 4 -85 10.5t-62 16t-44.5 22t-31.5 26.5l4 24l109 88
l66 -26l-114 -87l19 41q13 -10 25 -17.5t28.5 -13t41 -9.5t61.5 -7q71 -5 110.5 -24.5t54.5 -50t13 -66.5q-2 -52 -33.5 -94t-88 -67t-131.5 -25zM243 158q-57 0 -95.5 20t-57 55t-16.5 79q3 58 34 104t82.5 73t115.5 27q58 0 96 -20.5t56 -55t16 -78.5q-2 -58 -32.5 -104
t-82 -73t-116.5 -27zM255 227q60 0 98 35t41 93q2 45 -24 68t-76 23q-59 0 -97.5 -34.5t-40.5 -92.5q-3 -45 23.5 -68.5t75.5 -23.5zM374 433l-13 71h206l-11 -63zM341 566q-46 0 -73.5 17.5t-38 47t-4.5 65.5l2 14h50q-7 -37 10.5 -57.5t65.5 -20.5q47 0 72 20.5t32 57.5
h51l-3 -15q-7 -36 -28.5 -65t-55 -46.5t-80.5 -17.5z" />
    <glyph glyph-name="Gdotaccent" unicode="&#x120;" horiz-adv-x="761" 
d="M332 -12q-89 0 -151 40t-93 109.5t-26 159.5q3 90 34 166t85.5 132t126.5 86.5t159 30.5q118 0 189.5 -56.5t75.5 -157.5h-97q-4 63 -49.5 100t-129.5 37q-88 0 -156 -42.5t-107.5 -117.5t-43.5 -175q-4 -72 19.5 -125.5t69.5 -82.5t110 -29q75 0 130 30t91.5 85
t55.5 130h-202l11 66h289l-66 -374h-77l13 115v0q-32 -41 -69.5 -69.5t-84 -43t-107.5 -14.5zM492 776q-20 0 -34.5 15t-14.5 35t14.5 35t34.5 15q21 0 35.5 -15t14.5 -35t-14.5 -35t-35.5 -15z" />
    <glyph glyph-name="gdotaccent" unicode="&#x121;" horiz-adv-x="553" 
d="M177 -232q-64 0 -111 17t-72.5 49.5t-22.5 79.5q1 33 15.5 62.5t43 55.5t71.5 47l52 -34q-49 -22 -72.5 -52.5t-25.5 -64.5q-1 -29 14.5 -49.5t46 -31t73.5 -10.5q68 0 111.5 30t45.5 80q2 32 -20.5 54t-90.5 26q-49 4 -85 10.5t-62 16t-44.5 22t-31.5 26.5l4 24l109 88
l66 -26l-114 -87l19 41q13 -10 25 -17.5t28.5 -13t41 -9.5t61.5 -7q71 -5 110.5 -24.5t54.5 -50t13 -66.5q-2 -52 -33.5 -94t-88 -67t-131.5 -25zM243 158q-57 0 -95.5 20t-57 55t-16.5 79q3 58 34 104t82.5 73t115.5 27q58 0 96 -20.5t56 -55t16 -78.5q-2 -58 -32.5 -104
t-82 -73t-116.5 -27zM255 227q60 0 98 35t41 93q2 45 -24 68t-76 23q-59 0 -97.5 -34.5t-40.5 -92.5q-3 -45 23.5 -68.5t75.5 -23.5zM374 433l-13 71h206l-11 -63zM351 570q-20 0 -34.5 15t-14.5 35t14.5 35t34.5 15q21 0 35.5 -15t14.5 -35t-14.5 -35t-35.5 -15z" />
    <glyph glyph-name="uni0122" unicode="&#x122;" horiz-adv-x="761" 
d="M332 -12q-89 0 -151 40t-93 109.5t-26 159.5q3 90 34 166t85.5 132t126.5 86.5t159 30.5q118 0 189.5 -56.5t75.5 -157.5h-97q-4 63 -49.5 100t-129.5 37q-88 0 -156 -42.5t-107.5 -117.5t-43.5 -175q-4 -72 19.5 -125.5t69.5 -82.5t110 -29q75 0 130 30t91.5 85
t55.5 130h-202l11 66h289l-66 -374h-77l13 115v0q-32 -41 -69.5 -69.5t-84 -43t-107.5 -14.5zM258 -238l7 40q25 0 38.5 14.5t17.5 42.5l3 14h-45l14 77h86q1 -20 -0.5 -39t-3.5 -35q-11 -60 -41.5 -87t-75.5 -27z" />
    <glyph glyph-name="uni0123" unicode="&#x123;" horiz-adv-x="553" 
d="M177 -232q-64 0 -111 17t-72.5 49.5t-22.5 79.5q1 33 15.5 62.5t43 55.5t71.5 47l52 -34q-49 -22 -72.5 -52.5t-25.5 -64.5q-1 -29 14.5 -49.5t46 -31t73.5 -10.5q68 0 111.5 30t45.5 80q2 32 -20.5 54t-90.5 26q-49 4 -85 10.5t-62 16t-44.5 22t-31.5 26.5l4 24l109 88
l66 -26l-114 -87l19 41q13 -10 25 -17.5t28.5 -13t41 -9.5t61.5 -7q71 -5 110.5 -24.5t54.5 -50t13 -66.5q-2 -52 -33.5 -94t-88 -67t-131.5 -25zM243 158q-57 0 -95.5 20t-57 55t-16.5 79q3 58 34 104t82.5 73t115.5 27q58 0 96 -20.5t56 -55t16 -78.5q-2 -58 -32.5 -104
t-82 -73t-116.5 -27zM255 227q60 0 98 35t41 93q2 45 -24 68t-76 23q-59 0 -97.5 -34.5t-40.5 -92.5q-3 -45 23.5 -68.5t75.5 -23.5zM374 433l-13 71h206l-11 -63zM423 748l-7 -40q-25 0 -38 -9.5t-17 -28.5l-3 -21h48l-15 -83h-88q-1 26 -0.5 45.5t4.5 38.5q9 52 39 75
t77 23z" />
    <glyph glyph-name="Hbar" unicode="&#x126;" horiz-adv-x="750" 
d="M83 495l14 76h669l-14 -76h-669zM512 0l124 700h84l-124 -700h-84zM65 0l123 700h84l-123 -700h-84zM189 324l12 66h401l-12 -66h-401z" />
    <glyph glyph-name="hbar" unicode="&#x127;" horiz-adv-x="624" 
d="M96 570l12 65h304l-12 -65h-304zM74 0l126 720h84l-53 -301v0q33 45 82.5 71t103.5 26q59 0 98 -23.5t54 -71.5t2 -121l-52 -300h-84l51 291q13 76 -13 114.5t-87 38.5q-43 0 -80.5 -21t-63.5 -60t-37 -96l-47 -267h-84z" />
    <glyph glyph-name="Itilde" unicode="&#x128;" horiz-adv-x="235" 
d="M31 0l123 700h84l-123 -700h-84zM57 769q16 50 46 75.5t67 25.5q27 0 42.5 -11.5t29 -23.5t35.5 -12q16 0 30 11.5t21 33.5h49q-15 -49 -45.5 -75t-68.5 -26q-27 0 -43 12t-29.5 23.5t-34.5 11.5q-17 0 -29.5 -11t-20.5 -34h-49z" />
    <glyph glyph-name="itilde" unicode="&#x129;" horiz-adv-x="224" 
d="M26 0l88 504h84l-88 -504h-84zM15 565q16 50 46 75.5t67 25.5q27 0 42.5 -11.5t29 -23.5t35.5 -12q16 0 30 11.5t21 33.5h49q-15 -49 -45.5 -75t-68.5 -26q-27 0 -43 12t-29.5 23.5t-34.5 11.5q-17 0 -29.5 -11t-20.5 -34h-49z" />
    <glyph glyph-name="Imacron" unicode="&#x12a;" horiz-adv-x="235" 
d="M31 0l123 700h84l-123 -700h-84zM43 816l12 63h347l-10 -63h-349z" />
    <glyph glyph-name="imacron" unicode="&#x12b;" horiz-adv-x="224" 
d="M26 0l88 504h84l-88 -504h-84zM-3 598l12 63h347l-10 -63h-349z" />
    <glyph glyph-name="Ibreve" unicode="&#x12c;" horiz-adv-x="235" 
d="M31 0l123 700h84l-123 -700h-84zM208 770q-46 0 -73.5 17.5t-38 47t-4.5 65.5l2 14h50q-7 -37 10.5 -57.5t65.5 -20.5q47 0 72 20.5t32 57.5h51l-3 -15q-7 -36 -28.5 -65t-55 -46.5t-80.5 -17.5z" />
    <glyph glyph-name="ibreve" unicode="&#x12d;" horiz-adv-x="224" 
d="M26 0l88 504h84l-88 -504h-84zM166 566q-46 0 -73.5 17.5t-38 47t-4.5 65.5l2 14h50q-7 -37 10.5 -57.5t65.5 -20.5q47 0 72 20.5t32 57.5h51l-3 -15q-7 -36 -28.5 -65t-55 -46.5t-80.5 -17.5z" />
    <glyph glyph-name="Iogonek" unicode="&#x12e;" horiz-adv-x="235" 
d="M31 0l123 700h84l-123 -700h-84zM8 -203q-31 0 -56 9.5t-38 30.5t-7 55q4 24 19 46t44 43t75 39l57 23l14 -43l-63 -28q-38 -17 -55.5 -35t-21.5 -37q-4 -23 10.5 -36t41.5 -13q14 0 31.5 4t35.5 11l-9 -56q-18 -6 -38 -9.5t-40 -3.5z" />
    <glyph glyph-name="iogonek" unicode="&#x12f;" horiz-adv-x="224" 
d="M26 0l88 504h84l-88 -504h-84zM176 570q-20 0 -34.5 15t-14.5 35t14.5 35t34.5 15q21 0 35.5 -15t14.5 -35t-14.5 -35t-35.5 -15zM2 -203q-31 0 -56 9.5t-38 30.5t-7 55q4 24 19 46t44 43t75 39l57 23l14 -43l-63 -28q-38 -17 -55.5 -35t-21.5 -37q-4 -23 10.5 -36
t41.5 -13q14 0 31.5 4t35.5 11l-9 -56q-18 -6 -38 -9.5t-40 -3.5z" />
    <glyph glyph-name="Idotaccent" unicode="&#x130;" horiz-adv-x="235" 
d="M31 0l123 700h84l-123 -700h-84zM218 776q-20 0 -34.5 15t-14.5 35t14.5 35t34.5 15q21 0 35.5 -15t14.5 -35t-14.5 -35t-35.5 -15z" />
    <glyph glyph-name="dotlessi" unicode="&#x131;" horiz-adv-x="224" 
d="M26 0l88 504h84l-88 -504h-84z" />
    <glyph glyph-name="IJ" unicode="&#x132;" horiz-adv-x="685" 
d="M31 0l123 700h84l-123 -700h-84zM374 -12q-59 0 -99 24t-56.5 68.5t-5.5 106.5h85q-6 -35 0 -63t27.5 -44.5t61.5 -16.5q39 0 65 15.5t41 41.5t20 55l92 525h84l-92 -525q-15 -86 -75 -136.5t-148 -50.5z" />
    <glyph glyph-name="ij" unicode="&#x133;" horiz-adv-x="458" 
d="M35 0l88 504h84l-88 -504h-84zM194 611q-25 0 -41 16t-17 41q0 25 16.5 41t41.5 16q24 0 41 -15.5t17 -41.5q1 -25 -16.5 -41t-41.5 -16zM95 -220l13 72h39q37 0 55.5 15.5t25.5 52.5l104 584h84l-104 -586q-8 -48 -29.5 -78.5t-55.5 -45t-81 -14.5h-51zM404 611
q-25 0 -41.5 16.5t-16.5 40.5q0 26 16.5 41.5t41.5 15.5q24 0 40.5 -15.5t16.5 -41.5q0 -24 -16.5 -40.5t-40.5 -16.5z" />
    <glyph glyph-name="uni0136" unicode="&#x136;" horiz-adv-x="585" 
d="M31 0l123 700h84l-55 -317l347 317h106l-308 -279l189 -421h-96l-161 361l-97 -88l-48 -273h-84zM164 -238l7 40q25 0 38.5 14.5t17.5 42.5l3 14h-45l14 77h86q1 -20 -0.5 -39t-3.5 -35q-11 -60 -41.5 -87t-75.5 -27z" />
    <glyph glyph-name="uni0137" unicode="&#x137;" horiz-adv-x="512" 
d="M347 0l-201 277l257 227h109l-302 -257l9 63l231 -310h-103zM25 0l128 720h84l-128 -720h-84zM122 -238l7 40q25 0 38.5 14.5t17.5 42.5l3 14h-45l14 77h86q1 -20 -0.5 -39t-3.5 -35q-11 -60 -41.5 -87t-75.5 -27z" />
    <glyph glyph-name="Lacute" unicode="&#x139;" horiz-adv-x="528" 
d="M31 0l123 700h84l-111 -633h326l-12 -67h-410zM114 753l-4 61l213 127v0l5 -72z" />
    <glyph glyph-name="lacute" unicode="&#x13a;" horiz-adv-x="224" 
d="M25 0l128 720h84l-128 -720h-84zM112 762l-4 61l213 127v0l5 -72z" />
    <glyph glyph-name="uni013B" unicode="&#x13b;" horiz-adv-x="528" 
d="M31 0l123 700h84l-111 -633h326l-12 -67h-410zM134 -238l7 40q25 0 38.5 14.5t17.5 42.5l3 14h-45l14 77h86q1 -20 -0.5 -39t-3.5 -35q-11 -60 -41.5 -87t-75.5 -27z" />
    <glyph glyph-name="uni013C" unicode="&#x13c;" horiz-adv-x="224" 
d="M25 0l128 720h84l-128 -720h-84zM-22 -238l7 40q25 0 38.5 14.5t17.5 42.5l3 14h-45l14 77h86q1 -20 -0.5 -39t-3.5 -35q-11 -60 -41.5 -87t-75.5 -27z" />
    <glyph glyph-name="Lcaron" unicode="&#x13d;" horiz-adv-x="528" 
d="M31 0l123 700h84l-111 -633h326l-12 -67h-410zM277 543l7 40q26 0 38.5 9.5t16.5 28.5l3 21h-48l15 83h88q1 -26 0.5 -45t-4.5 -39q-9 -52 -39 -75t-77 -23z" />
    <glyph glyph-name="lcaron" unicode="&#x13e;" horiz-adv-x="307" 
d="M25 0l128 720h84l-128 -720h-84zM252 555l7 40q26 0 38.5 9.5t16.5 28.5l3 21h-48l15 83h88q1 -26 0.5 -45t-4.5 -39q-9 -52 -39 -75t-77 -23z" />
    <glyph glyph-name="Ldot" unicode="&#x13f;" horiz-adv-x="528" 
d="M31 0l123 700h84l-111 -633h326l-12 -67h-410zM378 292q-25 0 -41.5 16.5t-16.5 40.5q0 25 16.5 41t41.5 16t41 -16t16 -41q0 -24 -16 -40.5t-41 -16.5z" />
    <glyph glyph-name="ldot" unicode="&#x140;" horiz-adv-x="259" 
d="M25 0l128 720h84l-128 -720h-84zM262 303q-25 0 -41.5 16.5t-16.5 40.5q0 25 16.5 41t41.5 16t41 -16t16 -41q0 -24 -16 -40.5t-41 -16.5z" />
    <glyph glyph-name="Lslash" unicode="&#x141;" horiz-adv-x="558" 
d="M25 281l13 76l305 108l-13 -76zM61 0l123 700h84l-111 -633h326l-12 -67h-410z" />
    <glyph glyph-name="lslash" unicode="&#x142;" horiz-adv-x="249" 
d="M22 324l13 76l249 96l-14 -76zM38 0l128 720h84l-128 -720h-84z" />
    <glyph glyph-name="Nacute" unicode="&#x143;" horiz-adv-x="692" 
d="M31 0l123 700h84l274 -566v0l99 566h84l-123 -700h-84l-273 566v0l-100 -566h-84zM347 753l-4 61l213 127v0l5 -72z" />
    <glyph glyph-name="nacute" unicode="&#x144;" horiz-adv-x="574" 
d="M26 0l88 504h76l-10 -88v0q32 47 81.5 73.5t106.5 26.5q61 0 99.5 -26.5t52.5 -74.5t2 -114l-53 -301h-84l51 292q13 73 -12 112.5t-88 39.5q-41 0 -77.5 -20t-62.5 -57t-38 -91l-48 -276h-84zM250 545l-4 61l213 127v0l5 -72z" />
    <glyph glyph-name="uni0145" unicode="&#x145;" horiz-adv-x="692" 
d="M31 0l123 700h84l274 -566v0l99 566h84l-123 -700h-84l-273 566v0l-100 -566h-84zM217 -238l7 40q25 0 38.5 14.5t17.5 42.5l3 14h-45l14 77h86q1 -20 -0.5 -39t-3.5 -35q-11 -60 -41.5 -87t-75.5 -27z" />
    <glyph glyph-name="uni0146" unicode="&#x146;" horiz-adv-x="574" 
d="M26 0l88 504h76l-10 -88v0q32 47 81.5 73.5t106.5 26.5q61 0 99.5 -26.5t52.5 -74.5t2 -114l-53 -301h-84l51 292q13 73 -12 112.5t-88 39.5q-41 0 -77.5 -20t-62.5 -57t-38 -91l-48 -276h-84zM154 -238l7 40q25 0 38.5 14.5t17.5 42.5l3 14h-45l14 77h86q1 -20 -0.5 -39
t-3.5 -35q-11 -60 -41.5 -87t-75.5 -27z" />
    <glyph glyph-name="Ncaron" unicode="&#x147;" horiz-adv-x="692" 
d="M31 0l123 700h84l274 -566v0l99 566h84l-123 -700h-84l-273 566v0l-100 -566h-84zM602 907l-12 -65l-152 -82l-122 82l12 65l122 -84z" />
    <glyph glyph-name="ncaron" unicode="&#x148;" horiz-adv-x="574" 
d="M26 0l88 504h76l-10 -88v0q32 47 81.5 73.5t106.5 26.5q61 0 99.5 -26.5t52.5 -74.5t2 -114l-53 -301h-84l51 292q13 73 -12 112.5t-88 39.5q-41 0 -77.5 -20t-62.5 -57t-38 -91l-48 -276h-84zM505 709l-12 -66l-151 -81l-123 81l12 66l122 -84z" />
    <glyph glyph-name="Eng" unicode="&#x14a;" horiz-adv-x="691" 
d="M31 0l123 700h84l274 -561v0l99 561h84l-138 -782q-8 -48 -29.5 -78.5t-55.5 -45t-80 -14.5h-52l13 72h39q38 0 56.5 15.5t25.5 52.5l14 80l-274 561v0l-99 -561h-84z" />
    <glyph glyph-name="eng" unicode="&#x14b;" horiz-adv-x="583" 
d="M26 0l88 504h76l-11 -88v0q32 47 81.5 73.5t106.5 26.5q59 0 98 -23.5t54.5 -71t2.5 -120.5l-67 -383q-8 -48 -30 -78.5t-56 -45t-80 -14.5h-52l13 72h39q38 0 56.5 15.5t25.5 52.5l65 372q14 76 -13 114t-88 38q-42 0 -79 -20.5t-63 -59t-36 -95.5l-47 -269h-84z" />
    <glyph glyph-name="Omacron" unicode="&#x14c;" horiz-adv-x="781" 
d="M345 -12q-89 0 -154.5 40.5t-100 111.5t-29.5 162q4 87 37 161.5t89.5 130t129 87t154.5 31.5q90 0 155 -40t99.5 -110.5t29.5 -162.5q-4 -87 -37 -161.5t-89 -130.5t-128.5 -87.5t-155.5 -31.5zM357 62q63 0 118 25t97 70t67.5 106t28.5 133q4 75 -21 129t-73.5 83
t-114.5 29q-63 0 -118 -24.5t-97.5 -69.5t-67.5 -105.5t-28 -131.5q-4 -75 21 -130t74 -84.5t114 -29.5zM320 816l12 63h347l-10 -63h-349z" />
    <glyph glyph-name="omacron" unicode="&#x14d;" horiz-adv-x="596" 
d="M255 -12q-65 0 -113.5 29.5t-73.5 82t-22 119.5q3 64 26.5 118.5t64 94t93 62t111.5 22.5q65 0 113.5 -29t74 -80t21.5 -120q-3 -64 -26.5 -119t-63.5 -95t-92 -62.5t-113 -22.5zM266 60q54 0 97.5 28t70.5 78.5t30 116.5q3 52 -14.5 87.5t-49 54.5t-70.5 19
q-53 0 -96 -28.5t-70 -78.5t-30 -116q-3 -51 14 -87t48.5 -55t69.5 -19zM182 598l12 63h347l-10 -63h-349z" />
    <glyph glyph-name="Obreve" unicode="&#x14e;" horiz-adv-x="781" 
d="M345 -12q-89 0 -154.5 40.5t-100 111.5t-29.5 162q4 87 37 161.5t89.5 130t129 87t154.5 31.5q90 0 155 -40t99.5 -110.5t29.5 -162.5q-4 -87 -37 -161.5t-89 -130.5t-128.5 -87.5t-155.5 -31.5zM357 62q63 0 118 25t97 70t67.5 106t28.5 133q4 75 -21 129t-73.5 83
t-114.5 29q-63 0 -118 -24.5t-97.5 -69.5t-67.5 -105.5t-28 -131.5q-4 -75 21 -130t74 -84.5t114 -29.5zM486 770q-46 0 -73.5 17.5t-38 47t-4.5 65.5l2 14h50q-7 -37 10.5 -57.5t65.5 -20.5q47 0 72 20.5t32 57.5h51l-3 -15q-7 -36 -28.5 -65t-55 -46.5t-80.5 -17.5z" />
    <glyph glyph-name="obreve" unicode="&#x14f;" horiz-adv-x="596" 
d="M255 -12q-65 0 -113.5 29.5t-73.5 82t-22 119.5q3 64 26.5 118.5t64 94t93 62t111.5 22.5q65 0 113.5 -29t74 -80t21.5 -120q-3 -64 -26.5 -119t-63.5 -95t-92 -62.5t-113 -22.5zM266 60q54 0 97.5 28t70.5 78.5t30 116.5q3 52 -14.5 87.5t-49 54.5t-70.5 19
q-53 0 -96 -28.5t-70 -78.5t-30 -116q-3 -51 14 -87t48.5 -55t69.5 -19zM351 566q-46 0 -73.5 17.5t-38 47t-4.5 65.5l2 14h50q-7 -37 10.5 -57.5t65.5 -20.5q47 0 72 20.5t32 57.5h51l-3 -15q-7 -36 -28.5 -65t-55 -46.5t-80.5 -17.5z" />
    <glyph glyph-name="Ohungarumlaut" unicode="&#x150;" horiz-adv-x="781" 
d="M345 -12q-89 0 -154.5 40.5t-100 111.5t-29.5 162q4 87 37 161.5t89.5 130t129 87t154.5 31.5q90 0 155 -40t99.5 -110.5t29.5 -162.5q-4 -87 -37 -161.5t-89 -130.5t-128.5 -87.5t-155.5 -31.5zM357 62q63 0 118 25t97 70t67.5 106t28.5 133q4 75 -21 129t-73.5 83
t-114.5 29q-63 0 -118 -24.5t-97.5 -69.5t-67.5 -105.5t-28 -131.5q-4 -75 21 -130t74 -84.5t114 -29.5zM482 760l103 149h73l-120 -149h-56zM336 760l92 149h73l-109 -149h-56z" />
    <glyph glyph-name="ohungarumlaut" unicode="&#x151;" horiz-adv-x="596" 
d="M255 -12q-65 0 -113.5 29.5t-73.5 82t-22 119.5q3 64 26.5 118.5t64 94t93 62t111.5 22.5q65 0 113.5 -29t74 -80t21.5 -120q-3 -64 -26.5 -119t-63.5 -95t-92 -62.5t-113 -22.5zM266 60q54 0 97.5 28t70.5 78.5t30 116.5q3 52 -14.5 87.5t-49 54.5t-70.5 19
q-53 0 -96 -28.5t-70 -78.5t-30 -116q-3 -51 14 -87t48.5 -55t69.5 -19zM348 556l103 149h73l-120 -149h-56zM202 556l92 149h73l-109 -149h-56z" />
    <glyph glyph-name="OE" unicode="&#x152;" horiz-adv-x="1108" 
d="M338 -12q-85 0 -149 41.5t-97.5 114.5t-28.5 167q3 85 36 157.5t88 127.5t125.5 85.5t147.5 30.5q54 0 99.5 -15t81 -44t57.5 -70l21 117h410l-12 -69h-327l-43 -244h297l-12 -68h-297l-44 -250h326l-12 -69h-410l21 116q-37 -41 -81.5 -69.5t-94 -43.5t-102.5 -15z
M353 62q63 0 117 25.5t96 71.5t66.5 107t27.5 133q4 75 -21.5 128t-74 81.5t-114.5 28.5q-59 0 -111.5 -24.5t-94 -68t-66.5 -102t-28 -127.5q-4 -78 21.5 -134.5t72.5 -87.5t109 -31z" />
    <glyph glyph-name="oe" unicode="&#x153;" horiz-adv-x="985" 
d="M255 -12q-65 0 -113.5 29.5t-73.5 82t-22 119.5q3 64 26.5 118.5t64 94t93 62t111.5 22.5q67 0 116 -30.5t73 -83.5q40 53 99 83.5t128 30.5q67 0 111 -28t64.5 -74.5t17.5 -102.5q0 -11 -2.5 -27.5t-5 -30.5t-3.5 -20h-394q-8 -49 5.5 -88.5t46 -62.5t78.5 -23
q56 0 96.5 26.5t63.5 72.5h82q-20 -49 -57 -87t-86.5 -60.5t-110.5 -22.5q-65 0 -112 29.5t-70 81.5q-40 -51 -98.5 -81t-127.5 -30zM266 60q54 0 97.5 28t70.5 78.5t30 116.5q3 52 -14.5 87.5t-49 54.5t-70.5 19q-53 0 -96 -28.5t-70 -78.5t-30 -116q-3 -51 14 -87
t48.5 -55t69.5 -19zM557 298h311q6 47 -8 79.5t-44.5 50t-72.5 17.5q-40 0 -77.5 -16.5t-66 -49.5t-42.5 -81z" />
    <glyph glyph-name="Racute" unicode="&#x154;" horiz-adv-x="595" 
d="M31 0l123 700h226q74 0 119.5 -25t65.5 -66.5t18 -91.5q-3 -68 -38 -119.5t-97 -80t-144 -28.5h-138l-51 -289h-84zM408 0l-99 313h88l103 -313h-92zM178 355h136q82 0 131 41t51 115q3 50 -28.5 84t-106.5 34h-135zM277 753l-4 61l213 127v0l5 -72z" />
    <glyph glyph-name="racute" unicode="&#x155;" horiz-adv-x="371" 
d="M26 0l88 504h77l-10 -90v0q23 32 54 54.5t71 35t86 12.5l-15 -88h-30q-33 0 -63.5 -8t-56 -26t-43.5 -47.5t-26 -73.5l-48 -273h-84zM182 545l-4 61l213 127v0l5 -72z" />
    <glyph glyph-name="uni0156" unicode="&#x156;" horiz-adv-x="595" 
d="M31 0l123 700h226q74 0 119.5 -25t65.5 -66.5t18 -91.5q-3 -68 -38 -119.5t-97 -80t-144 -28.5h-138l-51 -289h-84zM408 0l-99 313h88l103 -313h-92zM178 355h136q82 0 131 41t51 115q3 50 -28.5 84t-106.5 34h-135zM174 -238l7 40q25 0 38.5 14.5t17.5 42.5l3 14h-45
l14 77h86q1 -20 -0.5 -39t-3.5 -35q-11 -60 -41.5 -87t-75.5 -27z" />
    <glyph glyph-name="uni0157" unicode="&#x157;" horiz-adv-x="371" 
d="M26 0l88 504h77l-10 -90v0q23 32 54 54.5t71 35t86 12.5l-15 -88h-30q-33 0 -63.5 -8t-56 -26t-43.5 -47.5t-26 -73.5l-48 -273h-84zM-21 -238l7 40q25 0 38.5 14.5t17.5 42.5l3 14h-45l14 77h86q1 -20 -0.5 -39t-3.5 -35q-11 -60 -41.5 -87t-75.5 -27z" />
    <glyph glyph-name="Rcaron" unicode="&#x158;" horiz-adv-x="595" 
d="M31 0l123 700h226q74 0 119.5 -25t65.5 -66.5t18 -91.5q-3 -68 -38 -119.5t-97 -80t-144 -28.5h-138l-51 -289h-84zM408 0l-99 313h88l103 -313h-92zM178 355h136q82 0 131 41t51 115q3 50 -28.5 84t-106.5 34h-135zM532 907l-12 -65l-152 -82l-122 82l12 65l122 -84z
" />
    <glyph glyph-name="rcaron" unicode="&#x159;" horiz-adv-x="371" 
d="M26 0l88 504h77l-10 -90v0q23 32 54 54.5t71 35t86 12.5l-15 -88h-30q-33 0 -63.5 -8t-56 -26t-43.5 -47.5t-26 -73.5l-48 -273h-84zM438 709l-12 -66l-152 -81l-122 81l12 66l122 -84z" />
    <glyph glyph-name="Sacute" unicode="&#x15a;" horiz-adv-x="583" 
d="M261 -12q-75 0 -129 26t-79.5 76t-14.5 120h88q-10 -43 6 -77t52 -54t87 -20q52 0 88 17t56 48t22 71q2 29 -8 48.5t-28 34t-42.5 25t-53 20t-57.5 20.5q-70 25 -103.5 66t-30.5 98q2 61 34 107t87.5 72t127.5 26q66 0 113 -24.5t70 -68.5t12 -101h-87q5 34 -8 61.5
t-42 44t-71 16.5t-75 -15t-52 -42.5t-21 -64.5q-1 -24 7.5 -41t24.5 -29.5t39 -23t50.5 -20t58.5 -20.5q32 -11 59 -27.5t46.5 -38t30 -49.5t8.5 -65q-3 -63 -36 -111.5t-91.5 -76.5t-137.5 -28zM293 753l-4 61l213 127v0l5 -72z" />
    <glyph glyph-name="sacute" unicode="&#x15b;" horiz-adv-x="505" 
d="M216 -12q-64 0 -108 21.5t-64.5 61t-16.5 92.5h85q-1 -28 10 -51.5t37 -38t69 -14.5q36 0 62 11t41 30.5t16 46.5q1 25 -11.5 39.5t-37.5 23.5t-60 15q-31 6 -59.5 16t-50.5 25.5t-34 39t-10 55.5q2 44 28.5 79t72 55.5t103.5 20.5q81 0 127.5 -39.5t42.5 -112.5h-84
q2 38 -23 59.5t-73 21.5q-47 0 -76.5 -21t-30.5 -52q-1 -21 11 -35.5t36 -24t59 -16.5q34 -7 63 -17t51 -25.5t33.5 -39t9.5 -57.5q-2 -52 -30.5 -90t-77 -58.5t-110.5 -20.5zM211 545l-4 61l213 127v0l5 -72z" />
    <glyph glyph-name="Scedilla" unicode="&#x15e;" horiz-adv-x="583" 
d="M261 -12q-75 0 -129 26t-79.5 76t-14.5 120h88q-10 -43 6 -77t52 -54t87 -20q52 0 88 17t56 48t22 71q2 29 -8 48.5t-28 34t-42.5 25t-53 20t-57.5 20.5q-70 25 -103.5 66t-30.5 98q2 61 34 107t87.5 72t127.5 26q66 0 113 -24.5t70 -68.5t12 -101h-87q5 34 -8 61.5
t-42 44t-71 16.5t-75 -15t-52 -42.5t-21 -64.5q-1 -24 7.5 -41t24.5 -29.5t39 -23t50.5 -20t58.5 -20.5q32 -11 59 -27.5t46.5 -38t30 -49.5t8.5 -65q-3 -63 -36 -111.5t-91.5 -76.5t-137.5 -28zM134 -259l9 53h92q38 0 56.5 13t19.5 38q1 22 -13 32t-46 10h-50l21 120h57
l-13 -70q36 1 62 -8.5t39.5 -28.5t12.5 -50q-1 -32 -19.5 -56.5t-49 -38.5t-68.5 -14h-110z" />
    <glyph glyph-name="scedilla" unicode="&#x15f;" horiz-adv-x="505" 
d="M216 -12q-64 0 -108 21.5t-64.5 61t-16.5 92.5h85q-1 -28 10 -51.5t37 -38t69 -14.5q36 0 62 11t41 30.5t16 46.5q1 25 -11.5 39.5t-37.5 23.5t-60 15q-31 6 -59.5 16t-50.5 25.5t-34 39t-10 55.5q2 44 28.5 79t72 55.5t103.5 20.5q81 0 127.5 -39.5t42.5 -112.5h-84
q2 38 -23 59.5t-73 21.5q-47 0 -76.5 -21t-30.5 -52q-1 -21 11 -35.5t36 -24t59 -16.5q34 -7 63 -17t51 -25.5t33.5 -39t9.5 -57.5q-2 -52 -30.5 -90t-77 -58.5t-110.5 -20.5zM97 -259l9 53h92q38 0 56.5 13t19.5 38q1 22 -13 32t-46 10h-50l21 120h57l-13 -70q36 1 62 -8.5
t39.5 -28.5t12.5 -50q-1 -32 -19.5 -56.5t-49 -38.5t-68.5 -14h-110z" />
    <glyph glyph-name="Scaron" unicode="&#x160;" horiz-adv-x="583" 
d="M261 -12q-75 0 -129 26t-79.5 76t-14.5 120h88q-10 -43 6 -77t52 -54t87 -20q52 0 88 17t56 48t22 71q2 29 -8 48.5t-28 34t-42.5 25t-53 20t-57.5 20.5q-70 25 -103.5 66t-30.5 98q2 61 34 107t87.5 72t127.5 26q66 0 113 -24.5t70 -68.5t12 -101h-87q5 34 -8 61.5
t-42 44t-71 16.5t-75 -15t-52 -42.5t-21 -64.5q-1 -24 7.5 -41t24.5 -29.5t39 -23t50.5 -20t58.5 -20.5q32 -11 59 -27.5t46.5 -38t30 -49.5t8.5 -65q-3 -63 -36 -111.5t-91.5 -76.5t-137.5 -28zM548 907l-12 -65l-152 -82l-122 82l12 65l122 -84z" />
    <glyph glyph-name="scaron" unicode="&#x161;" horiz-adv-x="505" 
d="M216 -12q-64 0 -108 21.5t-64.5 61t-16.5 92.5h85q-1 -28 10 -51.5t37 -38t69 -14.5q36 0 62 11t41 30.5t16 46.5q1 25 -11.5 39.5t-37.5 23.5t-60 15q-31 6 -59.5 16t-50.5 25.5t-34 39t-10 55.5q2 44 28.5 79t72 55.5t103.5 20.5q81 0 127.5 -39.5t42.5 -112.5h-84
q2 38 -23 59.5t-73 21.5q-47 0 -76.5 -21t-30.5 -52q-1 -21 11 -35.5t36 -24t59 -16.5q34 -7 63 -17t51 -25.5t33.5 -39t9.5 -57.5q-2 -52 -30.5 -90t-77 -58.5t-110.5 -20.5zM467 709l-12 -66l-152 -81l-122 81l12 66l122 -84z" />
    <glyph glyph-name="uni0162" unicode="&#x162;" horiz-adv-x="560" 
d="M194 0l111 633h-208l12 67h501l-12 -67h-209l-112 -633h-83zM123 -259l9 53h92q38 0 56.5 13t19.5 38q1 22 -13 32t-46 10h-50l21 120h57l-13 -70q36 1 62 -8.5t39.5 -28.5t12.5 -50q-1 -32 -19.5 -56.5t-49 -38.5t-68.5 -14h-110z" />
    <glyph glyph-name="uni0163" unicode="&#x163;" horiz-adv-x="386" 
d="M222 0q-51 0 -82 16t-41.5 50t-1.5 88l50 279h-81l13 71h81l32 122h74l-22 -122h147l-13 -71h-147l-50 -279q-8 -47 9 -64.5t60 -17.5h64l-13 -72h-79zM74 -259l9 53h92q38 0 56.5 13t19.5 38q1 22 -13 32t-46 10h-50l21 120h57l-13 -70q36 1 62 -8.5t39.5 -28.5
t12.5 -50q-1 -32 -19.5 -56.5t-49 -38.5t-68.5 -14h-110z" />
    <glyph glyph-name="Tcaron" unicode="&#x164;" horiz-adv-x="560" 
d="M194 0l111 633h-208l12 67h501l-12 -67h-209l-111 -633h-84zM537 905l-12 -65l-152 -82l-122 82l12 65l122 -84z" />
    <glyph glyph-name="tcaron" unicode="&#x165;" horiz-adv-x="386" 
d="M222 0q-51 0 -82 16t-41.5 50t-1.5 88l50 279h-81l13 71h81l32 122h74l-22 -122h147l-13 -71h-147l-50 -279q-8 -47 9 -64.5t60 -17.5h64l-13 -72h-79zM307 561l7 40q26 0 38.5 9.5t16.5 28.5l3 21h-48l15 83h88q1 -26 0.5 -45t-4.5 -39q-9 -52 -39 -75t-77 -23z" />
    <glyph glyph-name="Utilde" unicode="&#x168;" horiz-adv-x="656" 
d="M281 -12q-80 0 -132.5 31.5t-73.5 92.5t-6 146l79 442h84l-79 -442q-10 -62 2 -105.5t47 -66t93 -22.5q53 0 95.5 20t72 63t41.5 111l79 442h84l-78 -442q-16 -93 -61.5 -152.5t-109.5 -88.5t-137 -29zM276 769q16 50 46 75.5t67 25.5q27 0 42.5 -11.5t29 -23.5t35.5 -12
q16 0 30 11.5t21 33.5h49q-15 -49 -45.5 -75t-68.5 -26q-27 0 -43 12t-29.5 23.5t-34.5 11.5q-17 0 -29.5 -11t-20.5 -34h-49z" />
    <glyph glyph-name="utilde" unicode="&#x169;" horiz-adv-x="575" 
d="M208 -12q-63 0 -101.5 27.5t-52 76.5t-1.5 113l53 299h84l-52 -293q-13 -72 10 -111.5t88 -39.5q42 0 79 19.5t64 57t38 91.5l48 276h84l-88 -504h-76l10 89v0q-31 -48 -80.5 -74.5t-106.5 -26.5zM192 565q16 50 46 75.5t67 25.5q27 0 42.5 -11.5t29 -23.5t35.5 -12
q16 0 30 11.5t21 33.5h49q-15 -49 -45.5 -75t-68.5 -26q-27 0 -43 12t-29.5 23.5t-34.5 11.5q-17 0 -29.5 -11t-20.5 -34h-49z" />
    <glyph glyph-name="Umacron" unicode="&#x16a;" horiz-adv-x="656" 
d="M281 -12q-80 0 -132.5 31.5t-73.5 92.5t-6 146l79 442h84l-79 -442q-10 -62 2 -105.5t47 -66t93 -22.5q53 0 95.5 20t72 63t41.5 111l79 442h84l-78 -442q-16 -93 -61.5 -152.5t-109.5 -88.5t-137 -29zM262 816l12 63h347l-10 -63h-349z" />
    <glyph glyph-name="umacron" unicode="&#x16b;" horiz-adv-x="575" 
d="M208 -12q-63 0 -101.5 27.5t-52 76.5t-1.5 113l53 299h84l-52 -293q-13 -72 10 -111.5t88 -39.5q42 0 79 19.5t64 57t38 91.5l48 276h84l-88 -504h-76l10 89v0q-31 -48 -80.5 -74.5t-106.5 -26.5zM175 598l12 63h347l-10 -63h-349z" />
    <glyph glyph-name="Ubreve" unicode="&#x16c;" horiz-adv-x="656" 
d="M281 -12q-80 0 -132.5 31.5t-73.5 92.5t-6 146l79 442h84l-79 -442q-10 -62 2 -105.5t47 -66t93 -22.5q53 0 95.5 20t72 63t41.5 111l79 442h84l-78 -442q-16 -93 -61.5 -152.5t-109.5 -88.5t-137 -29zM427 770q-46 0 -73.5 17.5t-38 47t-4.5 65.5l2 14h50
q-7 -37 10.5 -57.5t65.5 -20.5q47 0 72 20.5t32 57.5h51l-3 -15q-7 -36 -28.5 -65t-55 -46.5t-80.5 -17.5z" />
    <glyph glyph-name="ubreve" unicode="&#x16d;" horiz-adv-x="575" 
d="M208 -12q-63 0 -101.5 27.5t-52 76.5t-1.5 113l53 299h84l-52 -293q-13 -72 10 -111.5t88 -39.5q42 0 79 19.5t64 57t38 91.5l48 276h84l-88 -504h-76l10 89v0q-31 -48 -80.5 -74.5t-106.5 -26.5zM343 566q-46 0 -73.5 17.5t-38 47t-4.5 65.5l2 14h50q-7 -37 10.5 -57.5
t65.5 -20.5q47 0 72 20.5t32 57.5h51l-3 -15q-7 -36 -28.5 -65t-55 -46.5t-80.5 -17.5z" />
    <glyph glyph-name="Uring" unicode="&#x16e;" horiz-adv-x="656" 
d="M281 -12q-80 0 -132.5 31.5t-73.5 92.5t-6 146l79 442h84l-79 -442q-10 -62 2 -105.5t47 -66t93 -22.5q53 0 95.5 20t72 63t41.5 111l79 442h84l-78 -442q-16 -93 -61.5 -152.5t-109.5 -88.5t-137 -29zM446 770q-43 0 -74 27.5t-31 75.5t31 75.5t74 27.5q44 0 74.5 -27.5
t30.5 -75.5t-30.5 -75.5t-74.5 -27.5zM446 813q24 0 40.5 16.5t16.5 43.5q0 28 -16.5 43.5t-40.5 15.5q-23 0 -40 -15.5t-17 -43.5q0 -27 17 -43.5t40 -16.5z" />
    <glyph glyph-name="uring" unicode="&#x16f;" horiz-adv-x="575" 
d="M208 -12q-63 0 -101.5 27.5t-52 76.5t-1.5 113l53 299h84l-52 -293q-13 -72 10 -111.5t88 -39.5q42 0 79 19.5t64 57t38 91.5l48 276h84l-88 -504h-76l10 89v0q-31 -48 -80.5 -74.5t-106.5 -26.5zM362 566q-43 0 -74 27.5t-31 75.5t31 75.5t74 27.5q44 0 74.5 -27.5
t30.5 -75.5t-30.5 -75.5t-74.5 -27.5zM362 609q24 0 40.5 16.5t16.5 43.5q0 28 -16.5 43.5t-40.5 15.5q-23 0 -40 -15.5t-17 -43.5q0 -27 17 -43.5t40 -16.5z" />
    <glyph glyph-name="Uhungarumlaut" unicode="&#x170;" horiz-adv-x="656" 
d="M281 -12q-80 0 -132.5 31.5t-73.5 92.5t-6 146l79 442h84l-79 -442q-10 -62 2 -105.5t47 -66t93 -22.5q53 0 95.5 20t72 63t41.5 111l79 442h84l-78 -442q-16 -93 -61.5 -152.5t-109.5 -88.5t-137 -29zM424 760l103 149h73l-120 -149h-56zM278 760l92 149h73l-109 -149
h-56z" />
    <glyph glyph-name="uhungarumlaut" unicode="&#x171;" horiz-adv-x="575" 
d="M208 -12q-63 0 -101.5 27.5t-52 76.5t-1.5 113l53 299h84l-52 -293q-13 -72 10 -111.5t88 -39.5q42 0 79 19.5t64 57t38 91.5l48 276h84l-88 -504h-76l10 89v0q-31 -48 -80.5 -74.5t-106.5 -26.5zM340 556l103 149h73l-120 -149h-56zM194 556l92 149h73l-109 -149h-56z
" />
    <glyph glyph-name="Uogonek" unicode="&#x172;" horiz-adv-x="656" 
d="M281 -12q-80 0 -132.5 31.5t-73.5 92.5t-6 146l79 442h84l-79 -442q-10 -62 2 -105.5t47 -66t93 -22.5q53 0 95.5 20t72 63t41.5 111l79 442h84l-78 -442q-16 -93 -61.5 -152.5t-109.5 -88.5t-137 -29zM293 -193q-31 0 -56 9.5t-38 30.5t-7 55q4 24 19 46t44 43t75 39
l57 23l14 -43l-63 -28q-38 -17 -55.5 -35t-21.5 -37q-4 -23 10.5 -36t41.5 -13q14 0 31.5 4t35.5 11l-9 -56q-18 -6 -38 -9.5t-40 -3.5z" />
    <glyph glyph-name="uogonek" unicode="&#x173;" horiz-adv-x="575" 
d="M208 -12q-63 0 -101.5 27.5t-52 76.5t-1.5 113l53 299h84l-52 -293q-13 -72 10 -111.5t88 -39.5q42 0 79 19.5t64 57t38 91.5l48 276h84l-88 -504h-76l10 89v0q-31 -48 -80.5 -74.5t-106.5 -26.5zM353 -203q-31 0 -56 9.5t-38 30.5t-7 55q4 24 19 46t44 43t75 39l57 23
l14 -43l-63 -28q-38 -17 -55.5 -35t-21.5 -37q-4 -23 10.5 -36t41.5 -13q14 0 31.5 4t35.5 11l-9 -56q-18 -6 -38 -9.5t-40 -3.5z" />
    <glyph glyph-name="Wcircumflex" unicode="&#x174;" horiz-adv-x="968" 
d="M174 -1l-68 701h91l45 -597v0l277 597h94l60 -598v0l258 598h91l-320 -700h-96l-65 577v0l-272 -577zM446 761l12 65l152 82l122 -82l-12 -65l-122 84z" />
    <glyph glyph-name="wcircumflex" unicode="&#x175;" horiz-adv-x="763" 
d="M129 0l-60 504h85l39 -425h-16l202 425h95l51 -424l-16 -1l190 425h84l-236 -504h-86l-53 444h16l-210 -444h-85zM298 559l12 65l152 82l122 -82l-12 -65l-122 84z" />
    <glyph glyph-name="Ycircumflex" unicode="&#x176;" horiz-adv-x="580" 
d="M204 0l47 266l-151 434h95l112 -354v0l238 354h94l-304 -434l-47 -266h-84zM252 761l12 65l152 82l122 -82l-12 -65l-122 84z" />
    <glyph glyph-name="ycircumflex" unicode="&#x177;" horiz-adv-x="557" 
d="M43 -220l168 270h-28l-118 454h87l99 -392v0l242 392h88l-451 -724h-87zM196 559l12 65l152 82l122 -82l-12 -65l-122 84z" />
    <glyph glyph-name="Ydieresis" unicode="&#x178;" horiz-adv-x="580" 
d="M204 0l47 266l-151 434h95l112 -354v0l238 354h94l-304 -434l-47 -266h-84zM321 775q-21 0 -35.5 14.5t-14.5 35.5q0 20 14.5 35t35.5 15t35.5 -15t14.5 -35q0 -21 -14.5 -35.5t-35.5 -14.5zM482 775q-22 0 -36 14.5t-14 35.5q0 20 14 35t36 15q20 0 34.5 -15t14.5 -35
q0 -21 -14.5 -35.5t-34.5 -14.5z" />
    <glyph glyph-name="Zacute" unicode="&#x179;" horiz-adv-x="541" 
d="M0 0l12 66l447 561h-343l13 73h442l-11 -66l-449 -561h354l-13 -73h-452zM277 753l-4 61l213 127v0l5 -72z" />
    <glyph glyph-name="zacute" unicode="&#x17a;" horiz-adv-x="464" 
d="M-9 0l13 69l350 365h-273l12 70h371l-13 -69l-351 -365h284l-13 -70h-380zM197 545l-4 61l213 127v0l5 -72z" />
    <glyph glyph-name="Zdotaccent" unicode="&#x17b;" horiz-adv-x="541" 
d="M0 0l12 66l447 561h-343l13 73h442l-11 -66l-449 -561h354l-13 -73h-452zM380 776q-20 0 -34.5 15t-14.5 35t14.5 35t34.5 15q21 0 35.5 -15t14.5 -35t-14.5 -35t-35.5 -15z" />
    <glyph glyph-name="zdotaccent" unicode="&#x17c;" horiz-adv-x="464" 
d="M-9 0l13 69l350 365h-273l12 70h371l-13 -69l-351 -365h284l-13 -70h-380zM300 570q-20 0 -34.5 15t-14.5 35t14.5 35t34.5 15q21 0 35.5 -15t14.5 -35t-14.5 -35t-35.5 -15z" />
    <glyph glyph-name="Zcaron" unicode="&#x17d;" horiz-adv-x="541" 
d="M0 0l12 66l447 561h-343l13 73h442l-11 -66l-449 -561h354l-13 -73h-452zM532 907l-12 -65l-152 -82l-122 82l12 65l122 -84z" />
    <glyph glyph-name="zcaron" unicode="&#x17e;" horiz-adv-x="464" 
d="M-9 0l13 69l350 365h-273l12 70h371l-13 -69l-351 -365h284l-13 -70h-380zM453 709l-12 -66l-152 -81l-122 81l12 66l122 -84z" />
    <glyph glyph-name="uni018F" unicode="&#x18f;" horiz-adv-x="742" 
d="M319 -12q-71 0 -123.5 22.5t-85.5 64t-47 97t-7 120.5q2 19 5.5 39.5t10.5 42.5h572l-12 -70h-487q-12 -78 6.5 -132t64.5 -82t115 -28q55 0 104 19.5t88 56t64.5 88t33.5 114.5l5 45q10 79 -12 136t-68.5 87.5t-111.5 30.5q-80 0 -144.5 -39.5t-98.5 -111.5h-95
q31 67 82.5 117.5t120 78.5t147.5 28q87 0 149 -38t94.5 -105.5t27.5 -155.5q-4 -90 -34.5 -167.5t-83.5 -135.5t-124 -90t-156 -32z" />
    <glyph glyph-name="florin" unicode="&#x192;" horiz-adv-x="334" 
d="M-122 -191l20 70h22q29 0 47 14.5t28 52.5l184 650q26 89 86 129.5t158 40.5l-19 -71q-59 0 -93 -23t-48 -76l-183 -650q-13 -48 -36.5 -78.5t-58 -44.5t-81.5 -14h-26zM73 478l19 70h278l-19 -70h-278z" />
    <glyph glyph-name="AEacute" unicode="&#x1fc;" horiz-adv-x="912" 
d="M-14 0l523 700h425l-12 -67h-289l-44 -247h259l-11 -66h-259l-44 -253h288l-12 -67h-373l112 631v0l-471 -631h-92zM150 159l47 67h318l-12 -67h-353zM522 753l-4 61l213 127v0l5 -72z" />
    <glyph glyph-name="aeacute" unicode="&#x1fd;" horiz-adv-x="926" 
d="M189 -12q-57 0 -93 19t-52.5 50.5t-14.5 68.5q2 55 33 94.5t84 61t122 21.5h145q8 46 0 77.5t-32 48t-66 16.5q-48 0 -87.5 -24t-56.5 -71h-86q15 54 52.5 90.5t87.5 56t102 19.5q44 0 76.5 -10.5t54.5 -30.5t32 -49q40 42 93 66t114 24q67 0 111 -28t65 -74.5t18 -102.5
q-1 -11 -3.5 -27.5t-5 -30.5t-3.5 -20h-393q-9 -49 5 -88.5t46.5 -62.5t77.5 -23q56 0 96.5 26.5t63.5 72.5h83q-21 -49 -58 -87t-87 -60.5t-111 -22.5q-68 0 -116.5 32.5t-69.5 87.5q-24 -33 -58.5 -60.5t-77.5 -43.5t-91 -16zM211 59q44 0 82.5 22t66 58.5t37.5 79.5l3 19
h-137q-44 0 -76.5 -12t-50 -34.5t-18.5 -54.5q-2 -23 8.5 -40.5t32 -27.5t52.5 -10zM498 298h310q7 47 -8 79.5t-45 50t-72 17.5q-40 0 -77.5 -16.5t-66 -49.5t-41.5 -81zM425 545l-4 61l213 127v0l5 -72z" />
    <glyph glyph-name="uni0218" unicode="&#x218;" horiz-adv-x="583" 
d="M261 -12q-75 0 -129 26t-79.5 76t-14.5 120h88q-10 -43 6 -77t52 -54t87 -20q52 0 88 17t56 48t22 71q2 29 -8 48.5t-28 34t-42.5 25t-53 20t-57.5 20.5q-70 25 -103.5 66t-30.5 98q2 61 34 107t87.5 72t127.5 26q66 0 113 -24.5t70 -68.5t12 -101h-87q5 34 -8 61.5
t-42 44t-71 16.5t-75 -15t-52 -42.5t-21 -64.5q-1 -24 7.5 -41t24.5 -29.5t39 -23t50.5 -20t58.5 -20.5q32 -11 59 -27.5t46.5 -38t30 -49.5t8.5 -65q-3 -63 -36 -111.5t-91.5 -76.5t-137.5 -28zM161 -238l7 40q25 0 38.5 14.5t17.5 42.5l3 14h-45l14 77h86q1 -20 -0.5 -39
t-3.5 -35q-11 -60 -41.5 -87t-75.5 -27z" />
    <glyph glyph-name="uni0219" unicode="&#x219;" horiz-adv-x="505" 
d="M216 -12q-64 0 -108 21.5t-64.5 61t-16.5 92.5h85q-1 -28 10 -51.5t37 -38t69 -14.5q36 0 62 11t41 30.5t16 46.5q1 25 -11.5 39.5t-37.5 23.5t-60 15q-31 6 -59.5 16t-50.5 25.5t-34 39t-10 55.5q2 44 28.5 79t72 55.5t103.5 20.5q81 0 127.5 -39.5t42.5 -112.5h-84
q2 38 -23 59.5t-73 21.5q-47 0 -76.5 -21t-30.5 -52q-1 -21 11 -35.5t36 -24t59 -16.5q34 -7 63 -17t51 -25.5t33.5 -39t9.5 -57.5q-2 -52 -30.5 -90t-77 -58.5t-110.5 -20.5zM124 -238l7 40q25 0 38.5 14.5t17.5 42.5l3 14h-45l14 77h86q1 -20 -0.5 -39t-3.5 -35
q-11 -60 -41.5 -87t-75.5 -27z" />
    <glyph glyph-name="uni021A" unicode="&#x21a;" horiz-adv-x="560" 
d="M194 0l111 633h-208l12 67h501l-12 -67h-209l-112 -633h-83zM150 -238l7 40q25 0 38.5 14.5t17.5 42.5l3 14h-45l14 77h86q1 -20 -0.5 -39t-3.5 -35q-11 -60 -41.5 -87t-75.5 -27z" />
    <glyph glyph-name="uni021B" unicode="&#x21b;" horiz-adv-x="386" 
d="M222 0q-51 0 -82 16t-41.5 50t-1.5 88l50 279h-81l13 71h81l32 122h74l-22 -122h147l-13 -71h-147l-50 -279q-8 -47 9 -64.5t60 -17.5h64l-13 -72h-79zM101 -238l7 40q25 0 38.5 14.5t17.5 42.5l3 14h-45l14 77h86q1 -20 -0.5 -39t-3.5 -35q-11 -60 -41.5 -87t-75.5 -27z
" />
    <glyph glyph-name="uni0237" unicode="&#x237;" horiz-adv-x="234" 
d="M-111 -220l13 72h38q38 0 57 15.5t25 52.5l104 584h84l-104 -586q-8 -48 -29.5 -78.5t-55.5 -45t-81 -14.5h-51z" />
    <glyph glyph-name="uni0259" unicode="&#x259;" horiz-adv-x="570" 
d="M324 516q64 0 110 -28t69.5 -79t20.5 -120q-3 -64 -26 -118.5t-62.5 -95.5t-91.5 -64t-113 -23q-68 0 -112.5 27.5t-65.5 74t-18 102.5q1 18 4.5 39.5t7.5 39.5h412l-11 -65h-330q-6 -47 8.5 -79.5t44.5 -50t72 -17.5q43 0 82.5 19.5t68.5 57.5t39 93l5 28q11 57 -2 99
t-45.5 65.5t-79.5 23.5q-53 0 -91 -23.5t-61 -64.5h-83q21 46 56.5 81.5t84.5 56.5t107 21z" />
    <glyph glyph-name="circumflex" unicode="&#x2c6;" horiz-adv-x="275" 
d="M54 559l12 65l152 82l122 -82l-12 -65l-122 84z" />
    <glyph glyph-name="caron" unicode="&#x2c7;" horiz-adv-x="274" 
d="M355 709l-12 -66l-152 -81l-122 81l12 66l122 -84z" />
    <glyph glyph-name="breve" unicode="&#x2d8;" horiz-adv-x="281" 
d="M195 566q-46 0 -73.5 17.5t-38 47t-4.5 65.5l2 14h50q-7 -37 10.5 -57.5t65.5 -20.5q47 0 72 20.5t32 57.5h51l-3 -15q-7 -36 -28.5 -65t-55 -46.5t-80.5 -17.5z" />
    <glyph glyph-name="dotaccent" unicode="&#x2d9;" horiz-adv-x="101" 
d="M115 570q-20 0 -34.5 15t-14.5 35t14.5 35t34.5 15q21 0 35.5 -15t14.5 -35t-14.5 -35t-35.5 -15z" />
    <glyph glyph-name="ring" unicode="&#x2da;" horiz-adv-x="214" 
d="M181 566q-43 0 -74 27.5t-31 75.5t31 75.5t74 27.5q44 0 74.5 -27.5t30.5 -75.5t-30.5 -75.5t-74.5 -27.5zM181 609q24 0 40.5 16.5t16.5 43.5q0 28 -16.5 43.5t-40.5 15.5q-23 0 -40 -15.5t-17 -43.5q0 -27 17 -43.5t40 -16.5z" />
    <glyph glyph-name="ogonek" unicode="&#x2db;" horiz-adv-x="193" 
d="M38 -203q-31 0 -56 9.5t-38 30.5t-7 55q4 24 19 46t44 43t75 39l57 23l14 -43l-63 -28q-38 -17 -55.5 -35t-21.5 -37q-4 -23 10.5 -36t41.5 -13q14 0 31.5 4t35.5 11l-9 -56q-18 -6 -38 -9.5t-40 -3.5z" />
    <glyph glyph-name="tilde" unicode="&#x2dc;" horiz-adv-x="302" 
d="M55 565q16 50 46 75.5t67 25.5q27 0 42.5 -11.5t29 -23.5t35.5 -12q16 0 30 11.5t21 33.5h49q-15 -49 -45.5 -75t-68.5 -26q-27 0 -43 12t-29.5 23.5t-34.5 11.5q-17 0 -29.5 -11t-20.5 -34h-49z" />
    <glyph glyph-name="hungarumlaut" unicode="&#x2dd;" horiz-adv-x="296" 
d="M200 556l103 149h73l-120 -149h-56zM54 556l92 149h73l-109 -149h-56z" />
    <glyph glyph-name="gravecomb" unicode="&#x300;" 
d="M256 545l-183 116l24 72v0l179 -127z" />
    <glyph glyph-name="acutecomb" unicode="&#x301;" 
d="M66 545l-4 61l213 127v0l5 -72z" />
    <glyph glyph-name="uni0302" unicode="&#x302;" 
d="M54 559l12 65l152 82l122 -82l-12 -65l-122 84z" />
    <glyph glyph-name="tildecomb" unicode="&#x303;" 
d="M55 565q16 50 46 75.5t67 25.5q27 0 42.5 -11.5t29 -23.5t35.5 -12q16 0 30 11.5t21 33.5h49q-15 -49 -45.5 -75t-68.5 -26q-27 0 -43 12t-29.5 23.5t-34.5 11.5q-17 0 -29.5 -11t-20.5 -34h-49z" />
    <glyph glyph-name="uni0304" unicode="&#x304;" 
d="M61 598l12 63h347l-10 -63h-349z" />
    <glyph glyph-name="uni0306" unicode="&#x306;" 
d="M195 566q-46 0 -73.5 17.5t-38 47t-4.5 65.5l2 14h50q-7 -37 10.5 -57.5t65.5 -20.5q47 0 72 20.5t32 57.5h51l-3 -15q-7 -36 -28.5 -65t-55 -46.5t-80.5 -17.5z" />
    <glyph glyph-name="uni0307" unicode="&#x307;" 
d="M115 570q-20 0 -34.5 15t-14.5 35t14.5 35t34.5 15q21 0 35.5 -15t14.5 -35t-14.5 -35t-35.5 -15z" />
    <glyph glyph-name="uni0308" unicode="&#x308;" 
d="M117 576q-21 0 -35.5 14.5t-14.5 35.5q0 20 14.5 35t35.5 15t35.5 -15t14.5 -35q0 -21 -14.5 -35.5t-35.5 -14.5zM278 576q-22 0 -36 14.5t-14 35.5q0 20 14 35t36 15q20 0 34.5 -15t14.5 -35q0 -21 -14.5 -35.5t-34.5 -14.5z" />
    <glyph glyph-name="uni030A" unicode="&#x30a;" 
d="M181 566q-43 0 -74 27.5t-31 75.5t31 75.5t74 27.5q44 0 74.5 -27.5t30.5 -75.5t-30.5 -75.5t-74.5 -27.5zM181 609q24 0 40.5 16.5t16.5 43.5q0 28 -16.5 43.5t-40.5 15.5q-23 0 -40 -15.5t-17 -43.5q0 -27 17 -43.5t40 -16.5z" />
    <glyph glyph-name="uni030B" unicode="&#x30b;" 
d="M200 556l103 149h73l-120 -149h-56zM54 556l92 149h73l-109 -149h-56z" />
    <glyph glyph-name="uni030C" unicode="&#x30c;" 
d="M355 709l-12 -66l-152 -81l-122 81l12 66l122 -84z" />
    <glyph glyph-name="uni0312" unicode="&#x312;" 
d="M187 748l-7 -40q-25 0 -38 -9.5t-17 -28.5l-3 -21h48l-15 -83h-88q-1 26 -0.5 45.5t4.5 38.5q9 52 39 75t77 23z" />
    <glyph glyph-name="uni0326" unicode="&#x326;" 
d="M-86 -238l7 40q25 0 38.5 14.5t17.5 42.5l3 14h-45l14 77h86q1 -20 -0.5 -39t-3.5 -35q-11 -60 -41.5 -87t-75.5 -27z" />
    <glyph glyph-name="uni0327" unicode="&#x327;" 
d="M-90 -259l9 53h92q38 0 56.5 13t19.5 38q1 22 -13 32t-46 10h-50l21 120h57l-13 -70q36 1 62 -8.5t39.5 -28.5t12.5 -50q-1 -32 -19.5 -56.5t-49 -38.5t-68.5 -14h-110z" />
    <glyph glyph-name="uni0328" unicode="&#x328;" 
d="M38 -203q-31 0 -56 9.5t-38 30.5t-7 55q4 24 19 46t44 43t75 39l57 23l14 -43l-63 -28q-38 -17 -55.5 -35t-21.5 -37q-4 -23 10.5 -36t41.5 -13q14 0 31.5 4t35.5 11l-9 -56q-18 -6 -38 -9.5t-40 -3.5z" />
    <glyph glyph-name="pi" unicode="&#x3c0;" horiz-adv-x="646" 
d="M81 0l78 438h-80l12 66h554l-12 -66h-79l-77 -438h-84l77 438h-227l-78 -438h-84z" />
    <glyph glyph-name="Wgrave" unicode="&#x1e80;" horiz-adv-x="968" 
d="M174 -1l-68 701h91l45 -597v0l277 597h94l60 -598v0l258 598h91l-320 -700h-96l-65 577v0l-272 -577zM676 753l-183 116l24 72v0l179 -127z" />
    <glyph glyph-name="wgrave" unicode="&#x1e81;" horiz-adv-x="763" 
d="M129 0l-60 504h85l39 -425h-16l202 425h95l51 -424l-16 -1l190 425h84l-236 -504h-86l-53 444h16l-210 -444h-85zM531 545l-183 116l24 72v0l179 -127z" />
    <glyph glyph-name="Wacute" unicode="&#x1e82;" horiz-adv-x="968" 
d="M174 -1l-68 701h91l45 -597v0l277 597h94l60 -598v0l258 598h91l-320 -700h-96l-65 577v0l-272 -577zM491 753l-4 61l213 127v0l5 -72z" />
    <glyph glyph-name="wacute" unicode="&#x1e83;" horiz-adv-x="763" 
d="M129 0l-60 504h85l39 -425h-16l202 425h95l51 -424l-16 -1l190 425h84l-236 -504h-86l-53 444h16l-210 -444h-85zM343 545l-4 61l213 127v0l5 -72z" />
    <glyph glyph-name="Wdieresis" unicode="&#x1e84;" horiz-adv-x="968" 
d="M174 -1l-68 701h91l45 -597v0l277 597h94l60 -598v0l258 598h91l-320 -700h-96l-65 577v0l-272 -577zM515 775q-21 0 -35.5 14.5t-14.5 35.5q0 20 14.5 35t35.5 15t35.5 -15t14.5 -35q0 -21 -14.5 -35.5t-35.5 -14.5zM676 775q-22 0 -36 14.5t-14 35.5q0 20 14 35t36 15
q20 0 34.5 -15t14.5 -35q0 -21 -14.5 -35.5t-34.5 -14.5z" />
    <glyph glyph-name="wdieresis" unicode="&#x1e85;" horiz-adv-x="763" 
d="M129 0l-60 504h85l39 -425h-16l202 425h95l51 -424l-16 -1l190 425h84l-236 -504h-86l-53 444h16l-210 -444h-85zM367 576q-21 0 -35.5 14.5t-14.5 35.5q0 20 14.5 35t35.5 15t35.5 -15t14.5 -35q0 -21 -14.5 -35.5t-35.5 -14.5zM528 576q-22 0 -36 14.5t-14 35.5
q0 20 14 35t36 15q20 0 34.5 -15t14.5 -35q0 -21 -14.5 -35.5t-34.5 -14.5z" />
    <glyph glyph-name="uni1E9E" unicode="&#x1e9e;" horiz-adv-x="678" 
d="M388 -5q-103 0 -150.5 54t-29.5 159h83q-7 -40 -1.5 -72.5t30.5 -51.5t76 -19q44 0 73.5 20t47.5 53t25 71q14 77 -15.5 118.5t-102.5 41.5h-125l10 59l238 201h-251q-38 0 -57.5 -16t-26.5 -54l-98 -559h-84l99 562q9 48 30 78.5t55 45t80 14.5h369l-11 -64l-242 -203
h19q73 0 121 -25.5t67.5 -74.5t7.5 -118q-12 -67 -43 -116.5t-80 -76.5t-114 -27z" />
    <glyph glyph-name="uni1EBC" unicode="&#x1ebc;" horiz-adv-x="545" 
d="M31 0l123 700h412l-12 -67h-328l-43 -247h298l-12 -66h-298l-44 -252h327l-12 -68h-411zM218 769q16 50 46 75.5t67 25.5q27 0 42.5 -11.5t29 -23.5t35.5 -12q16 0 30 11.5t21 33.5h49q-15 -49 -45.5 -75t-68.5 -26q-27 0 -43 12t-29.5 23.5t-34.5 11.5q-17 0 -29.5 -11
t-20.5 -34h-49z" />
    <glyph glyph-name="uni1EBD" unicode="&#x1ebd;" horiz-adv-x="570" 
d="M246 -12q-63 0 -109.5 28t-70 79t-20.5 119q3 65 26 119.5t62.5 95.5t91.5 64t113 23q68 0 112.5 -28t65.5 -74.5t18 -102.5q0 -17 -3.5 -38.5t-8.5 -39.5h-412l11 65h330q7 47 -8 79.5t-45 50t-72 17.5t-82 -19.5t-69 -57t-39 -93.5l-5 -28q-10 -56 2.5 -99t45 -66
t79.5 -23q53 0 91.5 24t60.5 64h83q-20 -46 -56 -81.5t-84.5 -56.5t-107.5 -21zM195 565q16 50 46 75.5t67 25.5q27 0 42.5 -11.5t29 -23.5t35.5 -12q16 0 30 11.5t21 33.5h49q-15 -49 -45.5 -75t-68.5 -26q-27 0 -43 12t-29.5 23.5t-34.5 11.5q-17 0 -29.5 -11t-20.5 -34
h-49z" />
    <glyph glyph-name="Ygrave" unicode="&#x1ef2;" horiz-adv-x="580" 
d="M204 0l47 266l-151 434h95l112 -354v0l238 354h94l-304 -434l-47 -266h-84zM482 753l-183 116l24 72v0l179 -127z" />
    <glyph glyph-name="ygrave" unicode="&#x1ef3;" horiz-adv-x="557" 
d="M43 -220l168 270h-28l-118 454h87l99 -392v0l242 392h88l-451 -724h-87zM428 545l-183 116l24 72v0l179 -127z" />
    <glyph glyph-name="uni1EF8" unicode="&#x1ef8;" horiz-adv-x="580" 
d="M204 0l47 266l-151 434h95l112 -354v0l238 354h94l-304 -434l-47 -266h-84zM239 769q16 50 46 75.5t67 25.5q27 0 42.5 -11.5t29 -23.5t35.5 -12q16 0 30 11.5t21 33.5h49q-15 -49 -45.5 -75t-68.5 -26q-27 0 -43 12t-29.5 23.5t-34.5 11.5q-17 0 -29.5 -11t-20.5 -34
h-49z" />
    <glyph glyph-name="uni1EF9" unicode="&#x1ef9;" horiz-adv-x="557" 
d="M43 -220l168 270h-28l-118 454h87l99 -392v0l242 392h88l-451 -724h-87zM183 565q16 50 46 75.5t67 25.5q27 0 42.5 -11.5t29 -23.5t35.5 -12q16 0 30 11.5t21 33.5h49q-15 -49 -45.5 -75t-68.5 -26q-27 0 -43 12t-29.5 23.5t-34.5 11.5q-17 0 -29.5 -11t-20.5 -34h-49z
" />
    <glyph glyph-name="endash" unicode="&#x2013;" horiz-adv-x="643" 
d="M74 260l12 71h524l-13 -71h-523z" />
    <glyph glyph-name="emdash" unicode="&#x2014;" horiz-adv-x="847" 
d="M74 260l12 71h728l-12 -71h-728z" />
    <glyph glyph-name="quoteleft" unicode="&#x2018;" horiz-adv-x="217" 
d="M82 470l132 230h60l-98 -230h-94z" />
    <glyph glyph-name="quoteright" unicode="&#x2019;" horiz-adv-x="217" 
d="M251 699l-132 -230h-60l98 230h94z" />
    <glyph glyph-name="quotesinglbase" unicode="&#x201a;" horiz-adv-x="189" 
d="M-61 -122l97 228h94l-131 -228h-60z" />
    <glyph glyph-name="quotedblleft" unicode="&#x201c;" horiz-adv-x="375" 
d="M240 470l132 230h60l-97 -230h-95zM82 470l132 230h60l-98 -230h-94z" />
    <glyph glyph-name="quotedblright" unicode="&#x201d;" horiz-adv-x="375" 
d="M251 699l-132 -230h-60l97 230h95zM409 699l-131 -230h-60l97 230h94z" />
    <glyph glyph-name="quotedblbase" unicode="&#x201e;" horiz-adv-x="357" 
d="M-61 -122l97 228h94l-131 -228h-60zM107 -122l97 228h94l-131 -228h-60z" />
    <glyph glyph-name="dagger" unicode="&#x2020;" horiz-adv-x="531" 
d="M133 -259l140 747l-192 -7l12 67l189 -8l35 240h83l-51 -240l192 8l-12 -67l-189 7l-124 -747h-83z" />
    <glyph glyph-name="daggerdbl" unicode="&#x2021;" horiz-adv-x="533" 
d="M134 -259l52 240l-193 -7l13 67l189 -8l80 455l-192 -7l12 67l189 -8l34 240h83l-50 -240l192 8l-12 -67l-189 7l-80 -455l192 8l-12 -67l-189 7l-36 -240h-83z" />
    <glyph glyph-name="bullet" unicode="&#x2022;" horiz-adv-x="365" 
d="M196 213q-32 0 -59.5 16t-44 43.5t-16.5 60.5q0 34 16.5 61.5t44 43.5t59.5 16q35 0 62 -16t43 -43.5t16 -60.5q0 -34 -16 -61.5t-43 -43.5t-62 -16z" />
    <glyph glyph-name="ellipsis" unicode="&#x2026;" horiz-adv-x="568" 
d="M249 -5q-25 0 -41.5 16.5t-16.5 40.5t16.5 40.5t41.5 16.5t41 -16.5t16 -40.5t-16 -40.5t-41 -16.5zM433 -5q-25 0 -41.5 16.5t-16.5 40.5t16.5 40.5t41.5 16.5t41 -16.5t16 -40.5t-16 -40.5t-41 -16.5zM65 -5q-25 0 -41.5 16.5t-16.5 40.5t16.5 40.5t41.5 16.5t41 -16.5
t16 -40.5t-16 -40.5t-41 -16.5z" />
    <glyph glyph-name="perthousand" unicode="&#x2030;" horiz-adv-x="1149" 
d="M903 -12q-41 0 -72.5 17.5t-48 50.5t-14.5 78q2 54 28.5 97t68.5 68t93 25q41 0 72 -17.5t48 -50t14 -77.5q-2 -54 -27.5 -97t-68 -68.5t-93.5 -25.5zM912 51q29 0 53.5 16t40 44t16.5 62q3 45 -18.5 67t-54.5 22q-28 0 -53 -16t-40.5 -43.5t-16.5 -62.5q-3 -45 19 -67
t54 -22zM101 0l531 700h83l-530 -700h-84zM542 -12q-41 0 -72.5 17.5t-48 50.5t-14.5 78q2 54 28 97t69 68t93 25q41 0 72 -17.5t47.5 -50t14.5 -77.5q-2 -54 -27.5 -97t-68 -68.5t-93.5 -25.5zM226 375q-41 0 -72.5 18t-48 50.5t-14.5 77.5q2 54 28.5 96.5t68.5 68t93 25.5
q42 0 73 -17.5t47.5 -50t14.5 -78.5q-3 -53 -29 -96t-68 -68.5t-93 -25.5zM552 52q28 0 52.5 16t39.5 43.5t17 61.5q2 45 -19 67t-54 22q-28 0 -53 -16t-40.5 -43.5t-16.5 -62.5q-2 -45 20 -66.5t54 -21.5zM235 439q30 0 54 16t39.5 43.5t16.5 61.5q2 45 -19 67t-54 22
q-29 0 -53.5 -16t-40 -43.5t-17.5 -62.5q-2 -45 20 -66.5t54 -21.5z" />
    <glyph glyph-name="guilsinglleft" unicode="&#x2039;" horiz-adv-x="275" 
d="M118 120l-66 175l128 175h83l-131 -175l69 -175h-83z" />
    <glyph glyph-name="guilsinglright" unicode="&#x203a;" horiz-adv-x="275" 
d="M172 470l66 -175l-128 -175h-83l131 175l-69 175h83z" />
    <glyph glyph-name="fraction" unicode="&#x2044;" horiz-adv-x="430" 
d="M-68 0l531 700h84l-531 -700h-84z" />
    <glyph glyph-name="uni2074" unicode="&#x2074;" horiz-adv-x="321" 
d="M210 352l12 66h-172l9 50l205 232h74l-41 -228h46l-9 -54h-46l-12 -66h-66zM129 472h107l28 156v0z" />
    <glyph glyph-name="uni20A8" unicode="&#x20a8;" horiz-adv-x="1050" 
d="M31 0l123 700h226q74 0 119.5 -25t65.5 -66.5t18 -91.5q-3 -68 -38 -119.5t-97 -80t-144 -28.5h-138l-51 -289h-84zM408 0l-99 313h88l103 -313h-92zM178 355h136q82 0 131 41t51 115q3 50 -28.5 84t-106.5 34h-135zM762 -12q-64 0 -108 21.5t-64.5 61t-16.5 92.5h85
q-1 -28 10 -51.5t37 -38t69 -14.5q36 0 62 11t41 30.5t16 46.5q1 25 -11.5 39.5t-37.5 23.5t-60 15q-31 6 -59.5 16t-50.5 25.5t-34 39t-10 55.5q2 44 28.5 79t72 55.5t103.5 20.5q81 0 127.5 -39.5t42.5 -112.5h-84q2 38 -23 59.5t-73 21.5q-47 0 -76.5 -21t-30.5 -52
q-1 -21 11 -35.5t36 -24t59 -16.5q34 -7 63 -17t51 -25.5t33.5 -39t9.5 -57.5q-2 -52 -30.5 -90t-77 -58.5t-110.5 -20.5z" />
    <glyph glyph-name="Euro" unicode="&#x20ac;" horiz-adv-x="778" 
d="M21 240l11 62h432l-11 -62h-432zM48 393l11 63h432l-11 -63h-432zM394 -12q-91 0 -154 37.5t-94 105.5t-26 158q3 90 34.5 167.5t85.5 135t125 89t154 31.5q120 0 185.5 -57t68.5 -161h-94q-3 67 -45.5 105.5t-126.5 38.5q-62 0 -115.5 -25.5t-93.5 -72t-64 -109.5
t-27 -137q-4 -73 19 -124.5t69 -79.5t112 -28q83 0 138.5 38t82.5 103h94q-26 -67 -72.5 -115.5t-111 -74t-144.5 -25.5z" />
    <glyph glyph-name="uni20B9" unicode="&#x20b9;" horiz-adv-x="639" 
d="M253 -10q-100 0 -141 55.5t-24 154.5l25 142q96 0 154.5 6.5t90.5 26t48 58.5t28 104l22 127h79l-23 -127q-12 -72 -34.5 -121t-60 -78.5t-95 -42t-141.5 -12.5l-14 -86q-12 -64 9.5 -102.5t87.5 -38.5q63 0 97.5 36t45.5 99h79q-19 -99 -79.5 -150t-153.5 -51zM90 464
l11 60h542l-11 -60h-542zM121 639l12 61h541l-11 -61h-542z" />
    <glyph glyph-name="uni20BA" unicode="&#x20ba;" horiz-adv-x="815" 
d="M314 -16q-37 0 -77.5 5t-82.5 15l123 698h86l-111 -632q20 -4 38.5 -6t37.5 -2q74 0 130.5 23.5t98 68.5t68 111t41.5 150h87q-25 -142 -80 -238t-143 -144.5t-216 -48.5zM26 206l10 60l449 106l-10 -60zM53 371l10 58l454 110l-11 -59z" />
    <glyph glyph-name="uni20BD" unicode="&#x20bd;" horiz-adv-x="625" 
d="M19 126l11 68h87l18 100h-87l12 69h87l60 337h220q74 0 120 -23t67 -64t19 -96q-3 -66 -38 -116t-97 -78.5t-143 -28.5h-137l-17 -100h223l-12 -68h-223l-22 -126h-84l22 126h-86zM231 363h135q86 0 131.5 41t48.5 110q3 58 -28 89t-105 31h-135z" />
    <glyph glyph-name="uni2113" unicode="&#x2113;" horiz-adv-x="235" 
d="M13 -100l146 820h84l-146 -820h-84z" />
    <glyph glyph-name="trademark" unicode="&#x2122;" horiz-adv-x="772" 
d="M97 647l9 53h245l-9 -53h-89l-53 -299h-67l54 299h-90zM343 348l62 352h85l65 -274l166 274h80l-62 -352h-62l46 261l-160 -261h-48l-65 264l-47 -264h-60z" />
    <glyph glyph-name="uni2126" unicode="&#x2126;" horiz-adv-x="793" 
d="M16 0l12 66h196l-19 -17q-45 18 -78 58.5t-50.5 92.5t-17.5 106q0 86 33 160t91.5 129t134.5 86t162 31q65 0 119 -20.5t94 -58.5t61.5 -90.5t21.5 -117.5q0 -82 -31.5 -158t-88.5 -133.5t-135 -84.5l-11 17h196l-13 -66h-275l13 69q58 14 105.5 47t82 79.5t53 102.5
t18.5 114q0 51 -16 92.5t-46 71t-70.5 45t-90.5 15.5q-70 0 -129 -25.5t-102.5 -70.5t-67.5 -105t-24 -128q0 -57 20 -107t56 -84t84 -47l-12 -69h-276z" />
    <glyph glyph-name="estimated" unicode="&#x212e;" horiz-adv-x="764" 
d="M345 -7q-105 0 -175 43t-98.5 119t-9.5 175q14 77 47.5 144t85 117.5t118.5 79t147 28.5q73 0 130 -23.5t94.5 -66.5t51.5 -102.5t1 -131.5l-11 -61h-536l-31 -177q32 -43 78 -65t118 -22q51 0 96.5 15.5t90.5 44.5t92 69l32 -42q-73 -67 -154 -105.5t-167 -38.5z
M200 376h401l31 177q-24 43 -70 66t-112 23q-63 0 -119.5 -24t-101.5 -76z" />
    <glyph glyph-name="arrowleft" unicode="&#x2190;" horiz-adv-x="751" 
d="M740 302h-576l290 -273l-54 -55l-360 347v44l360 346l53 -54l-292 -276h579v-79z" />
    <glyph glyph-name="arrowup" unicode="&#x2191;" horiz-adv-x="817" 
d="M36 340l366 360h45l366 -360l-54 -54l-293 291v-577h-82v579l-294 -292z" />
    <glyph glyph-name="arrowright" unicode="&#x2192;" horiz-adv-x="750" 
d="M43 302v79h579l-292 276l53 54l360 -346v-44l-360 -347l-54 55l290 273h-576z" />
    <glyph glyph-name="arrowdown" unicode="&#x2193;" horiz-adv-x="817" 
d="M39 360l54 53l294 -292v579h82v-577l293 291l54 -54l-366 -360h-45z" />
    <glyph glyph-name="arrowboth" unicode="&#x2194;" horiz-adv-x="967" 
d="M40 321v44l337 346l57 -50l-277 -281h685l-277 281l57 50l337 -346v-44l-337 -347l-57 50l275 280h-681l275 -280l-57 -50z" />
    <glyph glyph-name="arrowupdn" unicode="&#x2195;" horiz-adv-x="836" 
d="M57 241l47 56l291 -193v492l-291 -193l-47 56l356 241h45l357 -241l-47 -56l-291 193v-492l291 193l47 -56l-357 -241h-45z" />
    <glyph glyph-name="uni2196" unicode="&#x2196;" horiz-adv-x="663" 
d="M563 61l-411 411v-416h-75v519l32 31h517v-75h-422l415 -414z" />
    <glyph glyph-name="uni2197" unicode="&#x2197;" horiz-adv-x="686" 
d="M148 73l-56 56l415 414h-422v75h517l32 -31v-519h-75v416z" />
    <glyph glyph-name="uni2198" unicode="&#x2198;" horiz-adv-x="663" 
d="M129 611l411 -411v416h75v-519l-32 -31h-517v75h422l-415 414z" />
    <glyph glyph-name="uni2199" unicode="&#x2199;" horiz-adv-x="686" 
d="M570 611l56 -56l-415 -414h422v-75h-517l-32 31v519h75v-416z" />
    <glyph glyph-name="partialdiff" unicode="&#x2202;" horiz-adv-x="566" 
d="M188 -10q-53 0 -93 25t-57.5 76t-3.5 130q12 66 41.5 126.5t73.5 107.5t97.5 74.5t112.5 27.5q32 0 58 -10t42 -34.5t19 -68.5q11 70 5 125.5t-35.5 87.5t-89.5 32q-19 0 -39 -3.5t-43 -9.5l9 50q27 8 50.5 11t46.5 3q74 0 119 -37.5t59.5 -110.5t-4.5 -179
q-17 -98 -53 -176t-85.5 -133.5t-108 -84.5t-121.5 -29zM209 62q42 0 80.5 21.5t70 58t53.5 84.5t31 100q14 82 -11.5 121t-81.5 39q-41 0 -78.5 -20t-68.5 -56.5t-53 -84.5t-32 -104q-10 -55 -0.5 -90t33.5 -52t57 -17z" />
    <glyph glyph-name="uni2206" unicode="&#x2206;" horiz-adv-x="696" 
d="M-14 0l12 65l393 635h70l172 -635l-12 -65h-635zM83 65h465l-140 539z" />
    <glyph glyph-name="product" unicode="&#x220f;" horiz-adv-x="726" 
d="M73 0l111 634h-80l13 66h651l-12 -66h-80l-111 -634h-84l112 634h-325l-111 -634h-84z" />
    <glyph glyph-name="summation" unicode="&#x2211;" horiz-adv-x="450" 
d="M-11 -49l17 96l315 285l-217 272l17 96h390l-12 -65h-321l220 -275l-11 -65l-316 -279h319l-12 -65h-389z" />
    <glyph glyph-name="minus" unicode="&#x2212;" horiz-adv-x="550" 
d="M78 255l12 71h396l-12 -71h-396z" />
    <glyph glyph-name="uni2215" unicode="&#x2215;" horiz-adv-x="391" 
d="M-32 -95l402 859h83l-403 -859h-82z" />
    <glyph glyph-name="radical" unicode="&#x221a;" horiz-adv-x="713" 
d="M5 179l150 79l78 -200l573 807h60l-647 -909h-41l-84 215l-70 -36z" />
    <glyph glyph-name="infinity" unicode="&#x221e;" horiz-adv-x="698" 
d="M166 141q-56 0 -91 34t-32 95q2 49 25.5 85.5t62 57.5t84.5 21q43 0 72 -17t49 -43.5t36 -56t33 -56t39.5 -43.5t54.5 -17q41 0 69.5 26.5t30.5 68.5q2 37 -17 57t-54 20q-43 0 -84.5 -32.5t-70.5 -82.5l-35 29q19 37 49 70.5t69.5 55t86.5 21.5q58 0 93.5 -34t32.5 -94
q-2 -48 -27 -85t-64 -58.5t-86 -21.5q-43 0 -72.5 17t-50 43.5t-37.5 56t-33.5 56t-38 43.5t-51.5 17q-40 0 -67.5 -28t-28.5 -68q-2 -37 19 -56.5t54 -19.5q44 0 84 33t68 82l34 -29q-18 -36 -48 -70t-70 -55.5t-88 -21.5z" />
    <glyph glyph-name="integral" unicode="&#x222b;" horiz-adv-x="258" 
d="M-116 -191l20 70h21q28 0 42.5 14.5t24.5 52.5l240 836q14 48 37 77.5t56 42.5t75 13h23l-20 -71h-19q-25 0 -41 -13t-27 -49l-240 -836q-13 -48 -36 -78.5t-55.5 -44.5t-76.5 -14h-24z" />
    <glyph glyph-name="approxequal" unicode="&#x2248;" horiz-adv-x="550" 
d="M332 112q-28 0 -48.5 10t-36.5 23.5t-33 23.5t-39 10q-26 0 -47 -18.5t-31 -47.5h-64q16 48 40.5 79.5t54.5 47t65 15.5q29 0 49.5 -10.5t37 -23.5t33 -23t38.5 -10q27 0 47.5 18t30.5 48h64q-16 -48 -40 -79.5t-55 -47t-66 -15.5zM368 319q-28 0 -48.5 10t-36.5 23.5
t-33 23.5t-39 10q-26 0 -47 -18.5t-31 -47.5h-64q16 48 40.5 79.5t54.5 47t65 15.5q29 0 49.5 -10.5t37 -23.5t33 -23t38.5 -10q27 0 47.5 18t30.5 48h64q-16 -48 -40 -79.5t-55 -47t-66 -15.5z" />
    <glyph glyph-name="notequal" unicode="&#x2260;" horiz-adv-x="550" 
d="M87 85l291 413h76l-292 -413h-75zM96 359l12 72h398l-12 -72h-398zM59 151l12 72h399l-13 -72h-398z" />
    <glyph glyph-name="lessequal" unicode="&#x2264;" horiz-adv-x="550" 
d="M335 213l-212 192v0l280 193h109l-278 -192l210 -193h-109zM77 89l10 64h350l-12 -64h-348z" />
    <glyph glyph-name="greaterequal" unicode="&#x2265;" horiz-adv-x="550" 
d="M98 213l277 193l-209 192h109l212 -193v0l-280 -192h-109zM62 89l11 64h349l-11 -64h-349z" />
    <glyph glyph-name="lozenge" unicode="&#x25ca;" horiz-adv-x="553" 
d="M251 110l-197 240l283 239l196 -239zM266 196l181 154l-125 153l-181 -154z" />
    <glyph glyph-name="Q.ss06" horiz-adv-x="783" 
d="M564 -135l-147 174l83 27l174 -201h-110zM345 -12q-89 0 -154.5 40.5t-100 111.5t-29.5 162q4 87 37 161.5t89.5 130t129 87t154.5 31.5q90 0 155 -40t99.5 -110.5t29.5 -162.5q-4 -87 -37 -161.5t-89 -130.5t-128.5 -87.5t-155.5 -31.5zM357 62q63 0 118 25t97 70
t67.5 106t28.5 133q4 75 -21 129t-73.5 83t-114.5 29q-63 0 -118 -24.5t-97.5 -69.5t-67.5 -105.5t-28 -131.5q-4 -75 21 -130t74 -84.5t114 -29.5z" />
    <glyph glyph-name="i.loclTRK" horiz-adv-x="224" 
d="M26 0l88 504h84l-88 -504h-84zM176 570q-20 0 -34.5 15t-14.5 35t14.5 35t34.5 15q21 0 35.5 -15t14.5 -35t-14.5 -35t-35.5 -15z" />
    <glyph glyph-name="a.ss02" horiz-adv-x="622" 
d="M247 -12q-66 0 -112 31t-68.5 84.5t-19.5 117.5q3 65 25.5 118.5t61 93t89 61.5t107.5 22q65 0 107 -26t61 -69l22 83h77l-89 -504h-77l7 82v0q-19 -24 -46 -45.5t-63 -35t-82 -13.5zM271 61q55 0 98.5 29.5t70 80t28.5 113.5q3 49 -12.5 84t-47 55t-76.5 20
q-54 0 -98 -27.5t-70.5 -76.5t-29.5 -112q-3 -48 13 -86t48 -59t76 -21z" />
    <glyph glyph-name="aacute.ss02" horiz-adv-x="622" 
d="M247 -12q-66 0 -112 31t-68.5 84.5t-19.5 117.5q3 65 25.5 118.5t61 93t89 61.5t107.5 22q65 0 107 -26t61 -69l22 83h77l-89 -504h-77l7 82v0q-19 -24 -46 -45.5t-63 -35t-82 -13.5zM271 61q55 0 98.5 29.5t70 80t28.5 113.5q3 49 -12.5 84t-47 55t-76.5 20
q-54 0 -98 -27.5t-70.5 -76.5t-29.5 -112q-3 -48 13 -86t48 -59t76 -21zM267 545l-4 61l213 127v0l5 -72z" />
    <glyph glyph-name="abreve.ss02" horiz-adv-x="622" 
d="M247 -12q-66 0 -112 31t-68.5 84.5t-19.5 117.5q3 65 25.5 118.5t61 93t89 61.5t107.5 22q65 0 107 -26t61 -69l22 83h77l-89 -504h-77l7 82v0q-19 -24 -46 -45.5t-63 -35t-82 -13.5zM271 61q55 0 98.5 29.5t70 80t28.5 113.5q3 49 -12.5 84t-47 55t-76.5 20
q-54 0 -98 -27.5t-70.5 -76.5t-29.5 -112q-3 -48 13 -86t48 -59t76 -21zM360 566q-46 0 -73.5 17.5t-38 47t-4.5 65.5l2 14h50q-7 -37 10.5 -57.5t65.5 -20.5q47 0 72 20.5t32 57.5h51l-3 -15q-7 -36 -28.5 -65t-55 -46.5t-80.5 -17.5z" />
    <glyph glyph-name="acircumflex.ss02" horiz-adv-x="622" 
d="M247 -12q-66 0 -112 31t-68.5 84.5t-19.5 117.5q3 65 25.5 118.5t61 93t89 61.5t107.5 22q65 0 107 -26t61 -69l22 83h77l-89 -504h-77l7 82v0q-19 -24 -46 -45.5t-63 -35t-82 -13.5zM271 61q55 0 98.5 29.5t70 80t28.5 113.5q3 49 -12.5 84t-47 55t-76.5 20
q-54 0 -98 -27.5t-70.5 -76.5t-29.5 -112q-3 -48 13 -86t48 -59t76 -21zM222 559l12 65l152 82l122 -82l-12 -65l-122 84z" />
    <glyph glyph-name="adieresis.ss02" horiz-adv-x="622" 
d="M247 -12q-66 0 -112 31t-68.5 84.5t-19.5 117.5q3 65 25.5 118.5t61 93t89 61.5t107.5 22q65 0 107 -26t61 -69l22 83h77l-89 -504h-77l7 82v0q-19 -24 -46 -45.5t-63 -35t-82 -13.5zM271 61q55 0 98.5 29.5t70 80t28.5 113.5q3 49 -12.5 84t-47 55t-76.5 20
q-54 0 -98 -27.5t-70.5 -76.5t-29.5 -112q-3 -48 13 -86t48 -59t76 -21zM291 576q-21 0 -35.5 14.5t-14.5 35.5q0 20 14.5 35t35.5 15t35.5 -15t14.5 -35q0 -21 -14.5 -35.5t-35.5 -14.5zM452 576q-22 0 -36 14.5t-14 35.5q0 20 14 35t36 15q20 0 34.5 -15t14.5 -35
q0 -21 -14.5 -35.5t-34.5 -14.5z" />
    <glyph glyph-name="agrave.ss02" horiz-adv-x="622" 
d="M247 -12q-66 0 -112 31t-68.5 84.5t-19.5 117.5q3 65 25.5 118.5t61 93t89 61.5t107.5 22q65 0 107 -26t61 -69l22 83h77l-89 -504h-77l7 82v0q-19 -24 -46 -45.5t-63 -35t-82 -13.5zM271 61q55 0 98.5 29.5t70 80t28.5 113.5q3 49 -12.5 84t-47 55t-76.5 20
q-54 0 -98 -27.5t-70.5 -76.5t-29.5 -112q-3 -48 13 -86t48 -59t76 -21zM455 545l-183 116l24 72v0l179 -127z" />
    <glyph glyph-name="amacron.ss02" horiz-adv-x="622" 
d="M247 -12q-66 0 -112 31t-68.5 84.5t-19.5 117.5q3 65 25.5 118.5t61 93t89 61.5t107.5 22q65 0 107 -26t61 -69l22 83h77l-89 -504h-77l7 82v0q-19 -24 -46 -45.5t-63 -35t-82 -13.5zM271 61q55 0 98.5 29.5t70 80t28.5 113.5q3 49 -12.5 84t-47 55t-76.5 20
q-54 0 -98 -27.5t-70.5 -76.5t-29.5 -112q-3 -48 13 -86t48 -59t76 -21zM192 598l12 63h347l-10 -63h-349z" />
    <glyph glyph-name="aogonek.ss02" horiz-adv-x="622" 
d="M247 -12q-66 0 -112 31t-68.5 84.5t-19.5 117.5q3 65 25.5 118.5t61 93t89 61.5t107.5 22q65 0 107 -26t61 -69l22 83h77l-89 -504h-77l7 82v0q-19 -24 -46 -45.5t-63 -35t-82 -13.5zM271 61q55 0 98.5 29.5t70 80t28.5 113.5q3 49 -12.5 84t-47 55t-76.5 20
q-54 0 -98 -27.5t-70.5 -76.5t-29.5 -112q-3 -48 13 -86t48 -59t76 -21zM400 -203q-31 0 -56 9.5t-38 30.5t-7 55q4 24 19 46t44 43t75 39l57 23l14 -43l-63 -28q-38 -17 -55.5 -35t-21.5 -37q-4 -23 10.5 -36t41.5 -13q14 0 31.5 4t35.5 11l-9 -56q-18 -6 -38 -9.5
t-40 -3.5z" />
    <glyph glyph-name="aring.ss02" horiz-adv-x="622" 
d="M247 -12q-66 0 -112 31t-68.5 84.5t-19.5 117.5q3 65 25.5 118.5t61 93t89 61.5t107.5 22q65 0 107 -26t61 -69l22 83h77l-89 -504h-77l7 82v0q-19 -24 -46 -45.5t-63 -35t-82 -13.5zM271 61q55 0 98.5 29.5t70 80t28.5 113.5q3 49 -12.5 84t-47 55t-76.5 20
q-54 0 -98 -27.5t-70.5 -76.5t-29.5 -112q-3 -48 13 -86t48 -59t76 -21zM379 566q-43 0 -74 27.5t-31 75.5t31 75.5t74 27.5q44 0 74.5 -27.5t30.5 -75.5t-30.5 -75.5t-74.5 -27.5zM379 609q24 0 40.5 16.5t16.5 43.5q0 28 -16.5 43.5t-40.5 15.5q-23 0 -40 -15.5t-17 -43.5
q0 -27 17 -43.5t40 -16.5z" />
    <glyph glyph-name="atilde.ss02" horiz-adv-x="622" 
d="M247 -12q-66 0 -112 31t-68.5 84.5t-19.5 117.5q3 65 25.5 118.5t61 93t89 61.5t107.5 22q65 0 107 -26t61 -69l22 83h77l-89 -504h-77l7 82v0q-19 -24 -46 -45.5t-63 -35t-82 -13.5zM271 61q55 0 98.5 29.5t70 80t28.5 113.5q3 49 -12.5 84t-47 55t-76.5 20
q-54 0 -98 -27.5t-70.5 -76.5t-29.5 -112q-3 -48 13 -86t48 -59t76 -21zM209 565q16 50 46 75.5t67 25.5q27 0 42.5 -11.5t29 -23.5t35.5 -12q16 0 30 11.5t21 33.5h49q-15 -49 -45.5 -75t-68.5 -26q-27 0 -43 12t-29.5 23.5t-34.5 11.5q-17 0 -29.5 -11t-20.5 -34h-49z" />
    <glyph glyph-name="ae.ss02" horiz-adv-x="989" 
d="M247 -12q-66 0 -112 31t-68.5 84.5t-19.5 117.5q3 65 25.5 118.5t61 93t89 61.5t107.5 22q62 0 102.5 -24t61.5 -64l20 76h72l-10 -53q38 31 84 48t98 17q68 0 112.5 -28t65.5 -74.5t18 -102.5q-1 -17 -4.5 -38.5t-7.5 -39.5h-393q-7 -53 7 -92t45.5 -60.5t76.5 -21.5
q53 0 91.5 24t60.5 64h83q-21 -46 -56.5 -81.5t-84 -56.5t-107.5 -21q-50 0 -91 18.5t-67 52.5l-10 -59h-72l9 79v0q-19 -24 -45.5 -44.5t-61.5 -33.5t-80 -13zM271 61q55 0 98.5 29.5t70 80t28.5 113.5q3 49 -12.5 84t-47 55t-76.5 20q-54 0 -98 -27.5t-70.5 -76.5
t-29.5 -112q-3 -48 13 -86t48 -59t76 -21zM561 298h310q7 47 -8 79.5t-45 50t-72 17.5q-40 0 -77.5 -16.5t-65.5 -49.5t-42 -81z" />
    <glyph glyph-name="aeacute.ss02" horiz-adv-x="989" 
d="M247 -12q-66 0 -112 31t-68.5 84.5t-19.5 117.5q3 65 25.5 118.5t61 93t89 61.5t107.5 22q62 0 102.5 -24t61.5 -64l20 76h72l-10 -53q38 31 84 48t98 17q68 0 112.5 -28t65.5 -74.5t18 -102.5q-1 -17 -4.5 -38.5t-7.5 -39.5h-393q-7 -53 7 -92t45.5 -60.5t76.5 -21.5
q53 0 91.5 24t60.5 64h83q-21 -46 -56.5 -81.5t-84 -56.5t-107.5 -21q-50 0 -91 18.5t-67 52.5l-10 -59h-72l9 79v0q-19 -24 -45.5 -44.5t-61.5 -33.5t-80 -13zM271 61q55 0 98.5 29.5t70 80t28.5 113.5q3 49 -12.5 84t-47 55t-76.5 20q-54 0 -98 -27.5t-70.5 -76.5
t-29.5 -112q-3 -48 13 -86t48 -59t76 -21zM561 298h310q7 47 -8 79.5t-45 50t-72 17.5q-40 0 -77.5 -16.5t-65.5 -49.5t-42 -81zM460 545l-4 61l213 127v0l5 -72z" />
    <glyph glyph-name="g.ss03" horiz-adv-x="643" 
d="M236 -232q-48 0 -89 12.5t-71 37t-46 59t-16 79.5h83q3 -35 22.5 -61t51.5 -40t75 -14q49 0 91 20.5t72 62.5t41 104l12 72q-20 -28 -50.5 -52.5t-70.5 -39.5t-89 -15q-63 0 -111 29.5t-73 81.5t-21 118q2 62 26 115t63.5 93.5t92 63t112.5 22.5q65 0 112 -29.5t65 -71.5
v0l29 89h71l-85 -481q-10 -60 -36.5 -107.5t-66 -80t-88.5 -50t-106 -17.5zM278 66q57 0 104 29t75.5 79t31.5 110q3 49 -15.5 84.5t-53 55t-80.5 19.5q-58 0 -103.5 -29t-72.5 -77.5t-30 -109.5q-2 -48 15.5 -84.5t50.5 -56.5t78 -20z" />
    <glyph glyph-name="gbreve.ss03" horiz-adv-x="643" 
d="M236 -232q-48 0 -89 12.5t-71 37t-46 59t-16 79.5h83q3 -35 22.5 -61t51.5 -40t75 -14q49 0 91 20.5t72 62.5t41 104l12 72q-20 -28 -50.5 -52.5t-70.5 -39.5t-89 -15q-63 0 -111 29.5t-73 81.5t-21 118q2 62 26 115t63.5 93.5t92 63t112.5 22.5q65 0 112 -29.5t65 -71.5
v0l29 89h71l-85 -481q-10 -60 -36.5 -107.5t-66 -80t-88.5 -50t-106 -17.5zM278 66q57 0 104 29t75.5 79t31.5 110q3 49 -15.5 84.5t-53 55t-80.5 19.5q-58 0 -103.5 -29t-72.5 -77.5t-30 -109.5q-2 -48 15.5 -84.5t50.5 -56.5t78 -20zM355 566q-46 0 -73.5 17.5t-38 47
t-4.5 65.5l2 14h50q-7 -37 10.5 -57.5t65.5 -20.5q47 0 72 20.5t32 57.5h51l-3 -15q-7 -36 -28.5 -65t-55 -46.5t-80.5 -17.5z" />
    <glyph glyph-name="uni0123.ss03" horiz-adv-x="643" 
d="M236 -232q-48 0 -89 12.5t-71 37t-46 59t-16 79.5h83q3 -35 22.5 -61t51.5 -40t75 -14q49 0 91 20.5t72 62.5t41 104l12 72q-20 -28 -50.5 -52.5t-70.5 -39.5t-89 -15q-63 0 -111 29.5t-73 81.5t-21 118q2 62 26 115t63.5 93.5t92 63t112.5 22.5q65 0 112 -29.5t65 -71.5
v0l29 89h71l-85 -481q-10 -60 -36.5 -107.5t-66 -80t-88.5 -50t-106 -17.5zM278 66q57 0 104 29t75.5 79t31.5 110q3 49 -15.5 84.5t-53 55t-80.5 19.5q-58 0 -103.5 -29t-72.5 -77.5t-30 -109.5q-2 -48 15.5 -84.5t50.5 -56.5t78 -20zM437 748l-7 -40q-25 0 -38 -9.5
t-17 -28.5l-3 -21h48l-15 -83h-88q-1 26 -0.5 45.5t4.5 38.5q9 52 39 75t77 23z" />
    <glyph glyph-name="gdotaccent.ss03" horiz-adv-x="643" 
d="M236 -232q-48 0 -89 12.5t-71 37t-46 59t-16 79.5h83q3 -35 22.5 -61t51.5 -40t75 -14q49 0 91 20.5t72 62.5t41 104l12 72q-20 -28 -50.5 -52.5t-70.5 -39.5t-89 -15q-63 0 -111 29.5t-73 81.5t-21 118q2 62 26 115t63.5 93.5t92 63t112.5 22.5q65 0 112 -29.5t65 -71.5
v0l29 89h71l-85 -481q-10 -60 -36.5 -107.5t-66 -80t-88.5 -50t-106 -17.5zM278 66q57 0 104 29t75.5 79t31.5 110q3 49 -15.5 84.5t-53 55t-80.5 19.5q-58 0 -103.5 -29t-72.5 -77.5t-30 -109.5q-2 -48 15.5 -84.5t50.5 -56.5t78 -20zM365 570q-20 0 -34.5 15t-14.5 35
t14.5 35t34.5 15q21 0 35.5 -15t14.5 -35t-14.5 -35t-35.5 -15z" />
    <glyph glyph-name="u.ss04" horiz-adv-x="562" 
d="M235 -12q-104 0 -152 56.5t-28 170.5l51 289h84l-50 -283q-10 -53 -3 -89t34 -54t77 -18q46 0 79 18t54.5 54t30.5 89l50 283h84l-51 -289q-20 -114 -87.5 -170.5t-172.5 -56.5z" />
    <glyph glyph-name="uacute.ss04" horiz-adv-x="562" 
d="M235 -12q-104 0 -152 56.5t-28 170.5l51 289h84l-50 -283q-10 -53 -3 -89t34 -54t77 -18q46 0 79 18t54.5 54t30.5 89l50 283h84l-51 -289q-20 -114 -87.5 -170.5t-172.5 -56.5zM243 545l-4 61l213 127v0l5 -72z" />
    <glyph glyph-name="ubreve.ss04" horiz-adv-x="562" 
d="M235 -12q-104 0 -152 56.5t-28 170.5l51 289h84l-50 -283q-10 -53 -3 -89t34 -54t77 -18q46 0 79 18t54.5 54t30.5 89l50 283h84l-51 -289q-20 -114 -87.5 -170.5t-172.5 -56.5zM336 566q-46 0 -73.5 17.5t-38 47t-4.5 65.5l2 14h50q-7 -37 10.5 -57.5t65.5 -20.5
q47 0 72 20.5t32 57.5h51l-3 -15q-7 -36 -28.5 -65t-55 -46.5t-80.5 -17.5z" />
    <glyph glyph-name="ucircumflex.ss04" horiz-adv-x="562" 
d="M235 -12q-104 0 -152 56.5t-28 170.5l51 289h84l-50 -283q-10 -53 -3 -89t34 -54t77 -18q46 0 79 18t54.5 54t30.5 89l50 283h84l-51 -289q-20 -114 -87.5 -170.5t-172.5 -56.5zM198 559l12 65l152 82l122 -82l-12 -65l-122 84z" />
    <glyph glyph-name="udieresis.ss04" horiz-adv-x="562" 
d="M235 -12q-104 0 -152 56.5t-28 170.5l51 289h84l-50 -283q-10 -53 -3 -89t34 -54t77 -18q46 0 79 18t54.5 54t30.5 89l50 283h84l-51 -289q-20 -114 -87.5 -170.5t-172.5 -56.5zM267 576q-21 0 -35.5 14.5t-14.5 35.5q0 20 14.5 35t35.5 15t35.5 -15t14.5 -35
q0 -21 -14.5 -35.5t-35.5 -14.5zM428 576q-22 0 -36 14.5t-14 35.5q0 20 14 35t36 15q20 0 34.5 -15t14.5 -35q0 -21 -14.5 -35.5t-34.5 -14.5z" />
    <glyph glyph-name="ugrave.ss04" horiz-adv-x="562" 
d="M235 -12q-104 0 -152 56.5t-28 170.5l51 289h84l-50 -283q-10 -53 -3 -89t34 -54t77 -18q46 0 79 18t54.5 54t30.5 89l50 283h84l-51 -289q-20 -114 -87.5 -170.5t-172.5 -56.5zM430 545l-183 116l24 72v0l179 -127z" />
    <glyph glyph-name="uhungarumlaut.ss04" horiz-adv-x="562" 
d="M235 -12q-104 0 -152 56.5t-28 170.5l51 289h84l-50 -283q-10 -53 -3 -89t34 -54t77 -18q46 0 79 18t54.5 54t30.5 89l50 283h84l-51 -289q-20 -114 -87.5 -170.5t-172.5 -56.5zM333 556l103 149h73l-120 -149h-56zM187 556l92 149h73l-109 -149h-56z" />
    <glyph glyph-name="umacron.ss04" horiz-adv-x="562" 
d="M235 -12q-104 0 -152 56.5t-28 170.5l51 289h84l-50 -283q-10 -53 -3 -89t34 -54t77 -18q46 0 79 18t54.5 54t30.5 89l50 283h84l-51 -289q-20 -114 -87.5 -170.5t-172.5 -56.5zM167 598l12 63h347l-10 -63h-349z" />
    <glyph glyph-name="uogonek.ss04" horiz-adv-x="562" 
d="M235 -12q-104 0 -152 56.5t-28 170.5l51 289h84l-50 -283q-10 -53 -3 -89t34 -54t77 -18q46 0 79 18t54.5 54t30.5 89l50 283h84l-51 -289q-20 -114 -87.5 -170.5t-172.5 -56.5zM243 -193q-31 0 -56 9.5t-38 30.5t-7 55q4 24 19 46t44 43t75 39l57 23l14 -43l-63 -28
q-38 -17 -55.5 -35t-21.5 -37q-4 -23 10.5 -36t41.5 -13q14 0 31.5 4t35.5 11l-9 -56q-18 -6 -38 -9.5t-40 -3.5z" />
    <glyph glyph-name="uring.ss04" horiz-adv-x="562" 
d="M235 -12q-104 0 -152 56.5t-28 170.5l51 289h84l-50 -283q-10 -53 -3 -89t34 -54t77 -18q46 0 79 18t54.5 54t30.5 89l50 283h84l-51 -289q-20 -114 -87.5 -170.5t-172.5 -56.5zM355 566q-43 0 -74 27.5t-31 75.5t31 75.5t74 27.5q44 0 74.5 -27.5t30.5 -75.5
t-30.5 -75.5t-74.5 -27.5zM355 609q24 0 40.5 16.5t16.5 43.5q0 28 -16.5 43.5t-40.5 15.5q-23 0 -40 -15.5t-17 -43.5q0 -27 17 -43.5t40 -16.5z" />
    <glyph glyph-name="utilde.ss04" horiz-adv-x="562" 
d="M235 -12q-104 0 -152 56.5t-28 170.5l51 289h84l-50 -283q-10 -53 -3 -89t34 -54t77 -18q46 0 79 18t54.5 54t30.5 89l50 283h84l-51 -289q-20 -114 -87.5 -170.5t-172.5 -56.5zM185 565q16 50 46 75.5t67 25.5q27 0 42.5 -11.5t29 -23.5t35.5 -12q16 0 30 11.5t21 33.5
h49q-15 -49 -45.5 -75t-68.5 -26q-27 0 -43 12t-29.5 23.5t-34.5 11.5q-17 0 -29.5 -11t-20.5 -34h-49z" />
    <glyph glyph-name="y.ss05" horiz-adv-x="575" 
d="M194 -232q-45 0 -81 12t-60.5 34.5t-35.5 55t-7 74.5h82q-1 -35 12 -60t39.5 -38t63.5 -13q44 0 79 21t59.5 64.5t36.5 110.5l9 50v0q-31 -42 -79 -66.5t-107 -24.5q-57 0 -96 23.5t-54.5 71.5t-2.5 122l53 299h84l-51 -293q-10 -50 -2 -83.5t33 -50.5t67 -17t79.5 20.5
t65 58.5t36.5 92l48 273h84l-83 -475q-15 -84 -53 -142t-93.5 -88.5t-125.5 -30.5z" />
    <glyph glyph-name="yacute.ss05" horiz-adv-x="575" 
d="M194 -232q-45 0 -81 12t-60.5 34.5t-35.5 55t-7 74.5h82q-1 -35 12 -60t39.5 -38t63.5 -13q44 0 79 21t59.5 64.5t36.5 110.5l9 50v0q-31 -42 -79 -66.5t-107 -24.5q-57 0 -96 23.5t-54.5 71.5t-2.5 122l53 299h84l-51 -293q-10 -50 -2 -83.5t33 -50.5t67 -17t79.5 20.5
t65 58.5t36.5 92l48 273h84l-83 -475q-15 -84 -53 -142t-93.5 -88.5t-125.5 -30.5zM253 545l-4 61l213 127v0l5 -72z" />
    <glyph glyph-name="ycircumflex.ss05" horiz-adv-x="575" 
d="M194 -232q-45 0 -81 12t-60.5 34.5t-35.5 55t-7 74.5h82q-1 -35 12 -60t39.5 -38t63.5 -13q44 0 79 21t59.5 64.5t36.5 110.5l9 50v0q-31 -42 -79 -66.5t-107 -24.5q-57 0 -96 23.5t-54.5 71.5t-2.5 122l53 299h84l-51 -293q-10 -50 -2 -83.5t33 -50.5t67 -17t79.5 20.5
t65 58.5t36.5 92l48 273h84l-83 -475q-15 -84 -53 -142t-93.5 -88.5t-125.5 -30.5zM208 559l12 65l152 82l122 -82l-12 -65l-122 84z" />
    <glyph glyph-name="ydieresis.ss05" horiz-adv-x="575" 
d="M194 -232q-45 0 -81 12t-60.5 34.5t-35.5 55t-7 74.5h82q-1 -35 12 -60t39.5 -38t63.5 -13q44 0 79 21t59.5 64.5t36.5 110.5l9 50v0q-31 -42 -79 -66.5t-107 -24.5q-57 0 -96 23.5t-54.5 71.5t-2.5 122l53 299h84l-51 -293q-10 -50 -2 -83.5t33 -50.5t67 -17t79.5 20.5
t65 58.5t36.5 92l48 273h84l-83 -475q-15 -84 -53 -142t-93.5 -88.5t-125.5 -30.5zM277 576q-21 0 -35.5 14.5t-14.5 35.5q0 20 14.5 35t35.5 15t35.5 -15t14.5 -35q0 -21 -14.5 -35.5t-35.5 -14.5zM438 576q-22 0 -36 14.5t-14 35.5q0 20 14 35t36 15q20 0 34.5 -15
t14.5 -35q0 -21 -14.5 -35.5t-34.5 -14.5z" />
    <glyph glyph-name="ygrave.ss05" horiz-adv-x="575" 
d="M194 -232q-45 0 -81 12t-60.5 34.5t-35.5 55t-7 74.5h82q-1 -35 12 -60t39.5 -38t63.5 -13q44 0 79 21t59.5 64.5t36.5 110.5l9 50v0q-31 -42 -79 -66.5t-107 -24.5q-57 0 -96 23.5t-54.5 71.5t-2.5 122l53 299h84l-51 -293q-10 -50 -2 -83.5t33 -50.5t67 -17t79.5 20.5
t65 58.5t36.5 92l48 273h84l-83 -475q-15 -84 -53 -142t-93.5 -88.5t-125.5 -30.5zM440 545l-183 116l24 72v0l179 -127z" />
    <glyph glyph-name="uni1EF9.ss05" horiz-adv-x="575" 
d="M194 -232q-45 0 -81 12t-60.5 34.5t-35.5 55t-7 74.5h82q-1 -35 12 -60t39.5 -38t63.5 -13q44 0 79 21t59.5 64.5t36.5 110.5l9 50v0q-31 -42 -79 -66.5t-107 -24.5q-57 0 -96 23.5t-54.5 71.5t-2.5 122l53 299h84l-51 -293q-10 -50 -2 -83.5t33 -50.5t67 -17t79.5 20.5
t65 58.5t36.5 92l48 273h84l-83 -475q-15 -84 -53 -142t-93.5 -88.5t-125.5 -30.5zM195 565q16 50 46 75.5t67 25.5q27 0 42.5 -11.5t29 -23.5t35.5 -12q16 0 30 11.5t21 33.5h49q-15 -49 -45.5 -75t-68.5 -26q-27 0 -43 12t-29.5 23.5t-34.5 11.5q-17 0 -29.5 -11
t-20.5 -34h-49z" />
    <glyph glyph-name="one.ss07" horiz-adv-x="353" 
d="M98 0l107 606l-117 -25l10 58l152 61h57l-124 -700h-85zM16 70h275l-13 -70h-275z" />
    <glyph glyph-name="three.ss07" horiz-adv-x="590" 
d="M249 -5q-66 0 -107.5 19t-64 50.5t-29.5 69.5t-4 74h79q-5 -61 27.5 -102t110.5 -41q54 0 95 23t64.5 63.5t25.5 92.5q4 61 -30.5 94t-100.5 33h-104l10 58l272 226l29 -27h-364l13 72h411l-12 -62l-277 -230l-42 24h79q97 0 149 -49t47 -136q-3 -75 -39 -131.5
t-97.5 -88.5t-140.5 -32z" />
    <glyph glyph-name="four.ss07" horiz-adv-x="616" 
d="M337 0l29 165h-335l12 65l375 470h95l-376 -461h246l31 171l82 19l-34 -190h104l-13 -74h-104l-29 -165h-83z" />
    <glyph glyph-name="six.ss07" horiz-adv-x="595" 
d="M255 -4q-69 0 -117.5 27t-72.5 74t-21 107q1 40 12.5 76t28.5 67.5t36.5 57t35.5 44.5l220 259h99l-243 -281l2 22q17 9 35 14.5t37.5 8.5t38.5 3q64 0 109.5 -27.5t69 -74.5t20.5 -107q-3 -79 -42.5 -140t-104 -95.5t-143.5 -34.5zM268 73q54 0 97 23.5t68 65.5t28 98
q2 41 -13.5 74t-46.5 52.5t-76 19.5q-55 0 -98.5 -25.5t-69.5 -69t-28 -99.5q-4 -63 34 -101t105 -38z" />
    <glyph glyph-name="nine.ss07" horiz-adv-x="595" 
d="M154 0l243 282l-3 -23q-16 -8 -34.5 -14t-37.5 -9t-39 -3q-63 0 -108.5 27t-69 74.5t-20.5 107.5q4 79 43 140t103.5 95.5t142.5 34.5q70 0 118.5 -27.5t72.5 -75.5t21 -108q-1 -40 -12.5 -75.5t-29 -66.5t-36.5 -56t-35 -44l-220 -259h-99zM305 302q55 0 98.5 25.5
t69 70t28.5 99.5q3 63 -34.5 100.5t-105.5 37.5q-53 0 -96 -23.5t-68 -65.5t-28 -98q-3 -62 33 -104t103 -42z" />
    <glyph glyph-name="one.dnom" horiz-adv-x="204" 
d="M51 0l50 286l-70 -18l8 42l97 42h44l-62 -352h-67z" />
    <glyph glyph-name="two.dnom" horiz-adv-x="330" 
d="M-10 0l9 48l128 92q33 23 57 48.5t30 59.5q5 29 -8 44t-36 15q-26 0 -44 -15.5t-27 -43.5h-67q11 46 50 78t101 32q38 0 62.5 -14.5t35 -38.5t5.5 -54q-7 -41 -37 -71.5t-83 -65.5l-92 -60h181l-10 -54h-255z" />
    <glyph glyph-name="three.dnom" horiz-adv-x="329" 
d="M115 -5q-60 0 -90 27.5t-25 79.5h66q0 -21 6.5 -33.5t20 -17.5t30.5 -5q30 0 50 14.5t24 39.5q5 27 -11.5 41.5t-46.5 14.5h-46l8 41h45q29 0 50 14t25 41q5 25 -9.5 39.5t-42.5 14.5q-29 0 -47 -12.5t-28 -34.5h-63q12 42 51.5 70.5t100.5 28.5q55 0 86.5 -29t23.5 -73
q-5 -31 -26 -51t-52 -28l-1 -2q28 -9 43.5 -29.5t9.5 -53.5q-7 -40 -48 -68.5t-104 -28.5z" />
    <glyph glyph-name="four.dnom" horiz-adv-x="321" 
d="M148 0l12 66h-172l9 50l205 232h74l-41 -228h46l-9 -54h-46l-12 -66h-66zM67 120h107l28 156v0z" />
    <glyph glyph-name="one.numr" horiz-adv-x="204" 
d="M113 352l50 286l-70 -18l8 42l97 42h44l-62 -352h-67z" />
    <glyph glyph-name="two.numr" horiz-adv-x="330" 
d="M52 352l9 48l128 92q33 23 57 48.5t30 59.5q5 29 -8 44t-36 15q-26 0 -44 -15.5t-27 -43.5h-67q11 46 50 78t101 32q38 0 62.5 -14.5t35 -38.5t5.5 -54q-7 -41 -37 -71.5t-83 -65.5l-92 -60h181l-10 -54h-255z" />
    <glyph glyph-name="three.numr" horiz-adv-x="329" 
d="M177 347q-60 0 -90 27.5t-25 79.5h66q0 -21 6.5 -33.5t20 -17.5t30.5 -5q30 0 50 14.5t24 39.5q5 27 -11.5 41.5t-46.5 14.5h-46l8 41h45q29 0 50 14t25 41q5 25 -9.5 39.5t-42.5 14.5q-29 0 -47 -12.5t-28 -34.5h-63q12 42 51.5 70.5t100.5 28.5q55 0 86.5 -29t23.5 -73
q-5 -31 -26 -51t-52 -28l-1 -2q28 -9 43.5 -29.5t9.5 -53.5q-7 -40 -48 -68.5t-104 -28.5z" />
    <glyph glyph-name="four.numr" horiz-adv-x="321" 
d="M210 352l12 66h-172l9 50l205 232h74l-41 -228h46l-9 -54h-46l-12 -66h-66zM129 472h107l28 156v0z" />
    <glyph glyph-name="comma.ss01" horiz-adv-x="173" 
d="M-27 -98l7 39q26 0 39.5 13.5t17.5 40.5l4 23h-48l15 83h88q2 -25 0 -48t-5 -42q-10 -57 -40.5 -83t-77.5 -26z" />
    <glyph glyph-name="semicolon.ss01" horiz-adv-x="197" 
d="M130 402q-25 0 -41.5 16.5t-16.5 40.5t16.5 40.5t41.5 16.5t41 -16.5t16 -40.5t-16 -40.5t-41 -16.5zM-13 -98l7 39q26 0 39.5 13.5t17.5 40.5l4 23h-48l15 83h88q2 -25 0 -48t-5 -42q-10 -57 -40.5 -83t-77.5 -26z" />
    <glyph glyph-name="quotesinglbase.ss01" horiz-adv-x="173" 
d="M-26 -97l6 39q27 0 40 13.5t17 40.5l4 23h-48l15 83h88q2 -26 0 -48.5t-5 -41.5q-10 -57 -40 -83t-77 -26z" />
    <glyph glyph-name="quotedblbase.ss01" horiz-adv-x="302" 
d="M103 -97l6 39q27 0 40 13.5t17 40.5l4 23h-48l15 83h88q2 -26 0 -48.5t-5 -41.5q-10 -57 -40 -83t-77 -26zM-26 -97l6 39q27 0 40 13.5t17 40.5l4 23h-48l15 83h88q2 -26 0 -48.5t-5 -41.5q-10 -57 -40 -83t-77 -26z" />
    <glyph glyph-name="quotedblleft.ss01" horiz-adv-x="291" 
d="M215 738l-7 -39q-25 0 -38.5 -13.5t-17.5 -40.5l-4 -23h48l-15 -83h-88q-1 26 0.5 48.5t4.5 41.5q10 57 40 83t77 26zM344 738l-7 -39q-25 0 -38.5 -13.5t-17.5 -40.5l-4 -23h48l-15 -83h-88q-1 26 0.5 48.5t4.5 41.5q10 57 40 83t77 26z" />
    <glyph glyph-name="quotedblright.ss01" horiz-adv-x="291" 
d="M213 539l6 39q27 0 40 13.5t17 40.5l4 23h-48l15 83h88q2 -26 0 -48.5t-5 -41.5q-10 -57 -40 -83t-77 -26zM84 539l6 39q27 0 40 13.5t17 40.5l4 23h-48l15 83h88q2 -26 0 -48.5t-5 -41.5q-10 -57 -40 -83t-77 -26z" />
    <glyph glyph-name="quoteleft.ss01" horiz-adv-x="162" 
d="M215 738l-7 -39q-25 0 -38.5 -13.5t-17.5 -40.5l-4 -23h48l-15 -83h-88q-1 26 0.5 48.5t4.5 41.5q10 57 40 83t77 26z" />
    <glyph glyph-name="quoteright.ss01" horiz-adv-x="162" 
d="M84 539l6 39q27 0 40 13.5t17 40.5l4 23h-48l15 83h88q2 -26 0 -48.5t-5 -41.5q-10 -57 -40 -83t-77 -26z" />
    <glyph glyph-name="quotedblleft.ss08" horiz-adv-x="776" 
d="M405 -12q75 0 140.5 28t115.5 78t78 115.5t28 140.5t-28 140.5t-78 115.5t-115.5 78t-140.5 28t-140.5 -28t-115.5 -78t-78 -115.5t-28 -140.5t28 -140.5t78 -115.5t115.5 -78t140.5 -28zM402 479l-9 -50q-33 0 -51 -17.5t-22 -52.5l-6 -30h63l-20 -108h-114
q-2 33 0.5 62.5t5.5 54.5q13 74 52 107.5t101 33.5zM570 479l-9 -50q-33 0 -51 -17.5t-23 -52.5l-5 -30h63l-20 -108h-114q-2 33 0.5 62.5t5.5 54.5q13 74 52 107.5t101 33.5z" />
    <glyph glyph-name="quotedblright.ss08" horiz-adv-x="776" 
d="M405 712q-75 0 -140.5 -28t-115.5 -78t-78 -115.5t-28 -140.5t28 -140.5t78 -115.5t115.5 -78t140.5 -28t140.5 28t115.5 78t78 115.5t28 140.5t-28 140.5t-78 115.5t-115.5 78t-140.5 28zM409 221l8 51q33 0 51.5 17t22.5 52l6 30h-63l20 108h114q2 -33 0 -62.5
t-6 -54.5q-14 -74 -53 -107.5t-100 -33.5zM242 221l8 51q33 0 51 17t22 52l6 30h-63l20 108h114q2 -33 -0.5 -62.5t-5.5 -54.5q-13 -74 -52 -107.5t-100 -33.5z" />
    <glyph glyph-name="arrowup.ss08" horiz-adv-x="776" 
d="M405 -12q-75 0 -140.5 28t-115.5 78t-78 115.5t-28 140.5t28 140.5t78 115.5t115.5 78t140.5 28t140.5 -28t115.5 -77.5t78 -115t28 -141.5q0 -75 -28 -140.5t-78 -115.5t-115.5 -78t-140.5 -28zM370 171h71v258l125 -123l46 46l-182 180h-49l-182 -180l46 -46l125 123
v-258z" />
    <glyph glyph-name="uni2197.ss08" horiz-adv-x="776" 
d="M405 -12q-75 0 -140.5 28t-115.5 78t-78 115.5t-28 140.5t28 140.5t78 115.5t115.5 78t140.5 28t140.5 -28t115.5 -77.5t78 -115.5t28 -141t-28 -140.5t-78 -115.5t-115.5 -78t-140.5 -28zM302 203l187 185v-181h65v256l-35 35h-256v-64h180l-188 -186z" />
    <glyph glyph-name="arrowright.ss08" horiz-adv-x="776" 
d="M405 -12q-75 0 -140.5 28t-115.5 78t-78 115.5t-28 140.5t28 140.5t78 115.5t115.5 78t140.5 28t140.5 -28t115.5 -77.5t78 -115.5t28 -141t-28 -140.5t-78 -115.5t-115.5 -78t-140.5 -28zM405 145l182 181v50l-182 180l-46 -46l128 -126h-264v-67h264l-128 -125z" />
    <glyph glyph-name="uni2198.ss08" horiz-adv-x="776" 
d="M405 712q75 0 140.5 -28t115.5 -78t78 -115.5t28 -140.5t-28 -141t-78 -115.5t-115.5 -77.5t-140.5 -28t-140.5 28t-115.5 78t-78 115.5t-28 140.5t28 140.5t78 115.5t115.5 78t140.5 28zM302 497l-47 -45l188 -186h-180v-64h256l35 35v256h-65v-181z" />
    <glyph glyph-name="arrowdown.ss08" horiz-adv-x="776" 
d="M405 712q75 0 140.5 -28t115.5 -78t78 -115.5t28 -140.5q0 -76 -28 -141.5t-78 -115t-115.5 -77.5t-140.5 -28t-140.5 28t-115.5 78t-78 115.5t-28 140.5t28 140.5t78 115.5t115.5 78t140.5 28zM370 529v-258l-125 123l-46 -46l182 -180h49l182 180l-46 46l-125 -123v258
h-71z" />
    <glyph glyph-name="uni2199.ss08" horiz-adv-x="776" 
d="M405 712q75 0 140.5 -28t115.5 -78t78 -115.5t28 -140.5t-28 -140.5t-78 -115.5t-115.5 -78t-140.5 -28t-140.5 28t-115.5 77.5t-78 115.5t-28 141t28 140.5t78 115.5t115.5 78t140.5 28zM508 497l-187 -185v181h-65v-256l35 -35h256v64h-180l188 186z" />
    <glyph glyph-name="arrowleft.ss08" horiz-adv-x="776" 
d="M405 -12q-75 0 -140.5 28t-115.5 78t-78 115.5t-28 140.5t28 141t78 115.5t115.5 77.5t140.5 28t140.5 -28t115.5 -78t78 -115.5t28 -140.5t-28 -140.5t-78 -115.5t-115.5 -78t-140.5 -28zM405 145l46 47l-128 125h264v67h-264l128 126l-46 46l-182 -180v-50z" />
    <glyph glyph-name="uni2196.ss08" horiz-adv-x="776" 
d="M405 -12q-75 0 -140.5 28t-115.5 78t-78 115.5t-28 140.5t28 141t78 115.5t115.5 77.5t140.5 28t140.5 -28t115.5 -78t78 -115.5t28 -140.5t-28 -140.5t-78 -115.5t-115.5 -78t-140.5 -28zM508 203l47 45l-188 186h180v64h-256l-35 -35v-256h65v181z" />
    <glyph glyph-name="arrowboth.ss08" horiz-adv-x="776" 
d="M405 -12q-75 0 -140.5 28t-115.5 78t-78 115.5t-28 140.5t28 140.5t78 115.5t115.5 78t140.5 28t140.5 -28t115.5 -77.5t78 -115.5t28 -141t-28 -140.5t-78 -115.5t-115.5 -78t-140.5 -28zM322 164l51 40l-92 113h249l-92 -113l51 -40l128 161v50l-128 161l-51 -40
l92 -113h-249l92 113l-51 40l-129 -161v-50z" />
    <glyph glyph-name="arrowupdn.ss08" horiz-adv-x="776" 
d="M405 -12q-75 0 -140.5 28t-115.5 78t-78 115.5t-28 140.5t28 140.5t78 115.5t115.5 78t140.5 28t140.5 -28t115.5 -78t78 -115.5t28 -140.5t-28 -140.5t-77.5 -115.5t-115.5 -78t-141 -28zM381 139h49l163 128l-40 51l-114 -91v246l114 -91l40 51l-163 128h-49l-163 -128
l40 -51l114 91v-246l-114 91l-40 -51z" />
    <glyph glyph-name="uni030C.alt" 
d="M52 543l7 40q26 0 38.5 9.5t16.5 28.5l3 21h-48l15 83h88q1 -26 0.5 -45t-4.5 -39q-9 -52 -39 -75t-77 -23z" />
    <glyph glyph-name="uni0308.case" 
d="M152 775q-21 0 -35.5 14.5t-14.5 35.5q0 20 14.5 35t35.5 15t35.5 -15t14.5 -35q0 -21 -14.5 -35.5t-35.5 -14.5zM313 775q-22 0 -36 14.5t-14 35.5q0 20 14 35t36 15q20 0 34.5 -15t14.5 -35q0 -21 -14.5 -35.5t-34.5 -14.5z" />
    <glyph glyph-name="uni0307.case" 
d="M152 776q-20 0 -34.5 15t-14.5 35t14.5 35t34.5 15q21 0 35.5 -15t14.5 -35t-14.5 -35t-35.5 -15z" />
    <glyph glyph-name="gravecomb.case" 
d="M293 753l-183 116l24 72v0l179 -127z" />
    <glyph glyph-name="acutecomb.case" 
d="M103 753l-4 61l213 127v0l5 -72z" />
    <glyph glyph-name="uni030B.case" 
d="M236 760l103 149h73l-120 -149h-56zM90 760l92 149h73l-109 -149h-56z" />
    <glyph glyph-name="uni0302.case" 
d="M89 761l12 65l152 82l122 -82l-12 -65l-122 84z" />
    <glyph glyph-name="uni030C.case" 
d="M390 907l-12 -65l-151 -82l-123 82l12 65l122 -84z" />
    <glyph glyph-name="uni0306.case" 
d="M231 770q-46 0 -73.5 17.5t-38 47t-4.5 65.5l2 14h50q-7 -37 10.5 -57.5t65.5 -20.5q47 0 72 20.5t32 57.5h51l-3 -15q-7 -36 -28.5 -65t-55 -46.5t-80.5 -17.5z" />
    <glyph glyph-name="uni030A.case" 
d="M217 770q-43 0 -74 27.5t-31 75.5t31 75.5t74 27.5q44 0 74.5 -27.5t30.5 -75.5t-30.5 -75.5t-74.5 -27.5zM217 813q24 0 40.5 16.5t16.5 43.5q0 28 -16.5 43.5t-40.5 15.5q-23 0 -40 -15.5t-17 -43.5q0 -27 17 -43.5t40 -16.5z" />
    <glyph glyph-name="tildecomb.case" 
d="M91 769q16 50 46 75.5t67 25.5q27 0 42.5 -11.5t29 -23.5t35.5 -12q16 0 30 11.5t21 33.5h49q-15 -49 -45.5 -75t-68.5 -26q-27 0 -43 12t-29.5 23.5t-34.5 11.5q-17 0 -29.5 -11t-20.5 -34h-49z" />
    <glyph glyph-name="uni0304.case" 
d="M99 816l12 63h347l-10 -63h-349z" />
    <glyph glyph-name="uni0327.case" 
d="M-90 -259l9 53h92q38 0 56.5 13t19.5 38q1 22 -13 32t-46 10h-50l21 120h57l-13 -70q36 1 62 -8.5t39.5 -28.5t12.5 -50q-1 -32 -19.5 -56.5t-49 -38.5t-68.5 -14h-110z" />
    <glyph glyph-name="uni0328.case" 
d="M38 -203q-31 0 -56 9.5t-38 30.5t-7 55q4 24 19 46t44 43t75 39l57 23l14 -43l-63 -28q-38 -17 -55.5 -35t-21.5 -37q-4 -23 10.5 -36t41.5 -13q14 0 31.5 4t35.5 11l-9 -56q-18 -6 -38 -9.5t-40 -3.5z" />
    </font>
</defs>
</svg>
