<svg aria-hidden="true" style="position: absolute; width: 0; height: 0; overflow: hidden;" version="1.1" xmlns="http://www.w3.org/2000/svg" xmlns:xlink="http://www.w3.org/1999/xlink">
<defs>
<symbol id="icon-lock" viewBox="0 0 32 32">
<path stroke-width="2.6667" stroke-miterlimit="4" stroke-linecap="round" stroke-linejoin="round" d="M23.777 14.444v-4.667c0-4.295-3.482-7.777-7.777-7.777s-7.777 3.482-7.777 7.777v0 4.667M9.467 30h13.067c2.613 0 3.92 0 4.919-0.508 0.882-0.456 1.584-1.158 2.028-2.014l0.012-0.026c0.508-0.999 0.508-2.305 0.508-4.919v-0.623c0-2.613 0-3.92-0.508-4.919-0.456-0.882-1.158-1.584-2.014-2.028l-0.026-0.012c-0.999-0.507-2.305-0.507-4.919-0.507h-13.067c-2.613 0-3.92 0-4.919 0.507-0.882 0.456-1.584 1.158-2.028 2.014l-0.012 0.026c-0.508 1-0.508 2.307-0.508 4.92v0.621c0 2.613 0 3.92 0.508 4.919 0.456 0.882 1.158 1.584 2.014 2.028l0.026 0.012c0.999 0.508 2.305 0.508 4.919 0.508z"></path>
</symbol>
<symbol id="icon-mail" viewBox="0 0 38 32">
<path stroke-width="2.9091" stroke-miterlimit="4" stroke-linecap="round" stroke-linejoin="round" d="M35.030 26.182l-11.273-10.182M14.061 16l-11.273 10.182M1.939 7.516l13.856 9.699c1.121 0.785 1.683 1.178 2.294 1.329 0.538 0.135 1.103 0.135 1.641 0 0.611-0.151 1.172-0.544 2.294-1.329l13.856-9.699M10.084 29.575h17.649c2.851 0 4.276 0 5.366-0.554 0.963-0.498 1.728-1.263 2.212-2.197l0.013-0.028c0.553-1.088 0.553-2.515 0.553-5.366v-10.86c0-2.851 0-4.276-0.553-5.367-0.498-0.962-1.263-1.727-2.197-2.211l-0.028-0.013c-1.091-0.554-2.516-0.554-5.367-0.554h-17.647c-2.851 0-4.276 0-5.366 0.554-0.963 0.498-1.728 1.263-2.212 2.197l-0.013 0.028c-0.553 1.088-0.553 2.513-0.553 5.366v10.86c0 2.851 0 4.276 0.553 5.367 0.498 0.962 1.263 1.727 2.197 2.211l0.028 0.013c1.089 0.554 2.516 0.554 5.367 0.554z"></path>
</symbol>
<symbol id="icon-x-close" viewBox="0 0 32 32">
<path stroke-width="5.3333" stroke-miterlimit="4" stroke-linecap="round" stroke-linejoin="round" d="M28.444 3.556l-24.889 24.889M3.556 3.556l24.889 24.889"></path>
</symbol>
</defs>
</svg>
