<svg xmlns="http://www.w3.org/2000/svg" aria-hidden="true" style="position:absolute;width:0;height:0;overflow:hidden">
<defs>
<!-- Header -->
<symbol id="menu-open" viewBox="0 0 32 32">
<path d="M3.498 6.936c-0.218 0.065-0.503 0.358-0.566 0.582-0.032 0.145-0.050 0.312-0.050 0.482s0.018 0.337 0.053 0.498l-0.003-0.016c0.066 0.235 0.349 0.515 0.591 0.585 0.25 0.072 24.699 0.072 24.959 0 0.235-0.066 0.515-0.349 0.585-0.591 0.032-0.143 0.051-0.308 0.051-0.477s-0.018-0.333-0.053-0.492l0.003 0.015c-0.070-0.242-0.35-0.525-0.585-0.591-0.239-0.066-24.762-0.064-24.984 0.003zM3.498 12.269c-0.218 0.065-0.503 0.359-0.566 0.583-0.032 0.145-0.050 0.312-0.050 0.482s0.018 0.337 0.053 0.498l-0.003-0.016c0.066 0.235 0.349 0.515 0.591 0.585 0.25 0.072 19.367 0.071 19.625-0.001 0.235-0.065 0.517-0.349 0.585-0.59 0.032-0.143 0.051-0.308 0.051-0.477s-0.018-0.334-0.053-0.492l0.003 0.015c-0.069-0.241-0.35-0.525-0.585-0.59-0.238-0.066-19.429-0.064-19.65 0.002zM3.498 17.602c-0.218 0.065-0.503 0.359-0.566 0.582-0.032 0.145-0.050 0.312-0.050 0.482s0.018 0.337 0.053 0.498l-0.003-0.016c0.066 0.235 0.349 0.517 0.591 0.585 0.25 0.072 24.699 0.072 24.959 0 0.235-0.065 0.515-0.349 0.585-0.59 0.067-0.235 0.067-0.72 0-0.954-0.070-0.241-0.35-0.525-0.585-0.59-0.239-0.066-24.762-0.064-24.984 0.002zM3.498 22.936c-0.218 0.065-0.503 0.358-0.566 0.582-0.032 0.145-0.050 0.312-0.050 0.482s0.018 0.337 0.053 0.498l-0.003-0.016c0.066 0.235 0.349 0.515 0.591 0.585 0.25 0.072 19.367 0.071 19.625 0 0.235-0.066 0.517-0.349 0.585-0.591 0.032-0.143 0.051-0.308 0.051-0.477s-0.018-0.333-0.053-0.492l0.003 0.015c-0.069-0.242-0.35-0.525-0.585-0.591-0.238-0.066-19.429-0.063-19.65 0.003z"></path>
</symbol>
<symbol id="lock" viewBox="0 0 32 32">
<path stroke-linejoin="round" stroke-linecap="round" stroke-miterlimit="4" stroke-width="2.2857" d="M22.667 14.667v-4c0-3.682-2.985-6.667-6.667-6.667s-6.667 2.985-6.667 6.667v4M10.4 28h11.2c2.24 0 3.36 0 4.216-0.436 0.753-0.383 1.365-0.995 1.748-1.748 0.436-0.856 0.436-1.976 0.436-4.216v-0.533c0-2.24 0-3.36-0.436-4.216-0.383-0.753-0.995-1.365-1.748-1.748-0.856-0.436-1.976-0.436-4.216-0.436h-11.2c-2.24 0-3.36 0-4.216 0.436-0.753 0.384-1.365 0.995-1.748 1.748-0.436 0.856-0.436 1.976-0.436 4.216v0.533c0 2.24 0 3.36 0.436 4.216 0.383 0.753 0.995 1.365 1.748 1.748 0.856 0.436 1.976 0.436 4.216 0.436z"></path>
</symbol>
<symbol id="x-close" viewBox="0 0 32 32">
<path d="M7.626 6.245c-0.291 0.085-0.749 0.427-1.029 0.774-0.432 0.533-0.509 1.054-0.24 1.616 0.088 0.184 1.011 1.143 3.665 3.806l3.547 3.56-3.551 3.56c-3.907 3.918-3.806 3.799-3.805 4.44 0 0.449 0.157 0.77 0.586 1.199 0.429 0.43 0.75 0.586 1.199 0.586 0.634 0 0.526 0.093 4.44-3.808l3.56-3.547 3.56 3.547c3.914 3.901 3.806 3.808 4.44 3.808 0.449 0 0.77-0.157 1.199-0.586 0.43-0.429 0.586-0.75 0.586-1.199 0-0.634 0.093-0.526-3.808-4.44l-3.547-3.56 3.547-3.56c3.901-3.914 3.808-3.806 3.808-4.44 0-0.449-0.157-0.77-0.586-1.199-0.429-0.43-0.75-0.586-1.199-0.586-0.634 0-0.526-0.093-4.44 3.808l-3.56 3.547-3.56-3.547c-2.721-2.712-3.619-3.576-3.814-3.67-0.29-0.138-0.728-0.186-1-0.109z"></path>
</symbol>
<symbol id="arrow-right" viewBox="0 0 32 32">
<path fill="none" stroke="#eac645" style="stroke: var(--color1, #eac645)" stroke-linejoin="round" stroke-linecap="round" stroke-miterlimit="4" stroke-width="3.2" d="M5.333 16h21.333M26.667 16l-8-8M26.667 16l-8 8"></path>
</symbol>
<symbol id="log-down" viewBox="0 0 28 32">
<path fill="#fff" style="fill: var(--color1, #fff)" d="M5.898 12h16.513l-7.423 8.391c-0.221 0.25-0.521 0.39-0.834 0.39s-0.613-0.14-0.834-0.39l-7.422-8.391z"></path>
</symbol>
<symbol id="bag" viewBox="0 0 32 32">
<path d="M25.333 9.333h-4v-1.333c0-1.415-0.562-2.771-1.562-3.771s-2.357-1.562-3.771-1.562c-1.414 0-2.771 0.562-3.771 1.562s-1.562 2.357-1.562 3.771v1.333h-4c-0.354 0-0.693 0.14-0.943 0.391s-0.391 0.589-0.391 0.943v14.667c0 1.061 0.421 2.078 1.172 2.828s1.768 1.172 2.828 1.172h13.333c1.061 0 2.078-0.421 2.828-1.172s1.172-1.768 1.172-2.828v-14.667c0-0.354-0.14-0.693-0.391-0.943s-0.589-0.391-0.943-0.391zM13.333 8c0-0.707 0.281-1.386 0.781-1.886s1.178-0.781 1.886-0.781c0.707 0 1.385 0.281 1.886 0.781s0.781 1.178 0.781 1.886v1.333h-5.333v-1.333zM24 25.333c0 0.354-0.14 0.693-0.391 0.943s-0.589 0.391-0.943 0.391h-13.333c-0.354 0-0.693-0.14-0.943-0.391s-0.391-0.589-0.391-0.943v-13.333h2.667v1.333c0 0.354 0.14 0.693 0.391 0.943s0.589 0.391 0.943 0.391c0.354 0 0.693-0.14 0.943-0.391s0.391-0.589 0.391-0.943v-1.333h5.333v1.333c0 0.354 0.14 0.693 0.39 0.943s0.589 0.391 0.943 0.391 0.693-0.14 0.943-0.391c0.25-0.25 0.391-0.589 0.391-0.943v-1.333h2.667v13.333z"></path>
</symbol>
<symbol id="bookshelf" viewBox="0 0 178 32">
<path d="M22.176 8.533c0-4.731-3.497-7.406-9.545-7.406h-12.631v29.417h13.33c6.089 0 9.998-2.921 9.998-8.599 0-4.402-2.633-6.665-5.719-7.2v-0.082c2.427-0.823 4.567-2.51 4.567-6.13zM4.896 13.305v-8.023h7.858c2.921 0 4.526 1.44 4.526 4.032s-1.317 3.991-4.814 3.991h-7.57zM4.896 16.967h8.599c3.086 0 4.937 1.687 4.937 4.69 0 2.757-1.275 4.731-5.472 4.731h-8.064v-9.422z"></path>
<path d="M35.89 31.161c-6.583 0-10.574-4.567-10.574-11.109s3.991-11.109 10.574-11.109c6.583 0 10.574 4.567 10.574 11.109s-3.991 11.109-10.574 11.109zM35.89 27.623c4.114 0 6.254-3.25 6.254-7.57 0-4.361-2.139-7.57-6.254-7.57s-6.254 3.209-6.254 7.57c0 4.32 2.139 7.57 6.254 7.57z"></path>
<path d="M58.912 31.161c-6.583 0-10.574-4.567-10.574-11.109s3.991-11.109 10.574-11.109c6.583 0 10.574 4.567 10.574 11.109s-3.991 11.109-10.574 11.109zM58.912 27.623c4.114 0 6.254-3.25 6.254-7.57 0-4.361-2.139-7.57-6.254-7.57s-6.254 3.209-6.254 7.57c0 4.32 2.139 7.57 6.254 7.57z"></path>
<path d="M72.472 1.127v29.417h4.32v-7.611l2.921-2.757 6.624 10.368h5.184l-8.846-13.207 7.982-7.817h-5.307l-8.558 8.434v-16.827h-4.32z"></path>
<path d="M101.935 17.831c-3.045-0.699-5.39-0.864-5.39-3.003 0-1.481 1.399-2.469 3.991-2.469 3.374 0 4.197 1.687 4.485 3.333h4.197c-0.288-3.662-3.003-6.747-8.722-6.747-5.266 0-8.311 2.757-8.311 6.213 0 4.773 4.526 5.431 7.858 6.213 3.086 0.741 5.595 0.946 5.595 3.579 0 1.317-1.275 2.798-4.279 2.798-4.443 0-5.431-1.934-5.637-4.197h-4.197c0.206 4.443 3.127 7.611 9.915 7.611 5.102 0 8.558-2.51 8.558-6.542 0-5.019-4.197-5.883-8.064-6.789z"></path>
<path d="M124.123 8.944c-3.538 0-5.719 1.646-6.83 3.291h-0.082v-11.109h-4.32v29.417h4.32v-12.795c0-3.127 2.263-5.143 5.431-5.143 3.003 0 4.197 1.81 4.197 4.649v13.289h4.361v-14.523c0-4.814-3.086-7.077-7.077-7.077z"></path>
<path d="M144.448 27.623c-3.826 0-6.089-2.921-6.089-6.459h16.128c0-7.488-3.333-12.219-10.121-12.219-6.336 0-10.327 4.279-10.327 11.109 0 6.583 3.991 11.109 10.533 11.109 5.39 0 8.517-3.045 9.586-7.035h-4.32c-0.37 1.275-1.81 3.497-5.39 3.497zM144.366 12.359c3.497 0 5.801 2.345 5.801 5.595h-11.808c0-3.25 2.51-5.595 6.007-5.595z"></path>
<path d="M157.531 1.127v29.417h4.361v-29.417h-4.361z"></path>
<path d="M176.003 4.665v-3.538c-0.864-0.165-1.81-0.288-2.88-0.288-3.456 0-5.349 1.563-5.349 6.007v2.674h-3.003v3.538h3.003v17.486h4.361v-17.486h3.867v-3.538h-3.867v-2.304c0-2.386 1.070-2.674 3.867-2.551z"></path>
</symbol>
<symbol id="icon-logo" viewBox="0 0 32 32">
<path fill="#f6f6f6" style="fill: var(--color1, #f6f6f6)" d="M0 0l16.343 16.171 15.657 15.829v-32h-32z"></path>
<path fill="#f6f6f6" style="fill: var(--color1, #f6f6f6)" d="M4.457 4.229l11.943 11.829 11.257 11.486h-23.2v-23.314z"></path>
<path fill="#4f2ee8" style="fill: var(--color2, #4f2ee8)" d="M27.733 27.618l-11.943-11.829-11.257-11.486h23.2v23.314z"></path>
<path fill="#4f2ee8" style="fill: var(--color2, #4f2ee8)" d="M9.257 9.029l13.6 13.6h-13.6v-13.6z"></path>
<path fill="#f6f6f6" style="fill: var(--color1, #f6f6f6)" d="M9.257 9.029l13.6 13.6v-13.6h-13.6z"></path>
</symbol>
<!-- Srcoll up btn -->
<symbol id="scroll-up-btn" viewBox="0 0 32 32">
<path fill="#4f2ee8" style="fill: var(--color1, #4f2ee8)" opacity="0.3" d="M32 16c0 8.837-7.163 16-16 16s-16-7.163-16-16c0-8.837 7.163-16 16-16s16 7.163 16 16z"></path>
<path fill="#4f2ee8" style="fill: var(--color1, #4f2ee8)" d="M29.5 16c0 7.456-6.044 13.5-13.5 13.5s-13.5-6.044-13.5-13.5c0-7.456 6.044-13.5 13.5-13.5s13.5 6.044 13.5 13.5z"></path>
<path fill="#fff" style="fill: var(--color2, #fff)" d="M11.688 17.35l4.2-4.213c0.050-0.050 0.104-0.085 0.163-0.106 0.055-0.020 0.118-0.031 0.183-0.031 0.001 0 0.003 0 0.004 0h-0c0.067 0 0.129 0.011 0.188 0.031 0.064 0.024 0.118 0.060 0.162 0.106l4.213 4.213c0.116 0.116 0.175 0.262 0.175 0.438s-0.063 0.325-0.188 0.45c-0.11 0.116-0.264 0.188-0.436 0.188-0.001 0-0.001 0-0.002 0h0c-0.001 0-0.001 0-0.002 0-0.171 0-0.326-0.072-0.435-0.187l-0-0-3.675-3.675-3.675 3.675c-0.117 0.116-0.26 0.175-0.431 0.175s-0.319-0.063-0.444-0.188c-0.116-0.11-0.188-0.264-0.188-0.436 0-0.001 0-0.001 0-0.002v0c0-0.001 0-0.001 0-0.002 0-0.171 0.072-0.326 0.187-0.435l0-0z"></path>
</symbol>
<!-- Icon close -->
<symbol id="icon-x-close" viewBox="0 0 32 32"><path d="M7.6 6.303c-.428.161-.985.671-1.205 1.099a1.42 1.42 0 0 0 .004 1.212c.101.207.929 1.068 3.677 3.827l3.547 3.56-3.547 3.56c-3.897 3.912-3.809 3.809-3.809 4.44 0 .441.148.744.568 1.165.421.42.724.568 1.165.568.631 0 .528.088 4.44-3.809L16 18.378l3.56 3.547c3.912 3.897 3.809 3.809 4.44 3.809.441 0 .744-.148 1.165-.568.419-.42.567-.723.567-1.165 0-.632.091-.527-3.808-4.44l-3.547-3.56 3.547-3.56c3.899-3.913 3.808-3.808 3.808-4.44 0-.443-.148-.745-.567-1.165-.421-.42-.724-.568-1.165-.568-.631 0-.528-.088-4.44 3.809L16 13.624l-3.56-3.547C9.643 7.29 8.823 6.502 8.613 6.402c-.301-.147-.767-.191-1.013-.099z"/></symbol>
<symbol id="icon-trash-icon" viewBox="0 0 32 32">
<path fill="none" stroke="#fff" style="stroke: var(--color1, #fff)" stroke-linejoin="round" stroke-linecap="round" stroke-miterlimit="4" stroke-width="2.6667" d="M12 4h8M4 8h24M25.333 8l-0.935 14.027c-0.14 2.103-0.21 3.156-0.665 3.954-0.406 0.702-0.997 1.257-1.708 1.607l-0.023 0.010c-0.825 0.402-1.881 0.402-3.989 0.402h-4.025c-2.108 0-3.164 0-3.989-0.4-0.734-0.361-1.326-0.917-1.721-1.6l-0.010-0.019c-0.455-0.798-0.524-1.849-0.665-3.956l-0.935-14.025M13.333 14v6.667M18.667 14v6.667"></path>
</symbol>
</defs>
</svg>
