<svg xmlns="http://www.w3.org/2000/svg" aria-hidden="true" style="position:absolute;width:0;height:0;overflow:hidden">
<defs>
<!-- Srcoll up btn -->
<symbol id="scroll-up-btn" viewBox="0 0 32 32">
<path fill="#4f2ee8" style="fill: var(--color1, #4f2ee8)" opacity="0.3" d="M32 16c0 8.837-7.163 16-16 16s-16-7.163-16-16c0-8.837 7.163-16 16-16s16 7.163 16 16z"></path>
<path fill="#4f2ee8" style="fill: var(--color1, #4f2ee8)" d="M29.5 16c0 7.456-6.044 13.5-13.5 13.5s-13.5-6.044-13.5-13.5c0-7.456 6.044-13.5 13.5-13.5s13.5 6.044 13.5 13.5z"></path>
<path fill="#fff" style="fill: var(--color2, #fff)" d="M11.688 17.35l4.2-4.213c0.050-0.050 0.104-0.085 0.163-0.106 0.055-0.020 0.118-0.031 0.183-0.031 0.001 0 0.003 0 0.004 0h-0c0.067 0 0.129 0.011 0.188 0.031 0.064 0.024 0.118 0.060 0.162 0.106l4.213 4.213c0.116 0.116 0.175 0.262 0.175 0.438s-0.063 0.325-0.188 0.45c-0.11 0.116-0.264 0.188-0.436 0.188-0.001 0-0.001 0-0.002 0h0c-0.001 0-0.001 0-0.002 0-0.171 0-0.326-0.072-0.435-0.187l-0-0-3.675-3.675-3.675 3.675c-0.117 0.116-0.26 0.175-0.431 0.175s-0.319-0.063-0.444-0.188c-0.116-0.11-0.188-0.264-0.188-0.436 0-0.001 0-0.001 0-0.002v0c0-0.001 0-0.001 0-0.002 0-0.171 0.072-0.326 0.187-0.435l0-0z"></path>
</symbol>
</defs>
</svg>